%TF.GenerationSoftware,KiCad,Pcbnew,9.0.7-9.0.7~ubuntu24.04.1*%
%TF.CreationDate,2026-03-10T15:42:55-05:00*%
%TF.ProjectId,protocard,70726f74-6f63-4617-9264-2e6b69636164,rev?*%
%TF.SameCoordinates,Original*%
%TF.FileFunction,Copper,L2,Bot*%
%TF.FilePolarity,Positive*%
%FSLAX46Y46*%
G04 Gerber Fmt 4.6, Leading zero omitted, Abs format (unit mm)*
G04 Created by KiCad (PCBNEW 9.0.7-9.0.7~ubuntu24.04.1) date 2026-03-10 15:42:55*
%MOMM*%
%LPD*%
G01*
G04 APERTURE LIST*
G04 Aperture macros list*
%AMRoundRect*
0 Rectangle with rounded corners*
0 $1 Rounding radius*
0 $2 $3 $4 $5 $6 $7 $8 $9 X,Y pos of 4 corners*
0 Add a 4 corners polygon primitive as box body*
4,1,4,$2,$3,$4,$5,$6,$7,$8,$9,$2,$3,0*
0 Add four circle primitives for the rounded corners*
1,1,$1+$1,$2,$3*
1,1,$1+$1,$4,$5*
1,1,$1+$1,$6,$7*
1,1,$1+$1,$8,$9*
0 Add four rect primitives between the rounded corners*
20,1,$1+$1,$2,$3,$4,$5,0*
20,1,$1+$1,$4,$5,$6,$7,0*
20,1,$1+$1,$6,$7,$8,$9,0*
20,1,$1+$1,$8,$9,$2,$3,0*%
G04 Aperture macros list end*
%TA.AperFunction,ComponentPad*%
%ADD10R,1.700000X1.700000*%
%TD*%
%TA.AperFunction,ComponentPad*%
%ADD11C,1.700000*%
%TD*%
%TA.AperFunction,ComponentPad*%
%ADD12C,1.498600*%
%TD*%
%TA.AperFunction,ComponentPad*%
%ADD13RoundRect,0.250000X0.550000X0.550000X-0.550000X0.550000X-0.550000X-0.550000X0.550000X-0.550000X0*%
%TD*%
%TA.AperFunction,ComponentPad*%
%ADD14C,1.600000*%
%TD*%
%TA.AperFunction,ComponentPad*%
%ADD15RoundRect,0.250000X-0.550000X-0.550000X0.550000X-0.550000X0.550000X0.550000X-0.550000X0.550000X0*%
%TD*%
%TA.AperFunction,ViaPad*%
%ADD16C,0.600000*%
%TD*%
%TA.AperFunction,Conductor*%
%ADD17C,0.200000*%
%TD*%
G04 APERTURE END LIST*
D10*
%TO.P,J5,1,Pin_1*%
%TO.N,+3V3*%
X100500000Y-110880000D03*
D11*
%TO.P,J5,2,Pin_2*%
X100500000Y-113420000D03*
%TO.P,J5,3,Pin_3*%
X100500000Y-115960000D03*
%TO.P,J5,4,Pin_4*%
X100500000Y-118500000D03*
%TO.P,J5,5,Pin_5*%
X100500000Y-121040000D03*
%TO.P,J5,6,Pin_6*%
X100500000Y-123580000D03*
%TD*%
D10*
%TO.P,JP6,1,A*%
%TO.N,Net-(JP6-A)*%
X72500000Y-85420000D03*
D11*
%TO.P,JP6,2,C*%
%TO.N,Net-(JP6-C)*%
X72500000Y-87960000D03*
%TO.P,JP6,3,B*%
%TO.N,/A7*%
X72500000Y-90500000D03*
%TD*%
D10*
%TO.P,JP2,1,A*%
%TO.N,Net-(JP2-A)*%
X58500000Y-85420000D03*
D11*
%TO.P,JP2,2,C*%
%TO.N,Net-(JP2-C)*%
X58500000Y-87960000D03*
%TO.P,JP2,3,B*%
%TO.N,/A3*%
X58500000Y-90500000D03*
%TD*%
D12*
%TO.P,J1,1,1*%
%TO.N,D0*%
X91980000Y-141500000D03*
%TO.P,J1,2,2*%
%TO.N,A0*%
X91980000Y-138960000D03*
%TO.P,J1,3,3*%
%TO.N,D1*%
X89440000Y-141500000D03*
%TO.P,J1,4,4*%
%TO.N,A1*%
X89440000Y-138960000D03*
%TO.P,J1,5,5*%
%TO.N,D2*%
X86900000Y-141500000D03*
%TO.P,J1,6,6*%
%TO.N,/A2*%
X86900000Y-138960000D03*
%TO.P,J1,7,7*%
%TO.N,D3*%
X84360000Y-141500000D03*
%TO.P,J1,8,8*%
%TO.N,/A3*%
X84360000Y-138960000D03*
%TO.P,J1,9,9*%
%TO.N,D4*%
X81820000Y-141500000D03*
%TO.P,J1,10,10*%
%TO.N,/A4*%
X81820000Y-138960000D03*
%TO.P,J1,11,11*%
%TO.N,D5*%
X79280000Y-141500000D03*
%TO.P,J1,12,12*%
%TO.N,/A5*%
X79280000Y-138960000D03*
%TO.P,J1,13,13*%
%TO.N,D6*%
X76740000Y-141500000D03*
%TO.P,J1,14,14*%
%TO.N,/A6*%
X76740000Y-138960000D03*
%TO.P,J1,15,15*%
%TO.N,D7*%
X74200000Y-141500000D03*
%TO.P,J1,16,16*%
%TO.N,/A7*%
X74200000Y-138960000D03*
%TO.P,J1,17,17*%
%TO.N,OUT*%
X71660000Y-141500000D03*
%TO.P,J1,18,18*%
%TO.N,~{RESET}*%
X71660000Y-138960000D03*
%TO.P,J1,19,19*%
%TO.N,INP*%
X69120000Y-141500000D03*
%TO.P,J1,20,20*%
%TO.N,~{CLEAR}*%
X69120000Y-138960000D03*
%TO.P,J1,21,21*%
%TO.N,WAIT*%
X66580000Y-141500000D03*
%TO.P,J1,22,22*%
%TO.N,GND*%
X66580000Y-138960000D03*
%TO.P,J1,23,23*%
%TO.N,+3V3*%
X64040000Y-141500000D03*
%TO.P,J1,24,24*%
%TO.N,+5V*%
X64040000Y-138960000D03*
%TO.P,J1,25,25*%
%TO.N,unconnected-(J1-Pad25)*%
X61500000Y-141500000D03*
%TO.P,J1,26,26*%
%TO.N,unconnected-(J1-Pad26)*%
X61500000Y-138960000D03*
%TD*%
D11*
%TO.P,REF\u002A\u002A,1*%
%TO.N,N/C*%
X103916386Y-123631001D03*
X104040000Y-83040000D03*
X104040000Y-85580000D03*
X104040000Y-88120000D03*
X104040000Y-90660000D03*
X104040000Y-93200000D03*
X104040000Y-95740000D03*
X104040000Y-98280000D03*
X104040000Y-100820000D03*
X104040000Y-103360000D03*
X104040000Y-105900000D03*
X104040000Y-108440000D03*
X104040000Y-110980000D03*
X104040000Y-113520000D03*
X104040000Y-116060000D03*
X104040000Y-118600000D03*
X104040000Y-121140000D03*
X104040000Y-126220000D03*
X104040000Y-128760000D03*
X104040000Y-131300000D03*
X104040000Y-133840000D03*
X104040000Y-136380000D03*
X104040000Y-138920000D03*
X104040000Y-141460000D03*
X104040000Y-144000000D03*
%TO.P,REF\u002A\u002A,2*%
X106456386Y-123631001D03*
X106580000Y-83040000D03*
X106580000Y-85580000D03*
X106580000Y-88120000D03*
X106580000Y-90660000D03*
X106580000Y-93200000D03*
X106580000Y-95740000D03*
X106580000Y-98280000D03*
X106580000Y-100820000D03*
X106580000Y-103360000D03*
X106580000Y-105900000D03*
X106580000Y-108440000D03*
X106580000Y-110980000D03*
X106580000Y-113520000D03*
X106580000Y-116060000D03*
X106580000Y-118600000D03*
X106580000Y-121140000D03*
X106580000Y-126220000D03*
X106580000Y-128760000D03*
X106580000Y-131300000D03*
X106580000Y-133840000D03*
X106580000Y-136380000D03*
X106580000Y-138920000D03*
X106580000Y-141460000D03*
X106580000Y-144000000D03*
%TO.P,REF\u002A\u002A,3*%
X108996386Y-123631001D03*
X109120000Y-83040000D03*
X109120000Y-85580000D03*
X109120000Y-88120000D03*
X109120000Y-90660000D03*
X109120000Y-93200000D03*
X109120000Y-95740000D03*
X109120000Y-98280000D03*
X109120000Y-100820000D03*
X109120000Y-103360000D03*
X109120000Y-105900000D03*
X109120000Y-108440000D03*
X109120000Y-110980000D03*
X109120000Y-113520000D03*
X109120000Y-116060000D03*
X109120000Y-118600000D03*
X109120000Y-121140000D03*
X109120000Y-126220000D03*
X109120000Y-128760000D03*
X109120000Y-131300000D03*
X109120000Y-133840000D03*
X109120000Y-136380000D03*
X109120000Y-138920000D03*
X109120000Y-141460000D03*
X109120000Y-144000000D03*
%TO.P,REF\u002A\u002A,4*%
X111536386Y-123631001D03*
X111660000Y-83040000D03*
X111660000Y-85580000D03*
X111660000Y-88120000D03*
X111660000Y-90660000D03*
X111660000Y-93200000D03*
X111660000Y-95740000D03*
X111660000Y-98280000D03*
X111660000Y-100820000D03*
X111660000Y-103360000D03*
X111660000Y-105900000D03*
X111660000Y-108440000D03*
X111660000Y-110980000D03*
X111660000Y-113520000D03*
X111660000Y-116060000D03*
X111660000Y-118600000D03*
X111660000Y-121140000D03*
X111660000Y-126220000D03*
X111660000Y-128760000D03*
X111660000Y-131300000D03*
X111660000Y-133840000D03*
X111660000Y-136380000D03*
X111660000Y-138920000D03*
X111660000Y-141460000D03*
X111660000Y-144000000D03*
%TO.P,REF\u002A\u002A,5*%
X114076386Y-123631001D03*
X114200000Y-83040000D03*
X114200000Y-85580000D03*
X114200000Y-88120000D03*
X114200000Y-90660000D03*
X114200000Y-93200000D03*
X114200000Y-95740000D03*
X114200000Y-98280000D03*
X114200000Y-100820000D03*
X114200000Y-103360000D03*
X114200000Y-105900000D03*
X114200000Y-108440000D03*
X114200000Y-110980000D03*
X114200000Y-113520000D03*
X114200000Y-116060000D03*
X114200000Y-118600000D03*
X114200000Y-121140000D03*
X114200000Y-126220000D03*
X114200000Y-128760000D03*
X114200000Y-131300000D03*
X114200000Y-133840000D03*
X114200000Y-136380000D03*
X114200000Y-138920000D03*
X114200000Y-141460000D03*
X114200000Y-144000000D03*
%TO.P,REF\u002A\u002A,6*%
X116616386Y-123631001D03*
X116740000Y-83040000D03*
X116740000Y-85580000D03*
X116740000Y-88120000D03*
X116740000Y-90660000D03*
X116740000Y-93200000D03*
X116740000Y-95740000D03*
X116740000Y-98280000D03*
X116740000Y-100820000D03*
X116740000Y-103360000D03*
X116740000Y-105900000D03*
X116740000Y-108440000D03*
X116740000Y-110980000D03*
X116740000Y-113520000D03*
X116740000Y-116060000D03*
X116740000Y-118600000D03*
X116740000Y-121140000D03*
X116740000Y-126220000D03*
X116740000Y-128760000D03*
X116740000Y-131300000D03*
X116740000Y-133840000D03*
X116740000Y-136380000D03*
X116740000Y-138920000D03*
X116740000Y-141460000D03*
X116740000Y-144000000D03*
%TO.P,REF\u002A\u002A,7*%
X119156386Y-123631001D03*
X119280000Y-83040000D03*
X119280000Y-85580000D03*
X119280000Y-88120000D03*
X119280000Y-90660000D03*
X119280000Y-93200000D03*
X119280000Y-95740000D03*
X119280000Y-98280000D03*
X119280000Y-100820000D03*
X119280000Y-103360000D03*
X119280000Y-105900000D03*
X119280000Y-108440000D03*
X119280000Y-110980000D03*
X119280000Y-113520000D03*
X119280000Y-116060000D03*
X119280000Y-118600000D03*
X119280000Y-121140000D03*
X119280000Y-126220000D03*
X119280000Y-128760000D03*
X119280000Y-131300000D03*
X119280000Y-133840000D03*
X119280000Y-136380000D03*
X119280000Y-138920000D03*
X119280000Y-141460000D03*
X119280000Y-144000000D03*
%TO.P,REF\u002A\u002A,8*%
X121696386Y-123631001D03*
X121820000Y-83040000D03*
X121820000Y-85580000D03*
X121820000Y-88120000D03*
X121820000Y-90660000D03*
X121820000Y-93200000D03*
X121820000Y-95740000D03*
X121820000Y-98280000D03*
X121820000Y-100820000D03*
X121820000Y-103360000D03*
X121820000Y-105900000D03*
X121820000Y-108440000D03*
X121820000Y-110980000D03*
X121820000Y-113520000D03*
X121820000Y-116060000D03*
X121820000Y-118600000D03*
X121820000Y-121140000D03*
X121820000Y-126220000D03*
X121820000Y-128760000D03*
X121820000Y-131300000D03*
X121820000Y-133840000D03*
X121820000Y-136380000D03*
X121820000Y-138920000D03*
X121820000Y-141460000D03*
X121820000Y-144000000D03*
%TO.P,REF\u002A\u002A,9*%
X124236386Y-123631001D03*
X124360000Y-83040000D03*
X124360000Y-85580000D03*
X124360000Y-88120000D03*
X124360000Y-90660000D03*
X124360000Y-93200000D03*
X124360000Y-95740000D03*
X124360000Y-98280000D03*
X124360000Y-100820000D03*
X124360000Y-103360000D03*
X124360000Y-105900000D03*
X124360000Y-108440000D03*
X124360000Y-110980000D03*
X124360000Y-113520000D03*
X124360000Y-116060000D03*
X124360000Y-118600000D03*
X124360000Y-121140000D03*
X124360000Y-126220000D03*
X124360000Y-128760000D03*
X124360000Y-131300000D03*
X124360000Y-133840000D03*
X124360000Y-136380000D03*
X124360000Y-138920000D03*
X124360000Y-141460000D03*
X124360000Y-144000000D03*
%TO.P,REF\u002A\u002A,10*%
X126776386Y-123631001D03*
X126900000Y-83040000D03*
X126900000Y-85580000D03*
X126900000Y-88120000D03*
X126900000Y-90660000D03*
X126900000Y-93200000D03*
X126900000Y-95740000D03*
X126900000Y-98280000D03*
X126900000Y-100820000D03*
X126900000Y-103360000D03*
X126900000Y-105900000D03*
X126900000Y-108440000D03*
X126900000Y-110980000D03*
X126900000Y-113520000D03*
X126900000Y-116060000D03*
X126900000Y-118600000D03*
X126900000Y-121140000D03*
X126900000Y-126220000D03*
X126900000Y-128760000D03*
X126900000Y-131300000D03*
X126900000Y-133840000D03*
X126900000Y-136380000D03*
X126900000Y-138920000D03*
X126900000Y-141460000D03*
X126900000Y-144000000D03*
%TO.P,REF\u002A\u002A,11*%
X129316386Y-123631001D03*
X129440000Y-83040000D03*
X129440000Y-85580000D03*
X129440000Y-88120000D03*
X129440000Y-90660000D03*
X129440000Y-93200000D03*
X129440000Y-95740000D03*
X129440000Y-98280000D03*
X129440000Y-100820000D03*
X129440000Y-103360000D03*
X129440000Y-105900000D03*
X129440000Y-108440000D03*
X129440000Y-110980000D03*
X129440000Y-113520000D03*
X129440000Y-116060000D03*
X129440000Y-118600000D03*
X129440000Y-121140000D03*
X129440000Y-126220000D03*
X129440000Y-128760000D03*
X129440000Y-131300000D03*
X129440000Y-133840000D03*
X129440000Y-136380000D03*
X129440000Y-138920000D03*
X129440000Y-141460000D03*
X129440000Y-144000000D03*
%TO.P,REF\u002A\u002A,12*%
X131856386Y-123631001D03*
X131980000Y-83040000D03*
X131980000Y-85580000D03*
X131980000Y-88120000D03*
X131980000Y-90660000D03*
X131980000Y-93200000D03*
X131980000Y-95740000D03*
X131980000Y-98280000D03*
X131980000Y-100820000D03*
X131980000Y-103360000D03*
X131980000Y-105900000D03*
X131980000Y-108440000D03*
X131980000Y-110980000D03*
X131980000Y-113520000D03*
X131980000Y-116060000D03*
X131980000Y-118600000D03*
X131980000Y-121140000D03*
X131980000Y-126220000D03*
X131980000Y-128760000D03*
X131980000Y-131300000D03*
X131980000Y-133840000D03*
X131980000Y-136380000D03*
X131980000Y-138920000D03*
X131980000Y-141460000D03*
X131980000Y-144000000D03*
%TO.P,REF\u002A\u002A,13*%
X134396386Y-123631001D03*
X134520000Y-83040000D03*
X134520000Y-85580000D03*
X134520000Y-88120000D03*
X134520000Y-90660000D03*
X134520000Y-93200000D03*
X134520000Y-95740000D03*
X134520000Y-98280000D03*
X134520000Y-100820000D03*
X134520000Y-103360000D03*
X134520000Y-105900000D03*
X134520000Y-108440000D03*
X134520000Y-110980000D03*
X134520000Y-113520000D03*
X134520000Y-116060000D03*
X134520000Y-118600000D03*
X134520000Y-121140000D03*
X134520000Y-126220000D03*
X134520000Y-128760000D03*
X134520000Y-131300000D03*
X134520000Y-133840000D03*
X134520000Y-136380000D03*
X134520000Y-138920000D03*
X134520000Y-141460000D03*
X134520000Y-144000000D03*
%TO.P,REF\u002A\u002A,14*%
X136936386Y-123631001D03*
X137060000Y-83040000D03*
X137060000Y-85580000D03*
X137060000Y-88120000D03*
X137060000Y-90660000D03*
X137060000Y-93200000D03*
X137060000Y-95740000D03*
X137060000Y-98280000D03*
X137060000Y-100820000D03*
X137060000Y-103360000D03*
X137060000Y-105900000D03*
X137060000Y-108440000D03*
X137060000Y-110980000D03*
X137060000Y-113520000D03*
X137060000Y-116060000D03*
X137060000Y-118600000D03*
X137060000Y-121140000D03*
X137060000Y-126220000D03*
X137060000Y-128760000D03*
X137060000Y-131300000D03*
X137060000Y-133840000D03*
X137060000Y-136380000D03*
X137060000Y-138920000D03*
X137060000Y-141460000D03*
X137060000Y-144000000D03*
%TO.P,REF\u002A\u002A,15*%
X139476386Y-123631001D03*
X139600000Y-83040000D03*
X139600000Y-85580000D03*
X139600000Y-88120000D03*
X139600000Y-90660000D03*
X139600000Y-93200000D03*
X139600000Y-95740000D03*
X139600000Y-98280000D03*
X139600000Y-100820000D03*
X139600000Y-103360000D03*
X139600000Y-105900000D03*
X139600000Y-108440000D03*
X139600000Y-110980000D03*
X139600000Y-113520000D03*
X139600000Y-116060000D03*
X139600000Y-118600000D03*
X139600000Y-121140000D03*
X139600000Y-126220000D03*
X139600000Y-128760000D03*
X139600000Y-131300000D03*
X139600000Y-133840000D03*
X139600000Y-136380000D03*
X139600000Y-138920000D03*
X139600000Y-141460000D03*
X139600000Y-144000000D03*
%TO.P,REF\u002A\u002A,16*%
X142016386Y-123631001D03*
X142140000Y-83040000D03*
X142140000Y-85580000D03*
X142140000Y-88120000D03*
X142140000Y-90660000D03*
X142140000Y-93200000D03*
X142140000Y-95740000D03*
X142140000Y-98280000D03*
X142140000Y-100820000D03*
X142140000Y-103360000D03*
X142140000Y-105900000D03*
X142140000Y-108440000D03*
X142140000Y-110980000D03*
X142140000Y-113520000D03*
X142140000Y-116060000D03*
X142140000Y-118600000D03*
X142140000Y-121140000D03*
X142140000Y-126220000D03*
X142140000Y-128760000D03*
X142140000Y-131300000D03*
X142140000Y-133840000D03*
X142140000Y-136380000D03*
X142140000Y-138920000D03*
X142140000Y-141460000D03*
X142140000Y-144000000D03*
X144556386Y-123631001D03*
X144680000Y-83040000D03*
X144680000Y-85580000D03*
X144680000Y-88120000D03*
X144680000Y-90660000D03*
X144680000Y-93200000D03*
X144680000Y-95740000D03*
X144680000Y-98280000D03*
X144680000Y-100820000D03*
X144680000Y-103360000D03*
X144680000Y-105900000D03*
X144680000Y-108440000D03*
X144680000Y-110980000D03*
X144680000Y-113520000D03*
X144680000Y-116060000D03*
X144680000Y-118600000D03*
X144680000Y-121140000D03*
X144680000Y-126220000D03*
X144680000Y-128760000D03*
X144680000Y-131300000D03*
X144680000Y-133840000D03*
X144680000Y-136380000D03*
X144680000Y-138920000D03*
X144680000Y-141460000D03*
X144680000Y-144000000D03*
X147096386Y-123631001D03*
X147220000Y-83040000D03*
X147220000Y-85580000D03*
X147220000Y-88120000D03*
X147220000Y-90660000D03*
X147220000Y-93200000D03*
X147220000Y-95740000D03*
X147220000Y-98280000D03*
X147220000Y-100820000D03*
X147220000Y-103360000D03*
X147220000Y-105900000D03*
X147220000Y-108440000D03*
X147220000Y-110980000D03*
X147220000Y-113520000D03*
X147220000Y-116060000D03*
X147220000Y-118600000D03*
X147220000Y-121140000D03*
X147220000Y-126220000D03*
X147220000Y-128760000D03*
X147220000Y-131300000D03*
X147220000Y-133840000D03*
X147220000Y-136380000D03*
X147220000Y-138920000D03*
X147220000Y-141460000D03*
X147220000Y-144000000D03*
%TD*%
D10*
%TO.P,J4,1,Pin_1*%
%TO.N,+5V*%
X100500000Y-128500000D03*
D11*
%TO.P,J4,2,Pin_2*%
X100500000Y-131040000D03*
%TO.P,J4,3,Pin_3*%
X100500000Y-133580000D03*
%TO.P,J4,4,Pin_4*%
X100500000Y-136120000D03*
%TO.P,J4,5,Pin_5*%
X100500000Y-138660000D03*
%TO.P,J4,6,Pin_6*%
X100500000Y-141200000D03*
%TD*%
D10*
%TO.P,JP4,1,A*%
%TO.N,Net-(JP4-A)*%
X65500000Y-85420000D03*
D11*
%TO.P,JP4,2,C*%
%TO.N,Net-(JP4-C)*%
X65500000Y-87960000D03*
%TO.P,JP4,3,B*%
%TO.N,/A5*%
X65500000Y-90500000D03*
%TD*%
D13*
%TO.P,U3,1,A0*%
%TO.N,GND*%
X92500000Y-131040000D03*
D14*
%TO.P,U3,2,A1*%
X92500000Y-128500000D03*
%TO.P,U3,3,A2*%
X92500000Y-125960000D03*
%TO.P,U3,4,P0*%
%TO.N,D0*%
X92500000Y-123420000D03*
%TO.P,U3,5,P1*%
%TO.N,D1*%
X92500000Y-120880000D03*
%TO.P,U3,6,P2*%
%TO.N,D2*%
X92500000Y-118340000D03*
%TO.P,U3,7,P3*%
%TO.N,D3*%
X92500000Y-115800000D03*
%TO.P,U3,8,GND*%
%TO.N,GND*%
X92500000Y-113260000D03*
%TO.P,U3,9,P4*%
%TO.N,D4*%
X84880000Y-113260000D03*
%TO.P,U3,10,P5*%
%TO.N,D5*%
X84880000Y-115800000D03*
%TO.P,U3,11,P6*%
%TO.N,D6*%
X84880000Y-118340000D03*
%TO.P,U3,12,P7*%
%TO.N,D7*%
X84880000Y-120880000D03*
%TO.P,U3,13,~{INT}*%
%TO.N,unconnected-(U3-~{INT}-Pad13)*%
X84880000Y-123420000D03*
%TO.P,U3,14,SCL*%
%TO.N,Net-(J3-Pin_2)*%
X84880000Y-125960000D03*
%TO.P,U3,15,SDA*%
%TO.N,Net-(J3-Pin_3)*%
X84880000Y-128500000D03*
%TO.P,U3,16,VDD*%
%TO.N,+3V3*%
X84880000Y-131040000D03*
%TD*%
D10*
%TO.P,JP3,1,A*%
%TO.N,Net-(JP3-A)*%
X62000000Y-85420000D03*
D11*
%TO.P,JP3,2,C*%
%TO.N,Net-(JP3-C)*%
X62000000Y-87960000D03*
%TO.P,JP3,3,B*%
%TO.N,/A4*%
X62000000Y-90500000D03*
%TD*%
D10*
%TO.P,JP5,1,A*%
%TO.N,Net-(JP5-A)*%
X69000000Y-85420000D03*
D11*
%TO.P,JP5,2,C*%
%TO.N,Net-(JP5-C)*%
X69000000Y-87960000D03*
%TO.P,JP5,3,B*%
%TO.N,/A6*%
X69000000Y-90500000D03*
%TD*%
D10*
%TO.P,J6,1,Pin_1*%
%TO.N,GND*%
X87340000Y-87500000D03*
D11*
%TO.P,J6,2,Pin_2*%
X89880000Y-87500000D03*
%TO.P,J6,3,Pin_3*%
X92420000Y-87500000D03*
%TO.P,J6,4,Pin_4*%
X94960000Y-87500000D03*
%TO.P,J6,5,Pin_5*%
X97500000Y-87500000D03*
%TO.P,J6,6,Pin_6*%
X100040000Y-87500000D03*
%TD*%
D10*
%TO.P,J3,1,Pin_1*%
%TO.N,Net-(J3-Pin_1)*%
X100500000Y-92800000D03*
D11*
%TO.P,J3,2,Pin_2*%
%TO.N,Net-(J3-Pin_2)*%
X100500000Y-95340000D03*
%TO.P,J3,3,Pin_3*%
%TO.N,Net-(J3-Pin_3)*%
X100500000Y-97880000D03*
%TO.P,J3,4,Pin_4*%
%TO.N,INP*%
X100500000Y-100420000D03*
%TO.P,J3,5,Pin_5*%
%TO.N,OUT*%
X100500000Y-102960000D03*
%TO.P,J3,6,Pin_6*%
%TO.N,WAIT*%
X100500000Y-105500000D03*
%TD*%
D10*
%TO.P,JP1,1,A*%
%TO.N,Net-(JP1-A)*%
X55000000Y-85420000D03*
D11*
%TO.P,JP1,2,C*%
%TO.N,Net-(JP1-C)*%
X55000000Y-87960000D03*
%TO.P,JP1,3,B*%
%TO.N,/A2*%
X55000000Y-90500000D03*
%TD*%
D15*
%TO.P,U2,1,K*%
%TO.N,Net-(J3-Pin_1)*%
X70500000Y-113420000D03*
D14*
%TO.P,U2,2,A*%
%TO.N,Net-(JP4-C)*%
X70500000Y-115960000D03*
%TO.P,U2,3,B*%
%TO.N,Net-(JP3-C)*%
X70500000Y-118500000D03*
%TO.P,U2,4,C*%
%TO.N,Net-(JP1-C)*%
X70500000Y-121040000D03*
%TO.P,U2,5,D*%
%TO.N,Net-(JP2-C)*%
X70500000Y-123580000D03*
%TO.P,U2,6,NC*%
%TO.N,unconnected-(U2-NC-Pad6)*%
X70500000Y-126120000D03*
%TO.P,U2,7,Vss*%
%TO.N,GND*%
X70500000Y-128660000D03*
%TO.P,U2,8,NC*%
%TO.N,unconnected-(U2-NC-Pad8)*%
X78120000Y-128660000D03*
%TO.P,U2,9,E*%
%TO.N,Net-(JP5-C)*%
X78120000Y-126120000D03*
%TO.P,U2,10,F*%
%TO.N,Net-(JP6-C)*%
X78120000Y-123580000D03*
%TO.P,U2,11,G*%
%TO.N,+3V3*%
X78120000Y-121040000D03*
%TO.P,U2,12,H*%
X78120000Y-118500000D03*
%TO.P,U2,13,J*%
%TO.N,unconnected-(U2-J-Pad13)*%
X78120000Y-115960000D03*
%TO.P,U2,14,Vdd*%
%TO.N,+3V3*%
X78120000Y-113420000D03*
%TD*%
D13*
%TO.P,U1,1*%
%TO.N,/A7*%
X63810000Y-128615000D03*
D14*
%TO.P,U1,2*%
%TO.N,Net-(JP6-A)*%
X63810000Y-126075000D03*
%TO.P,U1,3*%
%TO.N,/A5*%
X63810000Y-123535000D03*
%TO.P,U1,4*%
%TO.N,Net-(JP4-A)*%
X63810000Y-120995000D03*
%TO.P,U1,5*%
%TO.N,/A3*%
X63810000Y-118455000D03*
%TO.P,U1,6*%
%TO.N,Net-(JP2-A)*%
X63810000Y-115915000D03*
%TO.P,U1,7,GND*%
%TO.N,GND*%
X63810000Y-113375000D03*
%TO.P,U1,8*%
%TO.N,Net-(JP1-A)*%
X56190000Y-113375000D03*
%TO.P,U1,9*%
%TO.N,/A2*%
X56190000Y-115915000D03*
%TO.P,U1,10*%
%TO.N,Net-(JP3-A)*%
X56190000Y-118455000D03*
%TO.P,U1,11*%
%TO.N,/A4*%
X56190000Y-120995000D03*
%TO.P,U1,12*%
%TO.N,Net-(JP5-A)*%
X56190000Y-123535000D03*
%TO.P,U1,13*%
%TO.N,/A6*%
X56190000Y-126075000D03*
%TO.P,U1,14,VCC*%
%TO.N,+3V3*%
X56190000Y-128615000D03*
%TD*%
D16*
%TO.N,/A7*%
X54000000Y-114500000D03*
%TO.N,/A5*%
X54000000Y-119000000D03*
%TO.N,Net-(JP2-A)*%
X57898959Y-113101041D03*
%TO.N,Net-(JP4-A)*%
X60073960Y-115276043D03*
%TO.N,Net-(JP4-C)*%
X76000000Y-89500000D03*
%TO.N,Net-(JP5-C)*%
X73500000Y-121500000D03*
%TO.N,Net-(JP6-C)*%
X76500000Y-91500000D03*
%TD*%
D17*
%TO.N,WAIT*%
X100500000Y-105500000D02*
X99349000Y-106651000D01*
X99349000Y-145651000D02*
X98500000Y-146500000D01*
X98500000Y-146500000D02*
X71580000Y-146500000D01*
X99349000Y-106651000D02*
X99349000Y-145651000D01*
X71580000Y-146500000D02*
X66580000Y-141500000D01*
%TO.N,/A2*%
X56000000Y-112000000D02*
X56372050Y-112000000D01*
X53500000Y-92000000D02*
X53500000Y-109500000D01*
X57291000Y-114814000D02*
X56190000Y-115915000D01*
X53500000Y-109500000D02*
X56000000Y-112000000D01*
X57291000Y-112918950D02*
X57291000Y-114814000D01*
X55000000Y-90500000D02*
X53500000Y-92000000D01*
X56372050Y-112000000D02*
X57291000Y-112918950D01*
%TO.N,GND*%
X71601000Y-127559000D02*
X71601000Y-117601000D01*
X70500000Y-128660000D02*
X71601000Y-127559000D01*
X70043950Y-117061000D02*
X66357950Y-113375000D01*
X66357950Y-113375000D02*
X63810000Y-113375000D01*
X71061000Y-117061000D02*
X70043950Y-117061000D01*
X71601000Y-117601000D02*
X71061000Y-117061000D01*
%TO.N,+3V3*%
X54500000Y-132500000D02*
X56500000Y-134500000D01*
X80500000Y-123420000D02*
X78120000Y-121040000D01*
X80500000Y-131500000D02*
X80500000Y-123420000D01*
X56500000Y-134500000D02*
X77500000Y-134500000D01*
X54500000Y-130305000D02*
X54500000Y-132500000D01*
X77500000Y-134500000D02*
X80500000Y-131500000D01*
X56190000Y-128615000D02*
X54500000Y-130305000D01*
%TO.N,D6*%
X78000000Y-136500000D02*
X78000000Y-140240000D01*
X85500000Y-122000000D02*
X84500000Y-122000000D01*
X84500000Y-122000000D02*
X81500000Y-125000000D01*
X84880000Y-118340000D02*
X85981000Y-119441000D01*
X78000000Y-140240000D02*
X76740000Y-141500000D01*
X81500000Y-133000000D02*
X78000000Y-136500000D01*
X85981000Y-121519000D02*
X85500000Y-122000000D01*
X81500000Y-125000000D02*
X81500000Y-133000000D01*
X85981000Y-119441000D02*
X85981000Y-121519000D01*
%TO.N,/A6*%
X53500000Y-132500000D02*
X53500000Y-128765000D01*
X73149700Y-141935049D02*
X73149700Y-140849700D01*
X73764951Y-142550300D02*
X73149700Y-141935049D01*
X53500000Y-128765000D02*
X56190000Y-126075000D01*
X69500000Y-135000000D02*
X56000000Y-135000000D01*
X74635049Y-142550300D02*
X73764951Y-142550300D01*
X73149700Y-140849700D02*
X73000000Y-140700000D01*
X56000000Y-135000000D02*
X53500000Y-132500000D01*
X75250300Y-141935049D02*
X74635049Y-142550300D01*
X76740000Y-138960000D02*
X76740000Y-140014651D01*
X73000000Y-140700000D02*
X73000000Y-138500000D01*
X73000000Y-138500000D02*
X69500000Y-135000000D01*
X75250300Y-141504351D02*
X75250300Y-141935049D01*
X76740000Y-140014651D02*
X75250300Y-141504351D01*
%TO.N,/A7*%
X54000000Y-115500000D02*
X55854000Y-117354000D01*
X64911000Y-127514000D02*
X63810000Y-128615000D01*
X64266050Y-122434000D02*
X64911000Y-123078950D01*
X64911000Y-123078950D02*
X64911000Y-127514000D01*
X63691950Y-122434000D02*
X64266050Y-122434000D01*
X55854000Y-117354000D02*
X58611950Y-117354000D01*
X54000000Y-114500000D02*
X54000000Y-115500000D01*
X58611950Y-117354000D02*
X63691950Y-122434000D01*
%TO.N,/A4*%
X72710300Y-141064951D02*
X72095049Y-140449700D01*
X73599265Y-142950300D02*
X72710300Y-142061335D01*
X81820000Y-138960000D02*
X80769700Y-140010300D01*
X77549700Y-142950300D02*
X73599265Y-142950300D01*
X79284351Y-140010300D02*
X78000000Y-141294651D01*
X55500000Y-135500000D02*
X53000000Y-133000000D01*
X53000000Y-133000000D02*
X53000000Y-124185000D01*
X80769700Y-140010300D02*
X79284351Y-140010300D01*
X70500000Y-139799400D02*
X70500000Y-137000000D01*
X78000000Y-142500000D02*
X77549700Y-142950300D01*
X72710300Y-142061335D02*
X72710300Y-141064951D01*
X72095049Y-140449700D02*
X71150300Y-140449700D01*
X71150300Y-140449700D02*
X70500000Y-139799400D01*
X69000000Y-135500000D02*
X55500000Y-135500000D01*
X78000000Y-141294651D02*
X78000000Y-142500000D01*
X53000000Y-124185000D02*
X56190000Y-120995000D01*
X70500000Y-137000000D02*
X69000000Y-135500000D01*
%TO.N,/A5*%
X54894000Y-119894000D02*
X60169000Y-119894000D01*
X54000000Y-119000000D02*
X54894000Y-119894000D01*
X60169000Y-119894000D02*
X63810000Y-123535000D01*
%TO.N,D7*%
X81000000Y-124760000D02*
X84880000Y-120880000D01*
X81000000Y-132500000D02*
X75500000Y-138000000D01*
X81000000Y-132500000D02*
X81000000Y-124760000D01*
X74200000Y-141500000D02*
X75500000Y-140200000D01*
X75500000Y-140200000D02*
X75500000Y-138000000D01*
%TO.N,/A3*%
X62000000Y-115500000D02*
X62000000Y-116645000D01*
X62000000Y-116645000D02*
X63810000Y-118455000D01*
X55000000Y-94000000D02*
X55000000Y-108500000D01*
X58500000Y-90500000D02*
X55000000Y-94000000D01*
X55000000Y-108500000D02*
X62000000Y-115500000D01*
%TO.N,OUT*%
X98948000Y-104512000D02*
X98948000Y-145052000D01*
X98500000Y-145500000D02*
X74600330Y-145500000D01*
X100500000Y-102960000D02*
X98948000Y-104512000D01*
X98948000Y-145052000D02*
X98500000Y-145500000D01*
X74600330Y-145500000D02*
X71660000Y-142559670D01*
X71660000Y-142559670D02*
X71660000Y-141500000D01*
%TO.N,Net-(JP1-A)*%
X55000000Y-85420000D02*
X54580000Y-85420000D01*
X54580000Y-85420000D02*
X53000000Y-87000000D01*
X53000000Y-110185000D02*
X56190000Y-113375000D01*
X53000000Y-87000000D02*
X53000000Y-110185000D01*
%TO.N,Net-(JP2-C)*%
X57349000Y-91085314D02*
X57349000Y-89111000D01*
X70500000Y-123580000D02*
X66814000Y-119894000D01*
X66814000Y-119894000D02*
X63276100Y-119894000D01*
X54500000Y-108782843D02*
X54500000Y-93934314D01*
X54500000Y-93934314D02*
X57349000Y-91085314D01*
X61500000Y-118117900D02*
X61500000Y-115782843D01*
X63276100Y-119894000D02*
X61500000Y-118117900D01*
X57349000Y-89111000D02*
X58500000Y-87960000D01*
X61500000Y-115782843D02*
X54500000Y-108782843D01*
%TO.N,Net-(JP2-A)*%
X57450000Y-85420000D02*
X56949000Y-85921000D01*
X56949000Y-85921000D02*
X56949000Y-90916800D01*
X54000000Y-93865800D02*
X56949000Y-90916800D01*
X54400000Y-109400000D02*
X57898959Y-112898959D01*
X54000000Y-93865800D02*
X54000000Y-109065685D01*
X57898959Y-112898959D02*
X57898959Y-113101041D01*
X54000000Y-109065685D02*
X54334315Y-109400000D01*
X58500000Y-85420000D02*
X57450000Y-85420000D01*
X54334315Y-109400000D02*
X54400000Y-109400000D01*
%TO.N,Net-(JP3-C)*%
X62000000Y-88627760D02*
X62000000Y-87960000D01*
X57400000Y-109900000D02*
X57334314Y-109900000D01*
X69016000Y-117016000D02*
X63016000Y-117016000D01*
X62500000Y-115000000D02*
X57400000Y-109900000D01*
X62500000Y-116500000D02*
X62500000Y-115000000D01*
X55500000Y-108065686D02*
X55500000Y-95127760D01*
X63016000Y-117016000D02*
X62500000Y-116500000D01*
X70500000Y-118500000D02*
X69016000Y-117016000D01*
X55500000Y-95127760D02*
X62000000Y-88627760D01*
X57334314Y-109900000D02*
X55500000Y-108065686D01*
%TO.N,Net-(JP3-A)*%
X60580000Y-84000000D02*
X54000000Y-84000000D01*
X62000000Y-85420000D02*
X60580000Y-84000000D01*
X54545000Y-118455000D02*
X56190000Y-118455000D01*
X54000000Y-84000000D02*
X52500000Y-85500000D01*
X52500000Y-116500000D02*
X54500000Y-118500000D01*
X52500000Y-85500000D02*
X52500000Y-116500000D01*
X54500000Y-118500000D02*
X54545000Y-118455000D01*
%TO.N,Net-(JP4-A)*%
X63810000Y-120995000D02*
X60073960Y-117258960D01*
X60073960Y-117258960D02*
X60073960Y-115276043D01*
%TO.N,Net-(JP4-C)*%
X73309000Y-86809000D02*
X76000000Y-89500000D01*
X66651000Y-86809000D02*
X73309000Y-86809000D01*
X65500000Y-87960000D02*
X66651000Y-86809000D01*
%TO.N,Net-(JP5-C)*%
X69000000Y-87960000D02*
X67611000Y-89349000D01*
X73500000Y-113500000D02*
X73500000Y-121500000D01*
X67611000Y-89349000D02*
X67611000Y-107611000D01*
X67611000Y-107611000D02*
X73500000Y-113500000D01*
%TO.N,Net-(JP6-C)*%
X76040000Y-91500000D02*
X72500000Y-87960000D01*
X76500000Y-91500000D02*
X76040000Y-91500000D01*
%TD*%
%TA.AperFunction,Conductor*%
%TO.N,GND*%
G36*
X66118454Y-139151179D02*
G01*
X66183661Y-139264121D01*
X66275879Y-139356339D01*
X66388821Y-139421546D01*
X66454427Y-139439125D01*
X65890375Y-140003176D01*
X65890375Y-140003177D01*
X65925223Y-140028496D01*
X66103305Y-140119234D01*
X66154101Y-140167209D01*
X66170896Y-140235030D01*
X66148359Y-140301165D01*
X66103305Y-140340204D01*
X65924961Y-140431075D01*
X65840860Y-140492179D01*
X65765810Y-140546706D01*
X65765808Y-140546708D01*
X65765807Y-140546708D01*
X65626708Y-140685807D01*
X65626708Y-140685808D01*
X65626706Y-140685810D01*
X65608018Y-140711532D01*
X65511075Y-140844961D01*
X65420485Y-141022754D01*
X65372510Y-141073550D01*
X65304689Y-141090345D01*
X65238554Y-141067807D01*
X65199515Y-141022754D01*
X65150297Y-140926160D01*
X65108925Y-140844962D01*
X64993294Y-140685810D01*
X64854190Y-140546706D01*
X64695038Y-140431075D01*
X64592866Y-140379016D01*
X64517245Y-140340485D01*
X64466449Y-140292510D01*
X64449654Y-140224689D01*
X64472191Y-140158555D01*
X64517245Y-140119515D01*
X64604512Y-140075050D01*
X64695038Y-140028925D01*
X64854190Y-139913294D01*
X64993294Y-139774190D01*
X65108925Y-139615038D01*
X65198235Y-139439757D01*
X65198236Y-139439753D01*
X65199795Y-139436694D01*
X65247769Y-139385898D01*
X65315590Y-139369103D01*
X65381725Y-139391640D01*
X65420765Y-139436694D01*
X65511502Y-139614775D01*
X65536822Y-139649623D01*
X65536822Y-139649624D01*
X66100874Y-139085572D01*
X66118454Y-139151179D01*
G37*
%TD.AperFunction*%
%TA.AperFunction,Conductor*%
G36*
X67623176Y-139649623D02*
G01*
X67648495Y-139614776D01*
X67739234Y-139436694D01*
X67787209Y-139385898D01*
X67855030Y-139369103D01*
X67921165Y-139391640D01*
X67960204Y-139436694D01*
X68012732Y-139539786D01*
X68051075Y-139615038D01*
X68166706Y-139774190D01*
X68305810Y-139913294D01*
X68464962Y-140028925D01*
X68496415Y-140044951D01*
X68642754Y-140119515D01*
X68693550Y-140167490D01*
X68710345Y-140235311D01*
X68687807Y-140301446D01*
X68642754Y-140340485D01*
X68464961Y-140431075D01*
X68380860Y-140492179D01*
X68305810Y-140546706D01*
X68305808Y-140546708D01*
X68305807Y-140546708D01*
X68166708Y-140685807D01*
X68166708Y-140685808D01*
X68166706Y-140685810D01*
X68148018Y-140711532D01*
X68051075Y-140844961D01*
X67960485Y-141022754D01*
X67912510Y-141073550D01*
X67844689Y-141090345D01*
X67778554Y-141067807D01*
X67739515Y-141022754D01*
X67690297Y-140926160D01*
X67648925Y-140844962D01*
X67533294Y-140685810D01*
X67394190Y-140546706D01*
X67235038Y-140431075D01*
X67179500Y-140402777D01*
X67056694Y-140340204D01*
X67005898Y-140292229D01*
X66989103Y-140224408D01*
X67011640Y-140158273D01*
X67056694Y-140119234D01*
X67234776Y-140028495D01*
X67269624Y-140003176D01*
X66705573Y-139439125D01*
X66771179Y-139421546D01*
X66884121Y-139356339D01*
X66976339Y-139264121D01*
X67041546Y-139151179D01*
X67059125Y-139085572D01*
X67623176Y-139649623D01*
G37*
%TD.AperFunction*%
%TA.AperFunction,Conductor*%
G36*
X148942539Y-81020185D02*
G01*
X148988294Y-81072989D01*
X148999500Y-81124500D01*
X148999500Y-149875500D01*
X148979815Y-149942539D01*
X148927011Y-149988294D01*
X148875500Y-149999500D01*
X50124500Y-149999500D01*
X50057461Y-149979815D01*
X50011706Y-149927011D01*
X50000500Y-149875500D01*
X50000500Y-116579054D01*
X51899498Y-116579054D01*
X51899499Y-116579057D01*
X51940423Y-116731785D01*
X51940424Y-116731786D01*
X51955565Y-116758013D01*
X51955566Y-116758014D01*
X52019475Y-116868709D01*
X52019481Y-116868717D01*
X52138349Y-116987585D01*
X52138355Y-116987590D01*
X53421662Y-118270897D01*
X53455147Y-118332220D01*
X53450163Y-118401912D01*
X53421662Y-118446259D01*
X53378213Y-118489707D01*
X53378210Y-118489711D01*
X53290609Y-118620814D01*
X53290602Y-118620827D01*
X53230264Y-118766498D01*
X53230261Y-118766510D01*
X53199500Y-118921153D01*
X53199500Y-119078846D01*
X53230261Y-119233489D01*
X53230264Y-119233501D01*
X53290602Y-119379172D01*
X53290609Y-119379185D01*
X53378210Y-119510288D01*
X53378213Y-119510292D01*
X53489707Y-119621786D01*
X53489711Y-119621789D01*
X53620814Y-119709390D01*
X53620827Y-119709397D01*
X53761621Y-119767715D01*
X53766503Y-119769737D01*
X53831147Y-119782595D01*
X53921849Y-119800638D01*
X53983760Y-119833023D01*
X53985339Y-119834574D01*
X54409139Y-120258374D01*
X54409149Y-120258385D01*
X54413479Y-120262715D01*
X54413480Y-120262716D01*
X54525284Y-120374520D01*
X54605730Y-120420965D01*
X54662215Y-120453577D01*
X54814943Y-120494501D01*
X54814945Y-120494501D01*
X54823003Y-120495562D01*
X54822821Y-120496937D01*
X54881563Y-120514186D01*
X54927318Y-120566990D01*
X54937262Y-120636148D01*
X54932455Y-120656819D01*
X54921523Y-120690461D01*
X54921523Y-120690464D01*
X54889500Y-120892648D01*
X54889500Y-121097351D01*
X54921522Y-121299534D01*
X54926173Y-121313848D01*
X54928165Y-121383690D01*
X54895921Y-121439842D01*
X52633889Y-123701874D01*
X52633881Y-123701882D01*
X52631286Y-123704478D01*
X52631284Y-123704480D01*
X52519480Y-123816284D01*
X52502008Y-123846547D01*
X52495705Y-123857463D01*
X52495705Y-123857464D01*
X52460054Y-123919214D01*
X52440423Y-123953215D01*
X52399499Y-124105943D01*
X52399499Y-124105945D01*
X52399499Y-124274046D01*
X52399500Y-124274059D01*
X52399500Y-132913330D01*
X52399499Y-132913348D01*
X52399499Y-133079054D01*
X52399498Y-133079054D01*
X52440423Y-133231786D01*
X52440424Y-133231787D01*
X52458882Y-133263757D01*
X52519481Y-133368717D01*
X52638349Y-133487585D01*
X52638355Y-133487590D01*
X55015139Y-135864374D01*
X55015149Y-135864385D01*
X55019479Y-135868715D01*
X55019480Y-135868716D01*
X55131284Y-135980520D01*
X55202193Y-136021459D01*
X55268215Y-136059577D01*
X55420943Y-136100501D01*
X55420946Y-136100501D01*
X55586653Y-136100501D01*
X55586669Y-136100500D01*
X68699903Y-136100500D01*
X68766942Y-136120185D01*
X68787584Y-136136819D01*
X69863181Y-137212416D01*
X69896666Y-137273739D01*
X69899500Y-137300097D01*
X69899500Y-137752141D01*
X69879815Y-137819180D01*
X69827011Y-137864935D01*
X69757853Y-137874879D01*
X69719206Y-137862626D01*
X69599764Y-137801767D01*
X69412662Y-137740973D01*
X69218366Y-137710200D01*
X69218361Y-137710200D01*
X69021639Y-137710200D01*
X69021634Y-137710200D01*
X68827337Y-137740973D01*
X68640238Y-137801766D01*
X68464961Y-137891075D01*
X68423852Y-137920943D01*
X68305810Y-138006706D01*
X68305808Y-138006708D01*
X68305807Y-138006708D01*
X68166708Y-138145807D01*
X68166708Y-138145808D01*
X68166706Y-138145810D01*
X68118486Y-138212179D01*
X68051075Y-138304961D01*
X67960204Y-138483305D01*
X67912229Y-138534101D01*
X67844408Y-138550896D01*
X67778273Y-138528358D01*
X67739234Y-138483305D01*
X67648496Y-138305223D01*
X67623176Y-138270375D01*
X67059124Y-138834426D01*
X67041546Y-138768821D01*
X66976339Y-138655879D01*
X66884121Y-138563661D01*
X66771179Y-138498454D01*
X66705572Y-138480874D01*
X67269624Y-137916822D01*
X67234775Y-137891502D01*
X67059565Y-137802227D01*
X67059562Y-137802226D01*
X66872546Y-137741462D01*
X66678321Y-137710700D01*
X66481679Y-137710700D01*
X66287453Y-137741462D01*
X66100437Y-137802226D01*
X66100434Y-137802227D01*
X65925220Y-137891505D01*
X65890375Y-137916821D01*
X65890375Y-137916823D01*
X66454428Y-138480874D01*
X66388821Y-138498454D01*
X66275879Y-138563661D01*
X66183661Y-138655879D01*
X66118454Y-138768821D01*
X66100874Y-138834427D01*
X65536823Y-138270375D01*
X65536821Y-138270375D01*
X65511502Y-138305224D01*
X65511501Y-138305225D01*
X65420764Y-138483305D01*
X65372790Y-138534101D01*
X65304969Y-138550896D01*
X65238834Y-138528358D01*
X65199795Y-138483305D01*
X65158158Y-138401588D01*
X65108925Y-138304962D01*
X64993294Y-138145810D01*
X64854190Y-138006706D01*
X64695038Y-137891075D01*
X64663252Y-137874879D01*
X64519761Y-137801766D01*
X64332662Y-137740973D01*
X64138366Y-137710200D01*
X64138361Y-137710200D01*
X63941639Y-137710200D01*
X63941634Y-137710200D01*
X63747337Y-137740973D01*
X63560238Y-137801766D01*
X63384961Y-137891075D01*
X63343852Y-137920943D01*
X63225810Y-138006706D01*
X63225808Y-138006708D01*
X63225807Y-138006708D01*
X63086708Y-138145807D01*
X63086708Y-138145808D01*
X63086706Y-138145810D01*
X63038486Y-138212179D01*
X62971075Y-138304961D01*
X62880485Y-138482754D01*
X62832510Y-138533550D01*
X62764689Y-138550345D01*
X62698554Y-138527807D01*
X62659515Y-138482754D01*
X62610297Y-138386160D01*
X62568925Y-138304962D01*
X62453294Y-138145810D01*
X62314190Y-138006706D01*
X62155038Y-137891075D01*
X62123252Y-137874879D01*
X61979761Y-137801766D01*
X61792662Y-137740973D01*
X61598366Y-137710200D01*
X61598361Y-137710200D01*
X61401639Y-137710200D01*
X61401634Y-137710200D01*
X61207337Y-137740973D01*
X61020238Y-137801766D01*
X60844961Y-137891075D01*
X60803852Y-137920943D01*
X60685810Y-138006706D01*
X60685808Y-138006708D01*
X60685807Y-138006708D01*
X60546708Y-138145807D01*
X60546708Y-138145808D01*
X60546706Y-138145810D01*
X60498486Y-138212179D01*
X60431075Y-138304961D01*
X60341766Y-138480238D01*
X60280973Y-138667337D01*
X60250200Y-138861633D01*
X60250200Y-139058366D01*
X60280973Y-139252662D01*
X60341766Y-139439761D01*
X60430941Y-139614775D01*
X60431075Y-139615038D01*
X60546706Y-139774190D01*
X60685810Y-139913294D01*
X60844962Y-140028925D01*
X60876415Y-140044951D01*
X61022754Y-140119515D01*
X61073550Y-140167490D01*
X61090345Y-140235311D01*
X61067807Y-140301446D01*
X61022754Y-140340485D01*
X60844961Y-140431075D01*
X60760860Y-140492179D01*
X60685810Y-140546706D01*
X60685808Y-140546708D01*
X60685807Y-140546708D01*
X60546708Y-140685807D01*
X60546708Y-140685808D01*
X60546706Y-140685810D01*
X60528018Y-140711532D01*
X60431075Y-140844961D01*
X60341766Y-141020238D01*
X60280973Y-141207337D01*
X60250200Y-141401633D01*
X60250200Y-141598366D01*
X60280973Y-141792662D01*
X60341766Y-141979761D01*
X60415759Y-142124979D01*
X60431075Y-142155038D01*
X60546706Y-142314190D01*
X60685810Y-142453294D01*
X60844962Y-142568925D01*
X60884024Y-142588828D01*
X61020238Y-142658233D01*
X61020240Y-142658233D01*
X61020243Y-142658235D01*
X61120530Y-142690820D01*
X61207337Y-142719026D01*
X61401634Y-142749800D01*
X61401639Y-142749800D01*
X61598366Y-142749800D01*
X61792662Y-142719026D01*
X61850876Y-142700111D01*
X61979757Y-142658235D01*
X62155038Y-142568925D01*
X62314190Y-142453294D01*
X62453294Y-142314190D01*
X62568925Y-142155038D01*
X62658235Y-141979757D01*
X62658234Y-141979757D01*
X62659515Y-141977245D01*
X62707490Y-141926449D01*
X62775311Y-141909654D01*
X62841445Y-141932191D01*
X62880485Y-141977245D01*
X62945697Y-142105231D01*
X62971075Y-142155038D01*
X63086706Y-142314190D01*
X63225810Y-142453294D01*
X63384962Y-142568925D01*
X63424024Y-142588828D01*
X63560238Y-142658233D01*
X63560240Y-142658233D01*
X63560243Y-142658235D01*
X63660530Y-142690820D01*
X63747337Y-142719026D01*
X63941634Y-142749800D01*
X63941639Y-142749800D01*
X64138366Y-142749800D01*
X64332662Y-142719026D01*
X64390876Y-142700111D01*
X64519757Y-142658235D01*
X64695038Y-142568925D01*
X64854190Y-142453294D01*
X64993294Y-142314190D01*
X65108925Y-142155038D01*
X65198235Y-141979757D01*
X65198234Y-141979757D01*
X65199515Y-141977245D01*
X65247490Y-141926449D01*
X65315311Y-141909654D01*
X65381445Y-141932191D01*
X65420485Y-141977245D01*
X65485697Y-142105231D01*
X65511075Y-142155038D01*
X65626706Y-142314190D01*
X65765810Y-142453294D01*
X65924962Y-142568925D01*
X65964024Y-142588828D01*
X66100238Y-142658233D01*
X66100240Y-142658233D01*
X66100243Y-142658235D01*
X66200530Y-142690820D01*
X66287337Y-142719026D01*
X66481634Y-142749800D01*
X66481639Y-142749800D01*
X66678366Y-142749800D01*
X66876842Y-142718364D01*
X66946135Y-142727318D01*
X66983921Y-142753156D01*
X71095139Y-146864374D01*
X71095149Y-146864385D01*
X71099479Y-146868715D01*
X71099480Y-146868716D01*
X71211284Y-146980520D01*
X71298095Y-147030639D01*
X71298097Y-147030641D01*
X71336151Y-147052611D01*
X71348215Y-147059577D01*
X71500943Y-147100501D01*
X71500946Y-147100501D01*
X71666653Y-147100501D01*
X71666669Y-147100500D01*
X98413331Y-147100500D01*
X98413347Y-147100501D01*
X98420943Y-147100501D01*
X98579054Y-147100501D01*
X98579057Y-147100501D01*
X98731785Y-147059577D01*
X98781904Y-147030639D01*
X98868716Y-146980520D01*
X98980520Y-146868716D01*
X98980520Y-146868714D01*
X98990728Y-146858507D01*
X98990730Y-146858504D01*
X99707506Y-146141728D01*
X99707511Y-146141724D01*
X99717714Y-146131520D01*
X99717716Y-146131520D01*
X99829520Y-146019716D01*
X99898926Y-145899500D01*
X99899109Y-145899184D01*
X99908576Y-145882786D01*
X99908577Y-145882785D01*
X99949500Y-145730058D01*
X99949500Y-145571943D01*
X99949500Y-142611802D01*
X99969185Y-142544763D01*
X100021989Y-142499008D01*
X100091147Y-142489064D01*
X100111812Y-142493869D01*
X100183757Y-142517246D01*
X100393713Y-142550500D01*
X100393714Y-142550500D01*
X100606286Y-142550500D01*
X100606287Y-142550500D01*
X100816243Y-142517246D01*
X101018412Y-142451557D01*
X101207816Y-142355051D01*
X101264054Y-142314192D01*
X101379786Y-142230109D01*
X101379788Y-142230106D01*
X101379792Y-142230104D01*
X101530104Y-142079792D01*
X101530106Y-142079788D01*
X101530109Y-142079786D01*
X101655048Y-141907820D01*
X101655047Y-141907820D01*
X101655051Y-141907816D01*
X101751557Y-141718412D01*
X101817246Y-141516243D01*
X101850500Y-141306287D01*
X101850500Y-141093713D01*
X101817246Y-140883757D01*
X101751557Y-140681588D01*
X101655051Y-140492184D01*
X101655049Y-140492181D01*
X101655048Y-140492179D01*
X101530109Y-140320213D01*
X101379786Y-140169890D01*
X101207820Y-140044951D01*
X101207115Y-140044591D01*
X101199054Y-140040485D01*
X101148259Y-139992512D01*
X101131463Y-139924692D01*
X101153999Y-139858556D01*
X101199054Y-139819515D01*
X101207816Y-139815051D01*
X101264054Y-139774192D01*
X101379786Y-139690109D01*
X101379788Y-139690106D01*
X101379792Y-139690104D01*
X101530104Y-139539792D01*
X101530106Y-139539788D01*
X101530109Y-139539786D01*
X101655048Y-139367820D01*
X101655047Y-139367820D01*
X101655051Y-139367816D01*
X101751557Y-139178412D01*
X101817246Y-138976243D01*
X101850500Y-138766287D01*
X101850500Y-138553713D01*
X101817246Y-138343757D01*
X101751557Y-138141588D01*
X101655051Y-137952184D01*
X101655049Y-137952181D01*
X101655048Y-137952179D01*
X101530109Y-137780213D01*
X101379786Y-137629890D01*
X101207820Y-137504951D01*
X101207115Y-137504591D01*
X101199054Y-137500485D01*
X101148259Y-137452512D01*
X101131463Y-137384692D01*
X101153999Y-137318556D01*
X101199054Y-137279515D01*
X101207816Y-137275051D01*
X101244037Y-137248735D01*
X101379786Y-137150109D01*
X101379788Y-137150106D01*
X101379792Y-137150104D01*
X101530104Y-136999792D01*
X101530106Y-136999788D01*
X101530109Y-136999786D01*
X101655048Y-136827820D01*
X101655047Y-136827820D01*
X101655051Y-136827816D01*
X101751557Y-136638412D01*
X101817246Y-136436243D01*
X101850500Y-136226287D01*
X101850500Y-136013713D01*
X101817246Y-135803757D01*
X101751557Y-135601588D01*
X101655051Y-135412184D01*
X101655049Y-135412181D01*
X101655048Y-135412179D01*
X101530109Y-135240213D01*
X101379786Y-135089890D01*
X101207820Y-134964951D01*
X101207115Y-134964591D01*
X101199054Y-134960485D01*
X101148259Y-134912512D01*
X101131463Y-134844692D01*
X101153999Y-134778556D01*
X101199054Y-134739515D01*
X101207816Y-134735051D01*
X101229789Y-134719086D01*
X101379786Y-134610109D01*
X101379788Y-134610106D01*
X101379792Y-134610104D01*
X101530104Y-134459792D01*
X101530106Y-134459788D01*
X101530109Y-134459786D01*
X101655048Y-134287820D01*
X101655047Y-134287820D01*
X101655051Y-134287816D01*
X101751557Y-134098412D01*
X101817246Y-133896243D01*
X101850500Y-133686287D01*
X101850500Y-133473713D01*
X101817246Y-133263757D01*
X101751557Y-133061588D01*
X101655051Y-132872184D01*
X101655049Y-132872181D01*
X101655048Y-132872179D01*
X101530109Y-132700213D01*
X101379786Y-132549890D01*
X101207820Y-132424951D01*
X101207115Y-132424591D01*
X101199054Y-132420485D01*
X101148259Y-132372512D01*
X101131463Y-132304692D01*
X101153999Y-132238556D01*
X101199054Y-132199515D01*
X101207816Y-132195051D01*
X101266680Y-132152284D01*
X101379786Y-132070109D01*
X101379788Y-132070106D01*
X101379792Y-132070104D01*
X101530104Y-131919792D01*
X101530106Y-131919788D01*
X101530109Y-131919786D01*
X101655048Y-131747820D01*
X101655047Y-131747820D01*
X101655051Y-131747816D01*
X101751557Y-131558412D01*
X101817246Y-131356243D01*
X101850500Y-131146287D01*
X101850500Y-130933713D01*
X101817246Y-130723757D01*
X101751557Y-130521588D01*
X101655051Y-130332184D01*
X101655049Y-130332181D01*
X101655048Y-130332179D01*
X101530109Y-130160213D01*
X101416569Y-130046673D01*
X101383084Y-129985350D01*
X101388068Y-129915658D01*
X101429940Y-129859725D01*
X101460915Y-129842810D01*
X101592331Y-129793796D01*
X101707546Y-129707546D01*
X101793796Y-129592331D01*
X101844091Y-129457483D01*
X101850500Y-129397873D01*
X101850499Y-127602128D01*
X101844091Y-127542517D01*
X101834164Y-127515902D01*
X101793797Y-127407671D01*
X101793793Y-127407664D01*
X101707547Y-127292455D01*
X101707544Y-127292452D01*
X101592335Y-127206206D01*
X101592328Y-127206202D01*
X101457482Y-127155908D01*
X101457483Y-127155908D01*
X101397883Y-127149501D01*
X101397881Y-127149500D01*
X101397873Y-127149500D01*
X101397865Y-127149500D01*
X100073500Y-127149500D01*
X100006461Y-127129815D01*
X99960706Y-127077011D01*
X99949500Y-127025500D01*
X99949500Y-124991802D01*
X99969185Y-124924763D01*
X100021989Y-124879008D01*
X100091147Y-124869064D01*
X100111812Y-124873869D01*
X100183757Y-124897246D01*
X100393713Y-124930500D01*
X100393714Y-124930500D01*
X100606286Y-124930500D01*
X100606287Y-124930500D01*
X100816243Y-124897246D01*
X101018412Y-124831557D01*
X101207816Y-124735051D01*
X101229789Y-124719086D01*
X101379786Y-124610109D01*
X101379788Y-124610106D01*
X101379792Y-124610104D01*
X101530104Y-124459792D01*
X101530106Y-124459788D01*
X101530109Y-124459786D01*
X101655048Y-124287820D01*
X101655047Y-124287820D01*
X101655051Y-124287816D01*
X101751557Y-124098412D01*
X101817246Y-123896243D01*
X101850500Y-123686287D01*
X101850500Y-123524714D01*
X102565886Y-123524714D01*
X102565886Y-123737287D01*
X102594034Y-123915011D01*
X102599140Y-123947244D01*
X102650705Y-124105945D01*
X102664830Y-124149415D01*
X102761337Y-124338821D01*
X102886276Y-124510787D01*
X103036599Y-124661110D01*
X103208568Y-124786051D01*
X103327277Y-124846536D01*
X103378074Y-124894510D01*
X103394869Y-124962331D01*
X103372332Y-125028466D01*
X103335784Y-125062742D01*
X103332181Y-125064950D01*
X103160213Y-125189890D01*
X103009890Y-125340213D01*
X102884951Y-125512179D01*
X102788444Y-125701585D01*
X102722753Y-125903760D01*
X102689500Y-126113713D01*
X102689500Y-126326286D01*
X102711262Y-126463690D01*
X102722754Y-126536243D01*
X102756908Y-126641359D01*
X102788444Y-126738414D01*
X102884951Y-126927820D01*
X103009890Y-127099786D01*
X103160213Y-127250109D01*
X103332182Y-127375050D01*
X103340946Y-127379516D01*
X103391742Y-127427491D01*
X103408536Y-127495312D01*
X103385998Y-127561447D01*
X103340946Y-127600484D01*
X103332182Y-127604949D01*
X103160213Y-127729890D01*
X103009890Y-127880213D01*
X102884951Y-128052179D01*
X102788444Y-128241585D01*
X102722753Y-128443760D01*
X102689500Y-128653713D01*
X102689500Y-128866286D01*
X102712853Y-129013735D01*
X102722754Y-129076243D01*
X102767844Y-129215016D01*
X102788444Y-129278414D01*
X102884951Y-129467820D01*
X103009890Y-129639786D01*
X103160213Y-129790109D01*
X103332182Y-129915050D01*
X103340946Y-129919516D01*
X103391742Y-129967491D01*
X103408536Y-130035312D01*
X103385998Y-130101447D01*
X103340946Y-130140484D01*
X103332182Y-130144949D01*
X103160213Y-130269890D01*
X103009890Y-130420213D01*
X102884951Y-130592179D01*
X102788444Y-130781585D01*
X102722753Y-130983760D01*
X102689500Y-131193713D01*
X102689500Y-131406286D01*
X102713594Y-131558414D01*
X102722754Y-131616243D01*
X102763839Y-131742690D01*
X102788444Y-131818414D01*
X102884951Y-132007820D01*
X103009890Y-132179786D01*
X103160213Y-132330109D01*
X103332182Y-132455050D01*
X103340946Y-132459516D01*
X103391742Y-132507491D01*
X103408536Y-132575312D01*
X103385998Y-132641447D01*
X103340946Y-132680484D01*
X103332182Y-132684949D01*
X103160213Y-132809890D01*
X103009890Y-132960213D01*
X102884951Y-133132179D01*
X102788444Y-133321585D01*
X102722753Y-133523760D01*
X102689500Y-133733713D01*
X102689500Y-133946286D01*
X102722753Y-134156239D01*
X102788444Y-134358414D01*
X102884951Y-134547820D01*
X103009890Y-134719786D01*
X103160213Y-134870109D01*
X103332182Y-134995050D01*
X103340946Y-134999516D01*
X103391742Y-135047491D01*
X103408536Y-135115312D01*
X103385998Y-135181447D01*
X103340946Y-135220484D01*
X103332182Y-135224949D01*
X103160213Y-135349890D01*
X103009890Y-135500213D01*
X102884951Y-135672179D01*
X102788444Y-135861585D01*
X102722753Y-136063760D01*
X102689500Y-136273713D01*
X102689500Y-136486286D01*
X102722753Y-136696239D01*
X102788444Y-136898414D01*
X102884951Y-137087820D01*
X103009890Y-137259786D01*
X103160213Y-137410109D01*
X103332182Y-137535050D01*
X103340946Y-137539516D01*
X103391742Y-137587491D01*
X103408536Y-137655312D01*
X103385998Y-137721447D01*
X103340946Y-137760484D01*
X103332182Y-137764949D01*
X103160213Y-137889890D01*
X103009890Y-138040213D01*
X102884951Y-138212179D01*
X102788444Y-138401585D01*
X102722753Y-138603760D01*
X102689500Y-138813713D01*
X102689500Y-139026286D01*
X102713594Y-139178414D01*
X102722754Y-139236243D01*
X102785089Y-139428091D01*
X102788444Y-139438414D01*
X102884951Y-139627820D01*
X103009890Y-139799786D01*
X103160213Y-139950109D01*
X103332182Y-140075050D01*
X103340946Y-140079516D01*
X103391742Y-140127491D01*
X103408536Y-140195312D01*
X103385998Y-140261447D01*
X103340946Y-140300484D01*
X103332182Y-140304949D01*
X103160213Y-140429890D01*
X103009890Y-140580213D01*
X102884951Y-140752179D01*
X102788444Y-140941585D01*
X102722753Y-141143760D01*
X102689500Y-141353713D01*
X102689500Y-141566286D01*
X102722753Y-141776239D01*
X102788444Y-141978414D01*
X102884951Y-142167820D01*
X103009890Y-142339786D01*
X103160213Y-142490109D01*
X103332182Y-142615050D01*
X103340946Y-142619516D01*
X103391742Y-142667491D01*
X103408536Y-142735312D01*
X103385998Y-142801447D01*
X103340946Y-142840484D01*
X103332182Y-142844949D01*
X103160213Y-142969890D01*
X103009890Y-143120213D01*
X102884951Y-143292179D01*
X102788444Y-143481585D01*
X102722753Y-143683760D01*
X102689500Y-143893713D01*
X102689500Y-144106286D01*
X102722753Y-144316239D01*
X102788444Y-144518414D01*
X102884951Y-144707820D01*
X103009890Y-144879786D01*
X103160213Y-145030109D01*
X103332179Y-145155048D01*
X103332181Y-145155049D01*
X103332184Y-145155051D01*
X103521588Y-145251557D01*
X103723757Y-145317246D01*
X103933713Y-145350500D01*
X103933714Y-145350500D01*
X104146286Y-145350500D01*
X104146287Y-145350500D01*
X104356243Y-145317246D01*
X104558412Y-145251557D01*
X104747816Y-145155051D01*
X104769789Y-145139086D01*
X104919786Y-145030109D01*
X104919788Y-145030106D01*
X104919792Y-145030104D01*
X105070104Y-144879792D01*
X105070106Y-144879788D01*
X105070109Y-144879786D01*
X105195048Y-144707820D01*
X105195047Y-144707820D01*
X105195051Y-144707816D01*
X105199514Y-144699054D01*
X105247488Y-144648259D01*
X105315308Y-144631463D01*
X105381444Y-144653999D01*
X105420486Y-144699056D01*
X105424951Y-144707820D01*
X105549890Y-144879786D01*
X105700213Y-145030109D01*
X105872179Y-145155048D01*
X105872181Y-145155049D01*
X105872184Y-145155051D01*
X106061588Y-145251557D01*
X106263757Y-145317246D01*
X106473713Y-145350500D01*
X106473714Y-145350500D01*
X106686286Y-145350500D01*
X106686287Y-145350500D01*
X106896243Y-145317246D01*
X107098412Y-145251557D01*
X107287816Y-145155051D01*
X107309789Y-145139086D01*
X107459786Y-145030109D01*
X107459788Y-145030106D01*
X107459792Y-145030104D01*
X107610104Y-144879792D01*
X107610106Y-144879788D01*
X107610109Y-144879786D01*
X107735048Y-144707820D01*
X107735047Y-144707820D01*
X107735051Y-144707816D01*
X107739514Y-144699054D01*
X107787488Y-144648259D01*
X107855308Y-144631463D01*
X107921444Y-144653999D01*
X107960486Y-144699056D01*
X107964951Y-144707820D01*
X108089890Y-144879786D01*
X108240213Y-145030109D01*
X108412179Y-145155048D01*
X108412181Y-145155049D01*
X108412184Y-145155051D01*
X108601588Y-145251557D01*
X108803757Y-145317246D01*
X109013713Y-145350500D01*
X109013714Y-145350500D01*
X109226286Y-145350500D01*
X109226287Y-145350500D01*
X109436243Y-145317246D01*
X109638412Y-145251557D01*
X109827816Y-145155051D01*
X109849789Y-145139086D01*
X109999786Y-145030109D01*
X109999788Y-145030106D01*
X109999792Y-145030104D01*
X110150104Y-144879792D01*
X110150106Y-144879788D01*
X110150109Y-144879786D01*
X110275048Y-144707820D01*
X110275047Y-144707820D01*
X110275051Y-144707816D01*
X110279514Y-144699054D01*
X110327488Y-144648259D01*
X110395308Y-144631463D01*
X110461444Y-144653999D01*
X110500486Y-144699056D01*
X110504951Y-144707820D01*
X110629890Y-144879786D01*
X110780213Y-145030109D01*
X110952179Y-145155048D01*
X110952181Y-145155049D01*
X110952184Y-145155051D01*
X111141588Y-145251557D01*
X111343757Y-145317246D01*
X111553713Y-145350500D01*
X111553714Y-145350500D01*
X111766286Y-145350500D01*
X111766287Y-145350500D01*
X111976243Y-145317246D01*
X112178412Y-145251557D01*
X112367816Y-145155051D01*
X112389789Y-145139086D01*
X112539786Y-145030109D01*
X112539788Y-145030106D01*
X112539792Y-145030104D01*
X112690104Y-144879792D01*
X112690106Y-144879788D01*
X112690109Y-144879786D01*
X112815048Y-144707820D01*
X112815047Y-144707820D01*
X112815051Y-144707816D01*
X112819514Y-144699054D01*
X112867488Y-144648259D01*
X112935308Y-144631463D01*
X113001444Y-144653999D01*
X113040486Y-144699056D01*
X113044951Y-144707820D01*
X113169890Y-144879786D01*
X113320213Y-145030109D01*
X113492179Y-145155048D01*
X113492181Y-145155049D01*
X113492184Y-145155051D01*
X113681588Y-145251557D01*
X113883757Y-145317246D01*
X114093713Y-145350500D01*
X114093714Y-145350500D01*
X114306286Y-145350500D01*
X114306287Y-145350500D01*
X114516243Y-145317246D01*
X114718412Y-145251557D01*
X114907816Y-145155051D01*
X114929789Y-145139086D01*
X115079786Y-145030109D01*
X115079788Y-145030106D01*
X115079792Y-145030104D01*
X115230104Y-144879792D01*
X115230106Y-144879788D01*
X115230109Y-144879786D01*
X115355048Y-144707820D01*
X115355047Y-144707820D01*
X115355051Y-144707816D01*
X115359514Y-144699054D01*
X115407488Y-144648259D01*
X115475308Y-144631463D01*
X115541444Y-144653999D01*
X115580486Y-144699056D01*
X115584951Y-144707820D01*
X115709890Y-144879786D01*
X115860213Y-145030109D01*
X116032179Y-145155048D01*
X116032181Y-145155049D01*
X116032184Y-145155051D01*
X116221588Y-145251557D01*
X116423757Y-145317246D01*
X116633713Y-145350500D01*
X116633714Y-145350500D01*
X116846286Y-145350500D01*
X116846287Y-145350500D01*
X117056243Y-145317246D01*
X117258412Y-145251557D01*
X117447816Y-145155051D01*
X117469789Y-145139086D01*
X117619786Y-145030109D01*
X117619788Y-145030106D01*
X117619792Y-145030104D01*
X117770104Y-144879792D01*
X117770106Y-144879788D01*
X117770109Y-144879786D01*
X117895048Y-144707820D01*
X117895047Y-144707820D01*
X117895051Y-144707816D01*
X117899514Y-144699054D01*
X117947488Y-144648259D01*
X118015308Y-144631463D01*
X118081444Y-144653999D01*
X118120486Y-144699056D01*
X118124951Y-144707820D01*
X118249890Y-144879786D01*
X118400213Y-145030109D01*
X118572179Y-145155048D01*
X118572181Y-145155049D01*
X118572184Y-145155051D01*
X118761588Y-145251557D01*
X118963757Y-145317246D01*
X119173713Y-145350500D01*
X119173714Y-145350500D01*
X119386286Y-145350500D01*
X119386287Y-145350500D01*
X119596243Y-145317246D01*
X119798412Y-145251557D01*
X119987816Y-145155051D01*
X120009789Y-145139086D01*
X120159786Y-145030109D01*
X120159788Y-145030106D01*
X120159792Y-145030104D01*
X120310104Y-144879792D01*
X120310106Y-144879788D01*
X120310109Y-144879786D01*
X120435048Y-144707820D01*
X120435047Y-144707820D01*
X120435051Y-144707816D01*
X120439514Y-144699054D01*
X120487488Y-144648259D01*
X120555308Y-144631463D01*
X120621444Y-144653999D01*
X120660486Y-144699056D01*
X120664951Y-144707820D01*
X120789890Y-144879786D01*
X120940213Y-145030109D01*
X121112179Y-145155048D01*
X121112181Y-145155049D01*
X121112184Y-145155051D01*
X121301588Y-145251557D01*
X121503757Y-145317246D01*
X121713713Y-145350500D01*
X121713714Y-145350500D01*
X121926286Y-145350500D01*
X121926287Y-145350500D01*
X122136243Y-145317246D01*
X122338412Y-145251557D01*
X122527816Y-145155051D01*
X122549789Y-145139086D01*
X122699786Y-145030109D01*
X122699788Y-145030106D01*
X122699792Y-145030104D01*
X122850104Y-144879792D01*
X122850106Y-144879788D01*
X122850109Y-144879786D01*
X122975048Y-144707820D01*
X122975047Y-144707820D01*
X122975051Y-144707816D01*
X122979514Y-144699054D01*
X123027488Y-144648259D01*
X123095308Y-144631463D01*
X123161444Y-144653999D01*
X123200486Y-144699056D01*
X123204951Y-144707820D01*
X123329890Y-144879786D01*
X123480213Y-145030109D01*
X123652179Y-145155048D01*
X123652181Y-145155049D01*
X123652184Y-145155051D01*
X123841588Y-145251557D01*
X124043757Y-145317246D01*
X124253713Y-145350500D01*
X124253714Y-145350500D01*
X124466286Y-145350500D01*
X124466287Y-145350500D01*
X124676243Y-145317246D01*
X124878412Y-145251557D01*
X125067816Y-145155051D01*
X125089789Y-145139086D01*
X125239786Y-145030109D01*
X125239788Y-145030106D01*
X125239792Y-145030104D01*
X125390104Y-144879792D01*
X125390106Y-144879788D01*
X125390109Y-144879786D01*
X125515048Y-144707820D01*
X125515047Y-144707820D01*
X125515051Y-144707816D01*
X125519514Y-144699054D01*
X125567488Y-144648259D01*
X125635308Y-144631463D01*
X125701444Y-144653999D01*
X125740486Y-144699056D01*
X125744951Y-144707820D01*
X125869890Y-144879786D01*
X126020213Y-145030109D01*
X126192179Y-145155048D01*
X126192181Y-145155049D01*
X126192184Y-145155051D01*
X126381588Y-145251557D01*
X126583757Y-145317246D01*
X126793713Y-145350500D01*
X126793714Y-145350500D01*
X127006286Y-145350500D01*
X127006287Y-145350500D01*
X127216243Y-145317246D01*
X127418412Y-145251557D01*
X127607816Y-145155051D01*
X127629789Y-145139086D01*
X127779786Y-145030109D01*
X127779788Y-145030106D01*
X127779792Y-145030104D01*
X127930104Y-144879792D01*
X127930106Y-144879788D01*
X127930109Y-144879786D01*
X128055048Y-144707820D01*
X128055047Y-144707820D01*
X128055051Y-144707816D01*
X128059514Y-144699054D01*
X128107488Y-144648259D01*
X128175308Y-144631463D01*
X128241444Y-144653999D01*
X128280486Y-144699056D01*
X128284951Y-144707820D01*
X128409890Y-144879786D01*
X128560213Y-145030109D01*
X128732179Y-145155048D01*
X128732181Y-145155049D01*
X128732184Y-145155051D01*
X128921588Y-145251557D01*
X129123757Y-145317246D01*
X129333713Y-145350500D01*
X129333714Y-145350500D01*
X129546286Y-145350500D01*
X129546287Y-145350500D01*
X129756243Y-145317246D01*
X129958412Y-145251557D01*
X130147816Y-145155051D01*
X130169789Y-145139086D01*
X130319786Y-145030109D01*
X130319788Y-145030106D01*
X130319792Y-145030104D01*
X130470104Y-144879792D01*
X130470106Y-144879788D01*
X130470109Y-144879786D01*
X130595048Y-144707820D01*
X130595047Y-144707820D01*
X130595051Y-144707816D01*
X130599514Y-144699054D01*
X130647488Y-144648259D01*
X130715308Y-144631463D01*
X130781444Y-144653999D01*
X130820486Y-144699056D01*
X130824951Y-144707820D01*
X130949890Y-144879786D01*
X131100213Y-145030109D01*
X131272179Y-145155048D01*
X131272181Y-145155049D01*
X131272184Y-145155051D01*
X131461588Y-145251557D01*
X131663757Y-145317246D01*
X131873713Y-145350500D01*
X131873714Y-145350500D01*
X132086286Y-145350500D01*
X132086287Y-145350500D01*
X132296243Y-145317246D01*
X132498412Y-145251557D01*
X132687816Y-145155051D01*
X132709789Y-145139086D01*
X132859786Y-145030109D01*
X132859788Y-145030106D01*
X132859792Y-145030104D01*
X133010104Y-144879792D01*
X133010106Y-144879788D01*
X133010109Y-144879786D01*
X133135048Y-144707820D01*
X133135047Y-144707820D01*
X133135051Y-144707816D01*
X133139514Y-144699054D01*
X133187488Y-144648259D01*
X133255308Y-144631463D01*
X133321444Y-144653999D01*
X133360486Y-144699056D01*
X133364951Y-144707820D01*
X133489890Y-144879786D01*
X133640213Y-145030109D01*
X133812179Y-145155048D01*
X133812181Y-145155049D01*
X133812184Y-145155051D01*
X134001588Y-145251557D01*
X134203757Y-145317246D01*
X134413713Y-145350500D01*
X134413714Y-145350500D01*
X134626286Y-145350500D01*
X134626287Y-145350500D01*
X134836243Y-145317246D01*
X135038412Y-145251557D01*
X135227816Y-145155051D01*
X135249789Y-145139086D01*
X135399786Y-145030109D01*
X135399788Y-145030106D01*
X135399792Y-145030104D01*
X135550104Y-144879792D01*
X135550106Y-144879788D01*
X135550109Y-144879786D01*
X135675048Y-144707820D01*
X135675047Y-144707820D01*
X135675051Y-144707816D01*
X135679514Y-144699054D01*
X135727488Y-144648259D01*
X135795308Y-144631463D01*
X135861444Y-144653999D01*
X135900486Y-144699056D01*
X135904951Y-144707820D01*
X136029890Y-144879786D01*
X136180213Y-145030109D01*
X136352179Y-145155048D01*
X136352181Y-145155049D01*
X136352184Y-145155051D01*
X136541588Y-145251557D01*
X136743757Y-145317246D01*
X136953713Y-145350500D01*
X136953714Y-145350500D01*
X137166286Y-145350500D01*
X137166287Y-145350500D01*
X137376243Y-145317246D01*
X137578412Y-145251557D01*
X137767816Y-145155051D01*
X137789789Y-145139086D01*
X137939786Y-145030109D01*
X137939788Y-145030106D01*
X137939792Y-145030104D01*
X138090104Y-144879792D01*
X138090106Y-144879788D01*
X138090109Y-144879786D01*
X138215048Y-144707820D01*
X138215047Y-144707820D01*
X138215051Y-144707816D01*
X138219514Y-144699054D01*
X138267488Y-144648259D01*
X138335308Y-144631463D01*
X138401444Y-144653999D01*
X138440486Y-144699056D01*
X138444951Y-144707820D01*
X138569890Y-144879786D01*
X138720213Y-145030109D01*
X138892179Y-145155048D01*
X138892181Y-145155049D01*
X138892184Y-145155051D01*
X139081588Y-145251557D01*
X139283757Y-145317246D01*
X139493713Y-145350500D01*
X139493714Y-145350500D01*
X139706286Y-145350500D01*
X139706287Y-145350500D01*
X139916243Y-145317246D01*
X140118412Y-145251557D01*
X140307816Y-145155051D01*
X140329789Y-145139086D01*
X140479786Y-145030109D01*
X140479788Y-145030106D01*
X140479792Y-145030104D01*
X140630104Y-144879792D01*
X140630106Y-144879788D01*
X140630109Y-144879786D01*
X140755048Y-144707820D01*
X140755047Y-144707820D01*
X140755051Y-144707816D01*
X140759514Y-144699054D01*
X140807488Y-144648259D01*
X140875308Y-144631463D01*
X140941444Y-144653999D01*
X140980486Y-144699056D01*
X140984951Y-144707820D01*
X141109890Y-144879786D01*
X141260213Y-145030109D01*
X141432179Y-145155048D01*
X141432181Y-145155049D01*
X141432184Y-145155051D01*
X141621588Y-145251557D01*
X141823757Y-145317246D01*
X142033713Y-145350500D01*
X142033714Y-145350500D01*
X142246286Y-145350500D01*
X142246287Y-145350500D01*
X142456243Y-145317246D01*
X142658412Y-145251557D01*
X142847816Y-145155051D01*
X142869789Y-145139086D01*
X143019786Y-145030109D01*
X143019788Y-145030106D01*
X143019792Y-145030104D01*
X143170104Y-144879792D01*
X143170106Y-144879788D01*
X143170109Y-144879786D01*
X143295048Y-144707820D01*
X143295047Y-144707820D01*
X143295051Y-144707816D01*
X143299514Y-144699054D01*
X143347488Y-144648259D01*
X143415308Y-144631463D01*
X143481444Y-144653999D01*
X143520486Y-144699056D01*
X143524951Y-144707820D01*
X143649890Y-144879786D01*
X143800213Y-145030109D01*
X143972179Y-145155048D01*
X143972181Y-145155049D01*
X143972184Y-145155051D01*
X144161588Y-145251557D01*
X144363757Y-145317246D01*
X144573713Y-145350500D01*
X144573714Y-145350500D01*
X144786286Y-145350500D01*
X144786287Y-145350500D01*
X144996243Y-145317246D01*
X145198412Y-145251557D01*
X145387816Y-145155051D01*
X145409789Y-145139086D01*
X145559786Y-145030109D01*
X145559788Y-145030106D01*
X145559792Y-145030104D01*
X145710104Y-144879792D01*
X145710106Y-144879788D01*
X145710109Y-144879786D01*
X145835048Y-144707820D01*
X145835047Y-144707820D01*
X145835051Y-144707816D01*
X145839514Y-144699054D01*
X145887488Y-144648259D01*
X145955308Y-144631463D01*
X146021444Y-144653999D01*
X146060486Y-144699056D01*
X146064951Y-144707820D01*
X146189890Y-144879786D01*
X146340213Y-145030109D01*
X146512179Y-145155048D01*
X146512181Y-145155049D01*
X146512184Y-145155051D01*
X146701588Y-145251557D01*
X146903757Y-145317246D01*
X147113713Y-145350500D01*
X147113714Y-145350500D01*
X147326286Y-145350500D01*
X147326287Y-145350500D01*
X147536243Y-145317246D01*
X147738412Y-145251557D01*
X147927816Y-145155051D01*
X147949789Y-145139086D01*
X148099786Y-145030109D01*
X148099788Y-145030106D01*
X148099792Y-145030104D01*
X148250104Y-144879792D01*
X148250106Y-144879788D01*
X148250109Y-144879786D01*
X148375048Y-144707820D01*
X148375047Y-144707820D01*
X148375051Y-144707816D01*
X148471557Y-144518412D01*
X148537246Y-144316243D01*
X148570500Y-144106287D01*
X148570500Y-143893713D01*
X148537246Y-143683757D01*
X148471557Y-143481588D01*
X148375051Y-143292184D01*
X148375049Y-143292181D01*
X148375048Y-143292179D01*
X148250109Y-143120213D01*
X148099786Y-142969890D01*
X147927820Y-142844951D01*
X147927115Y-142844591D01*
X147919054Y-142840485D01*
X147868259Y-142792512D01*
X147851463Y-142724692D01*
X147873999Y-142658556D01*
X147919054Y-142619515D01*
X147927816Y-142615051D01*
X147986482Y-142572428D01*
X148099786Y-142490109D01*
X148099788Y-142490106D01*
X148099792Y-142490104D01*
X148250104Y-142339792D01*
X148250106Y-142339788D01*
X148250109Y-142339786D01*
X148375048Y-142167820D01*
X148375047Y-142167820D01*
X148375051Y-142167816D01*
X148471557Y-141978412D01*
X148537246Y-141776243D01*
X148570500Y-141566287D01*
X148570500Y-141353713D01*
X148537246Y-141143757D01*
X148471557Y-140941588D01*
X148375051Y-140752184D01*
X148375049Y-140752181D01*
X148375048Y-140752179D01*
X148250109Y-140580213D01*
X148099786Y-140429890D01*
X147927820Y-140304951D01*
X147927115Y-140304591D01*
X147919054Y-140300485D01*
X147868259Y-140252512D01*
X147851463Y-140184692D01*
X147873999Y-140118556D01*
X147919054Y-140079515D01*
X147927816Y-140075051D01*
X147952356Y-140057222D01*
X148099786Y-139950109D01*
X148099788Y-139950106D01*
X148099792Y-139950104D01*
X148250104Y-139799792D01*
X148250106Y-139799788D01*
X148250109Y-139799786D01*
X148375048Y-139627820D01*
X148375047Y-139627820D01*
X148375051Y-139627816D01*
X148471557Y-139438412D01*
X148537246Y-139236243D01*
X148570500Y-139026287D01*
X148570500Y-138813713D01*
X148537246Y-138603757D01*
X148471557Y-138401588D01*
X148375051Y-138212184D01*
X148375049Y-138212181D01*
X148375048Y-138212179D01*
X148250109Y-138040213D01*
X148099786Y-137889890D01*
X147927820Y-137764951D01*
X147927115Y-137764591D01*
X147919054Y-137760485D01*
X147868259Y-137712512D01*
X147851463Y-137644692D01*
X147873999Y-137578556D01*
X147919054Y-137539515D01*
X147927816Y-137535051D01*
X147961110Y-137510862D01*
X148099786Y-137410109D01*
X148099788Y-137410106D01*
X148099792Y-137410104D01*
X148250104Y-137259792D01*
X148250106Y-137259788D01*
X148250109Y-137259786D01*
X148375048Y-137087820D01*
X148375047Y-137087820D01*
X148375051Y-137087816D01*
X148471557Y-136898412D01*
X148537246Y-136696243D01*
X148570500Y-136486287D01*
X148570500Y-136273713D01*
X148537246Y-136063757D01*
X148471557Y-135861588D01*
X148375051Y-135672184D01*
X148375049Y-135672181D01*
X148375048Y-135672179D01*
X148250109Y-135500213D01*
X148099786Y-135349890D01*
X147927820Y-135224951D01*
X147927115Y-135224591D01*
X147919054Y-135220485D01*
X147868259Y-135172512D01*
X147851463Y-135104692D01*
X147873999Y-135038556D01*
X147919054Y-134999515D01*
X147927816Y-134995051D01*
X147949789Y-134979086D01*
X148099786Y-134870109D01*
X148099788Y-134870106D01*
X148099792Y-134870104D01*
X148250104Y-134719792D01*
X148250106Y-134719788D01*
X148250109Y-134719786D01*
X148375048Y-134547820D01*
X148375047Y-134547820D01*
X148375051Y-134547816D01*
X148471557Y-134358412D01*
X148537246Y-134156243D01*
X148570500Y-133946287D01*
X148570500Y-133733713D01*
X148537246Y-133523757D01*
X148471557Y-133321588D01*
X148375051Y-133132184D01*
X148375049Y-133132181D01*
X148375048Y-133132179D01*
X148250109Y-132960213D01*
X148099786Y-132809890D01*
X147927820Y-132684951D01*
X147927115Y-132684591D01*
X147919054Y-132680485D01*
X147868259Y-132632512D01*
X147851463Y-132564692D01*
X147873999Y-132498556D01*
X147919054Y-132459515D01*
X147927816Y-132455051D01*
X147949789Y-132439086D01*
X148099786Y-132330109D01*
X148099788Y-132330106D01*
X148099792Y-132330104D01*
X148250104Y-132179792D01*
X148250106Y-132179788D01*
X148250109Y-132179786D01*
X148375048Y-132007820D01*
X148375047Y-132007820D01*
X148375051Y-132007816D01*
X148471557Y-131818412D01*
X148537246Y-131616243D01*
X148570500Y-131406287D01*
X148570500Y-131193713D01*
X148537246Y-130983757D01*
X148471557Y-130781588D01*
X148375051Y-130592184D01*
X148375049Y-130592181D01*
X148375048Y-130592179D01*
X148250109Y-130420213D01*
X148099786Y-130269890D01*
X147927820Y-130144951D01*
X147927115Y-130144591D01*
X147919054Y-130140485D01*
X147868259Y-130092512D01*
X147851463Y-130024692D01*
X147873999Y-129958556D01*
X147919054Y-129919515D01*
X147927816Y-129915051D01*
X147971274Y-129883477D01*
X148099786Y-129790109D01*
X148099788Y-129790106D01*
X148099792Y-129790104D01*
X148250104Y-129639792D01*
X148250106Y-129639788D01*
X148250109Y-129639786D01*
X148375048Y-129467820D01*
X148375047Y-129467820D01*
X148375051Y-129467816D01*
X148471557Y-129278412D01*
X148537246Y-129076243D01*
X148570500Y-128866287D01*
X148570500Y-128653713D01*
X148537246Y-128443757D01*
X148471557Y-128241588D01*
X148375051Y-128052184D01*
X148375049Y-128052181D01*
X148375048Y-128052179D01*
X148250109Y-127880213D01*
X148099786Y-127729890D01*
X147927820Y-127604951D01*
X147922279Y-127602128D01*
X147919054Y-127600485D01*
X147868259Y-127552512D01*
X147851463Y-127484692D01*
X147873999Y-127418556D01*
X147919054Y-127379515D01*
X147927816Y-127375051D01*
X147971274Y-127343477D01*
X148099786Y-127250109D01*
X148099788Y-127250106D01*
X148099792Y-127250104D01*
X148250104Y-127099792D01*
X148250106Y-127099788D01*
X148250109Y-127099786D01*
X148375048Y-126927820D01*
X148375047Y-126927820D01*
X148375051Y-126927816D01*
X148471557Y-126738412D01*
X148537246Y-126536243D01*
X148570500Y-126326287D01*
X148570500Y-126113713D01*
X148537246Y-125903757D01*
X148471557Y-125701588D01*
X148375051Y-125512184D01*
X148375049Y-125512181D01*
X148375048Y-125512179D01*
X148250109Y-125340213D01*
X148099786Y-125189890D01*
X147927820Y-125064951D01*
X147856214Y-125028466D01*
X147809106Y-125004463D01*
X147758311Y-124956490D01*
X147741516Y-124888669D01*
X147764053Y-124822534D01*
X147800617Y-124788248D01*
X147804186Y-124786060D01*
X147804202Y-124786052D01*
X147874399Y-124735051D01*
X147976172Y-124661110D01*
X147976174Y-124661107D01*
X147976178Y-124661105D01*
X148126490Y-124510793D01*
X148126492Y-124510789D01*
X148126495Y-124510787D01*
X148251434Y-124338821D01*
X148251433Y-124338821D01*
X148251437Y-124338817D01*
X148347943Y-124149413D01*
X148413632Y-123947244D01*
X148446886Y-123737288D01*
X148446886Y-123524714D01*
X148413632Y-123314758D01*
X148347943Y-123112589D01*
X148251437Y-122923185D01*
X148251435Y-122923182D01*
X148251434Y-122923180D01*
X148126495Y-122751214D01*
X147976172Y-122600891D01*
X147872512Y-122525579D01*
X147829846Y-122470250D01*
X147823867Y-122400636D01*
X147856472Y-122338841D01*
X147889103Y-122314776D01*
X147927816Y-122295051D01*
X148005577Y-122238555D01*
X148099786Y-122170109D01*
X148099788Y-122170106D01*
X148099792Y-122170104D01*
X148250104Y-122019792D01*
X148250106Y-122019788D01*
X148250109Y-122019786D01*
X148375048Y-121847820D01*
X148375047Y-121847820D01*
X148375051Y-121847816D01*
X148471557Y-121658412D01*
X148537246Y-121456243D01*
X148570500Y-121246287D01*
X148570500Y-121033713D01*
X148537246Y-120823757D01*
X148471557Y-120621588D01*
X148375051Y-120432184D01*
X148375049Y-120432181D01*
X148375048Y-120432179D01*
X148250109Y-120260213D01*
X148099786Y-120109890D01*
X147927820Y-119984951D01*
X147927115Y-119984591D01*
X147919054Y-119980485D01*
X147868259Y-119932512D01*
X147851463Y-119864692D01*
X147873999Y-119798556D01*
X147919054Y-119759515D01*
X147927816Y-119755051D01*
X147955129Y-119735207D01*
X148099786Y-119630109D01*
X148099788Y-119630106D01*
X148099792Y-119630104D01*
X148250104Y-119479792D01*
X148250106Y-119479788D01*
X148250109Y-119479786D01*
X148375048Y-119307820D01*
X148375047Y-119307820D01*
X148375051Y-119307816D01*
X148471557Y-119118412D01*
X148537246Y-118916243D01*
X148570500Y-118706287D01*
X148570500Y-118493713D01*
X148537246Y-118283757D01*
X148471557Y-118081588D01*
X148375051Y-117892184D01*
X148375049Y-117892181D01*
X148375048Y-117892179D01*
X148250109Y-117720213D01*
X148099786Y-117569890D01*
X147927820Y-117444951D01*
X147927115Y-117444591D01*
X147919054Y-117440485D01*
X147868259Y-117392512D01*
X147851463Y-117324692D01*
X147873999Y-117258556D01*
X147919054Y-117219515D01*
X147927816Y-117215051D01*
X147972126Y-117182858D01*
X148099786Y-117090109D01*
X148099788Y-117090106D01*
X148099792Y-117090104D01*
X148250104Y-116939792D01*
X148250106Y-116939788D01*
X148250109Y-116939786D01*
X148375048Y-116767820D01*
X148375047Y-116767820D01*
X148375051Y-116767816D01*
X148471557Y-116578412D01*
X148537246Y-116376243D01*
X148570500Y-116166287D01*
X148570500Y-115953713D01*
X148537246Y-115743757D01*
X148471557Y-115541588D01*
X148375051Y-115352184D01*
X148375049Y-115352181D01*
X148375048Y-115352179D01*
X148250109Y-115180213D01*
X148099786Y-115029890D01*
X147927820Y-114904951D01*
X147927115Y-114904591D01*
X147919054Y-114900485D01*
X147868259Y-114852512D01*
X147851463Y-114784692D01*
X147873999Y-114718556D01*
X147919054Y-114679515D01*
X147927816Y-114675051D01*
X147971274Y-114643477D01*
X148099786Y-114550109D01*
X148099788Y-114550106D01*
X148099792Y-114550104D01*
X148250104Y-114399792D01*
X148250106Y-114399788D01*
X148250109Y-114399786D01*
X148375048Y-114227820D01*
X148375047Y-114227820D01*
X148375051Y-114227816D01*
X148471557Y-114038412D01*
X148537246Y-113836243D01*
X148570500Y-113626287D01*
X148570500Y-113413713D01*
X148537246Y-113203757D01*
X148471557Y-113001588D01*
X148375051Y-112812184D01*
X148375049Y-112812181D01*
X148375048Y-112812179D01*
X148250109Y-112640213D01*
X148099786Y-112489890D01*
X147927820Y-112364951D01*
X147927115Y-112364591D01*
X147919054Y-112360485D01*
X147868259Y-112312512D01*
X147851463Y-112244692D01*
X147873999Y-112178556D01*
X147919054Y-112139515D01*
X147927816Y-112135051D01*
X147993200Y-112087547D01*
X148099786Y-112010109D01*
X148099788Y-112010106D01*
X148099792Y-112010104D01*
X148250104Y-111859792D01*
X148250106Y-111859788D01*
X148250109Y-111859786D01*
X148375048Y-111687820D01*
X148375047Y-111687820D01*
X148375051Y-111687816D01*
X148471557Y-111498412D01*
X148537246Y-111296243D01*
X148570500Y-111086287D01*
X148570500Y-110873713D01*
X148537246Y-110663757D01*
X148471557Y-110461588D01*
X148375051Y-110272184D01*
X148375049Y-110272181D01*
X148375048Y-110272179D01*
X148250109Y-110100213D01*
X148099786Y-109949890D01*
X147927820Y-109824951D01*
X147927115Y-109824591D01*
X147919054Y-109820485D01*
X147868259Y-109772512D01*
X147851463Y-109704692D01*
X147873999Y-109638556D01*
X147919054Y-109599515D01*
X147927816Y-109595051D01*
X148015582Y-109531286D01*
X148099786Y-109470109D01*
X148099788Y-109470106D01*
X148099792Y-109470104D01*
X148250104Y-109319792D01*
X148250106Y-109319788D01*
X148250109Y-109319786D01*
X148375048Y-109147820D01*
X148375047Y-109147820D01*
X148375051Y-109147816D01*
X148471557Y-108958412D01*
X148537246Y-108756243D01*
X148570500Y-108546287D01*
X148570500Y-108333713D01*
X148537246Y-108123757D01*
X148471557Y-107921588D01*
X148375051Y-107732184D01*
X148375049Y-107732181D01*
X148375048Y-107732179D01*
X148250109Y-107560213D01*
X148099786Y-107409890D01*
X147927820Y-107284951D01*
X147927115Y-107284591D01*
X147919054Y-107280485D01*
X147868259Y-107232512D01*
X147851463Y-107164692D01*
X147873999Y-107098556D01*
X147919054Y-107059515D01*
X147927816Y-107055051D01*
X147949789Y-107039086D01*
X148099786Y-106930109D01*
X148099788Y-106930106D01*
X148099792Y-106930104D01*
X148250104Y-106779792D01*
X148250106Y-106779788D01*
X148250109Y-106779786D01*
X148375048Y-106607820D01*
X148375047Y-106607820D01*
X148375051Y-106607816D01*
X148471557Y-106418412D01*
X148537246Y-106216243D01*
X148570500Y-106006287D01*
X148570500Y-105793713D01*
X148537246Y-105583757D01*
X148471557Y-105381588D01*
X148375051Y-105192184D01*
X148375049Y-105192181D01*
X148375048Y-105192179D01*
X148250109Y-105020213D01*
X148099786Y-104869890D01*
X147927820Y-104744951D01*
X147927115Y-104744591D01*
X147919054Y-104740485D01*
X147868259Y-104692512D01*
X147851463Y-104624692D01*
X147873999Y-104558556D01*
X147919054Y-104519515D01*
X147927816Y-104515051D01*
X147989975Y-104469890D01*
X148099786Y-104390109D01*
X148099788Y-104390106D01*
X148099792Y-104390104D01*
X148250104Y-104239792D01*
X148250106Y-104239788D01*
X148250109Y-104239786D01*
X148375048Y-104067820D01*
X148375047Y-104067820D01*
X148375051Y-104067816D01*
X148471557Y-103878412D01*
X148537246Y-103676243D01*
X148570500Y-103466287D01*
X148570500Y-103253713D01*
X148537246Y-103043757D01*
X148471557Y-102841588D01*
X148375051Y-102652184D01*
X148375049Y-102652181D01*
X148375048Y-102652179D01*
X148250109Y-102480213D01*
X148099786Y-102329890D01*
X147927820Y-102204951D01*
X147927115Y-102204591D01*
X147919054Y-102200485D01*
X147868259Y-102152512D01*
X147851463Y-102084692D01*
X147873999Y-102018556D01*
X147919054Y-101979515D01*
X147927816Y-101975051D01*
X147989975Y-101929890D01*
X148099786Y-101850109D01*
X148099788Y-101850106D01*
X148099792Y-101850104D01*
X148250104Y-101699792D01*
X148250106Y-101699788D01*
X148250109Y-101699786D01*
X148375048Y-101527820D01*
X148375047Y-101527820D01*
X148375051Y-101527816D01*
X148471557Y-101338412D01*
X148537246Y-101136243D01*
X148570500Y-100926287D01*
X148570500Y-100713713D01*
X148537246Y-100503757D01*
X148471557Y-100301588D01*
X148375051Y-100112184D01*
X148375049Y-100112181D01*
X148375048Y-100112179D01*
X148250109Y-99940213D01*
X148099786Y-99789890D01*
X147927820Y-99664951D01*
X147927115Y-99664591D01*
X147919054Y-99660485D01*
X147868259Y-99612512D01*
X147851463Y-99544692D01*
X147873999Y-99478556D01*
X147919054Y-99439515D01*
X147927816Y-99435051D01*
X147989975Y-99389890D01*
X148099786Y-99310109D01*
X148099788Y-99310106D01*
X148099792Y-99310104D01*
X148250104Y-99159792D01*
X148250106Y-99159788D01*
X148250109Y-99159786D01*
X148375048Y-98987820D01*
X148375047Y-98987820D01*
X148375051Y-98987816D01*
X148471557Y-98798412D01*
X148537246Y-98596243D01*
X148570500Y-98386287D01*
X148570500Y-98173713D01*
X148537246Y-97963757D01*
X148471557Y-97761588D01*
X148375051Y-97572184D01*
X148375049Y-97572181D01*
X148375048Y-97572179D01*
X148250109Y-97400213D01*
X148099786Y-97249890D01*
X147927820Y-97124951D01*
X147927115Y-97124591D01*
X147919054Y-97120485D01*
X147868259Y-97072512D01*
X147851463Y-97004692D01*
X147873999Y-96938556D01*
X147919054Y-96899515D01*
X147927816Y-96895051D01*
X147989975Y-96849890D01*
X148099786Y-96770109D01*
X148099788Y-96770106D01*
X148099792Y-96770104D01*
X148250104Y-96619792D01*
X148250106Y-96619788D01*
X148250109Y-96619786D01*
X148375048Y-96447820D01*
X148375047Y-96447820D01*
X148375051Y-96447816D01*
X148471557Y-96258412D01*
X148537246Y-96056243D01*
X148570500Y-95846287D01*
X148570500Y-95633713D01*
X148537246Y-95423757D01*
X148471557Y-95221588D01*
X148375051Y-95032184D01*
X148375049Y-95032181D01*
X148375048Y-95032179D01*
X148250109Y-94860213D01*
X148099786Y-94709890D01*
X147927820Y-94584951D01*
X147927115Y-94584591D01*
X147919054Y-94580485D01*
X147868259Y-94532512D01*
X147851463Y-94464692D01*
X147873999Y-94398556D01*
X147919054Y-94359515D01*
X147927816Y-94355051D01*
X147949789Y-94339086D01*
X148099786Y-94230109D01*
X148099788Y-94230106D01*
X148099792Y-94230104D01*
X148250104Y-94079792D01*
X148250106Y-94079788D01*
X148250109Y-94079786D01*
X148375048Y-93907820D01*
X148375047Y-93907820D01*
X148375051Y-93907816D01*
X148471557Y-93718412D01*
X148537246Y-93516243D01*
X148570500Y-93306287D01*
X148570500Y-93093713D01*
X148537246Y-92883757D01*
X148471557Y-92681588D01*
X148375051Y-92492184D01*
X148375049Y-92492181D01*
X148375048Y-92492179D01*
X148250109Y-92320213D01*
X148099786Y-92169890D01*
X147927820Y-92044951D01*
X147927115Y-92044591D01*
X147919054Y-92040485D01*
X147868259Y-91992512D01*
X147851463Y-91924692D01*
X147873999Y-91858556D01*
X147919054Y-91819515D01*
X147927816Y-91815051D01*
X148015209Y-91751557D01*
X148099786Y-91690109D01*
X148099788Y-91690106D01*
X148099792Y-91690104D01*
X148250104Y-91539792D01*
X148250106Y-91539788D01*
X148250109Y-91539786D01*
X148375048Y-91367820D01*
X148375047Y-91367820D01*
X148375051Y-91367816D01*
X148471557Y-91178412D01*
X148537246Y-90976243D01*
X148570500Y-90766287D01*
X148570500Y-90553713D01*
X148537246Y-90343757D01*
X148471557Y-90141588D01*
X148375051Y-89952184D01*
X148375049Y-89952181D01*
X148375048Y-89952179D01*
X148250109Y-89780213D01*
X148099786Y-89629890D01*
X147927820Y-89504951D01*
X147927115Y-89504591D01*
X147919054Y-89500485D01*
X147868259Y-89452512D01*
X147851463Y-89384692D01*
X147873999Y-89318556D01*
X147919054Y-89279515D01*
X147927816Y-89275051D01*
X147964439Y-89248443D01*
X148099786Y-89150109D01*
X148099788Y-89150106D01*
X148099792Y-89150104D01*
X148250104Y-88999792D01*
X148250106Y-88999788D01*
X148250109Y-88999786D01*
X148375048Y-88827820D01*
X148375047Y-88827820D01*
X148375051Y-88827816D01*
X148471557Y-88638412D01*
X148537246Y-88436243D01*
X148570500Y-88226287D01*
X148570500Y-88013713D01*
X148537246Y-87803757D01*
X148471557Y-87601588D01*
X148375051Y-87412184D01*
X148375049Y-87412181D01*
X148375048Y-87412179D01*
X148250109Y-87240213D01*
X148099786Y-87089890D01*
X147927820Y-86964951D01*
X147927115Y-86964591D01*
X147919054Y-86960485D01*
X147868259Y-86912512D01*
X147851463Y-86844692D01*
X147873999Y-86778556D01*
X147919054Y-86739515D01*
X147927816Y-86735051D01*
X147974414Y-86701196D01*
X148099786Y-86610109D01*
X148099788Y-86610106D01*
X148099792Y-86610104D01*
X148250104Y-86459792D01*
X148250106Y-86459788D01*
X148250109Y-86459786D01*
X148375048Y-86287820D01*
X148375047Y-86287820D01*
X148375051Y-86287816D01*
X148471557Y-86098412D01*
X148537246Y-85896243D01*
X148570500Y-85686287D01*
X148570500Y-85473713D01*
X148537246Y-85263757D01*
X148471557Y-85061588D01*
X148375051Y-84872184D01*
X148375049Y-84872181D01*
X148375048Y-84872179D01*
X148250109Y-84700213D01*
X148099786Y-84549890D01*
X147927820Y-84424951D01*
X147927115Y-84424591D01*
X147919054Y-84420485D01*
X147868259Y-84372512D01*
X147851463Y-84304692D01*
X147873999Y-84238556D01*
X147919054Y-84199515D01*
X147927816Y-84195051D01*
X148022574Y-84126206D01*
X148099786Y-84070109D01*
X148099788Y-84070106D01*
X148099792Y-84070104D01*
X148250104Y-83919792D01*
X148250106Y-83919788D01*
X148250109Y-83919786D01*
X148375048Y-83747820D01*
X148375047Y-83747820D01*
X148375051Y-83747816D01*
X148471557Y-83558412D01*
X148537246Y-83356243D01*
X148570500Y-83146287D01*
X148570500Y-82933713D01*
X148537246Y-82723757D01*
X148471557Y-82521588D01*
X148375051Y-82332184D01*
X148375049Y-82332181D01*
X148375048Y-82332179D01*
X148250109Y-82160213D01*
X148099786Y-82009890D01*
X147927820Y-81884951D01*
X147738414Y-81788444D01*
X147738413Y-81788443D01*
X147738412Y-81788443D01*
X147536243Y-81722754D01*
X147536241Y-81722753D01*
X147536240Y-81722753D01*
X147374957Y-81697208D01*
X147326287Y-81689500D01*
X147113713Y-81689500D01*
X147065042Y-81697208D01*
X146903760Y-81722753D01*
X146701585Y-81788444D01*
X146512179Y-81884951D01*
X146340213Y-82009890D01*
X146189890Y-82160213D01*
X146064949Y-82332182D01*
X146060484Y-82340946D01*
X146012509Y-82391742D01*
X145944688Y-82408536D01*
X145878553Y-82385998D01*
X145839516Y-82340946D01*
X145835050Y-82332182D01*
X145710109Y-82160213D01*
X145559786Y-82009890D01*
X145387820Y-81884951D01*
X145198414Y-81788444D01*
X145198413Y-81788443D01*
X145198412Y-81788443D01*
X144996243Y-81722754D01*
X144996241Y-81722753D01*
X144996240Y-81722753D01*
X144834957Y-81697208D01*
X144786287Y-81689500D01*
X144573713Y-81689500D01*
X144525042Y-81697208D01*
X144363760Y-81722753D01*
X144161585Y-81788444D01*
X143972179Y-81884951D01*
X143800213Y-82009890D01*
X143649890Y-82160213D01*
X143524949Y-82332182D01*
X143520484Y-82340946D01*
X143472509Y-82391742D01*
X143404688Y-82408536D01*
X143338553Y-82385998D01*
X143299516Y-82340946D01*
X143295050Y-82332182D01*
X143170109Y-82160213D01*
X143019786Y-82009890D01*
X142847820Y-81884951D01*
X142658414Y-81788444D01*
X142658413Y-81788443D01*
X142658412Y-81788443D01*
X142456243Y-81722754D01*
X142456241Y-81722753D01*
X142456240Y-81722753D01*
X142294957Y-81697208D01*
X142246287Y-81689500D01*
X142033713Y-81689500D01*
X141985042Y-81697208D01*
X141823760Y-81722753D01*
X141621585Y-81788444D01*
X141432179Y-81884951D01*
X141260213Y-82009890D01*
X141109890Y-82160213D01*
X140984949Y-82332182D01*
X140980484Y-82340946D01*
X140932509Y-82391742D01*
X140864688Y-82408536D01*
X140798553Y-82385998D01*
X140759516Y-82340946D01*
X140755050Y-82332182D01*
X140630109Y-82160213D01*
X140479786Y-82009890D01*
X140307820Y-81884951D01*
X140118414Y-81788444D01*
X140118413Y-81788443D01*
X140118412Y-81788443D01*
X139916243Y-81722754D01*
X139916241Y-81722753D01*
X139916240Y-81722753D01*
X139754957Y-81697208D01*
X139706287Y-81689500D01*
X139493713Y-81689500D01*
X139445042Y-81697208D01*
X139283760Y-81722753D01*
X139081585Y-81788444D01*
X138892179Y-81884951D01*
X138720213Y-82009890D01*
X138569890Y-82160213D01*
X138444949Y-82332182D01*
X138440484Y-82340946D01*
X138392509Y-82391742D01*
X138324688Y-82408536D01*
X138258553Y-82385998D01*
X138219516Y-82340946D01*
X138215050Y-82332182D01*
X138090109Y-82160213D01*
X137939786Y-82009890D01*
X137767820Y-81884951D01*
X137578414Y-81788444D01*
X137578413Y-81788443D01*
X137578412Y-81788443D01*
X137376243Y-81722754D01*
X137376241Y-81722753D01*
X137376240Y-81722753D01*
X137214957Y-81697208D01*
X137166287Y-81689500D01*
X136953713Y-81689500D01*
X136905042Y-81697208D01*
X136743760Y-81722753D01*
X136541585Y-81788444D01*
X136352179Y-81884951D01*
X136180213Y-82009890D01*
X136029890Y-82160213D01*
X135904949Y-82332182D01*
X135900484Y-82340946D01*
X135852509Y-82391742D01*
X135784688Y-82408536D01*
X135718553Y-82385998D01*
X135679516Y-82340946D01*
X135675050Y-82332182D01*
X135550109Y-82160213D01*
X135399786Y-82009890D01*
X135227820Y-81884951D01*
X135038414Y-81788444D01*
X135038413Y-81788443D01*
X135038412Y-81788443D01*
X134836243Y-81722754D01*
X134836241Y-81722753D01*
X134836240Y-81722753D01*
X134674957Y-81697208D01*
X134626287Y-81689500D01*
X134413713Y-81689500D01*
X134365042Y-81697208D01*
X134203760Y-81722753D01*
X134001585Y-81788444D01*
X133812179Y-81884951D01*
X133640213Y-82009890D01*
X133489890Y-82160213D01*
X133364949Y-82332182D01*
X133360484Y-82340946D01*
X133312509Y-82391742D01*
X133244688Y-82408536D01*
X133178553Y-82385998D01*
X133139516Y-82340946D01*
X133135050Y-82332182D01*
X133010109Y-82160213D01*
X132859786Y-82009890D01*
X132687820Y-81884951D01*
X132498414Y-81788444D01*
X132498413Y-81788443D01*
X132498412Y-81788443D01*
X132296243Y-81722754D01*
X132296241Y-81722753D01*
X132296240Y-81722753D01*
X132134957Y-81697208D01*
X132086287Y-81689500D01*
X131873713Y-81689500D01*
X131825042Y-81697208D01*
X131663760Y-81722753D01*
X131461585Y-81788444D01*
X131272179Y-81884951D01*
X131100213Y-82009890D01*
X130949890Y-82160213D01*
X130824949Y-82332182D01*
X130820484Y-82340946D01*
X130772509Y-82391742D01*
X130704688Y-82408536D01*
X130638553Y-82385998D01*
X130599516Y-82340946D01*
X130595050Y-82332182D01*
X130470109Y-82160213D01*
X130319786Y-82009890D01*
X130147820Y-81884951D01*
X129958414Y-81788444D01*
X129958413Y-81788443D01*
X129958412Y-81788443D01*
X129756243Y-81722754D01*
X129756241Y-81722753D01*
X129756240Y-81722753D01*
X129594957Y-81697208D01*
X129546287Y-81689500D01*
X129333713Y-81689500D01*
X129285042Y-81697208D01*
X129123760Y-81722753D01*
X128921585Y-81788444D01*
X128732179Y-81884951D01*
X128560213Y-82009890D01*
X128409890Y-82160213D01*
X128284949Y-82332182D01*
X128280484Y-82340946D01*
X128232509Y-82391742D01*
X128164688Y-82408536D01*
X128098553Y-82385998D01*
X128059516Y-82340946D01*
X128055050Y-82332182D01*
X127930109Y-82160213D01*
X127779786Y-82009890D01*
X127607820Y-81884951D01*
X127418414Y-81788444D01*
X127418413Y-81788443D01*
X127418412Y-81788443D01*
X127216243Y-81722754D01*
X127216241Y-81722753D01*
X127216240Y-81722753D01*
X127054957Y-81697208D01*
X127006287Y-81689500D01*
X126793713Y-81689500D01*
X126745042Y-81697208D01*
X126583760Y-81722753D01*
X126381585Y-81788444D01*
X126192179Y-81884951D01*
X126020213Y-82009890D01*
X125869890Y-82160213D01*
X125744949Y-82332182D01*
X125740484Y-82340946D01*
X125692509Y-82391742D01*
X125624688Y-82408536D01*
X125558553Y-82385998D01*
X125519516Y-82340946D01*
X125515050Y-82332182D01*
X125390109Y-82160213D01*
X125239786Y-82009890D01*
X125067820Y-81884951D01*
X124878414Y-81788444D01*
X124878413Y-81788443D01*
X124878412Y-81788443D01*
X124676243Y-81722754D01*
X124676241Y-81722753D01*
X124676240Y-81722753D01*
X124514957Y-81697208D01*
X124466287Y-81689500D01*
X124253713Y-81689500D01*
X124205042Y-81697208D01*
X124043760Y-81722753D01*
X123841585Y-81788444D01*
X123652179Y-81884951D01*
X123480213Y-82009890D01*
X123329890Y-82160213D01*
X123204949Y-82332182D01*
X123200484Y-82340946D01*
X123152509Y-82391742D01*
X123084688Y-82408536D01*
X123018553Y-82385998D01*
X122979516Y-82340946D01*
X122975050Y-82332182D01*
X122850109Y-82160213D01*
X122699786Y-82009890D01*
X122527820Y-81884951D01*
X122338414Y-81788444D01*
X122338413Y-81788443D01*
X122338412Y-81788443D01*
X122136243Y-81722754D01*
X122136241Y-81722753D01*
X122136240Y-81722753D01*
X121974957Y-81697208D01*
X121926287Y-81689500D01*
X121713713Y-81689500D01*
X121665042Y-81697208D01*
X121503760Y-81722753D01*
X121301585Y-81788444D01*
X121112179Y-81884951D01*
X120940213Y-82009890D01*
X120789890Y-82160213D01*
X120664949Y-82332182D01*
X120660484Y-82340946D01*
X120612509Y-82391742D01*
X120544688Y-82408536D01*
X120478553Y-82385998D01*
X120439516Y-82340946D01*
X120435050Y-82332182D01*
X120310109Y-82160213D01*
X120159786Y-82009890D01*
X119987820Y-81884951D01*
X119798414Y-81788444D01*
X119798413Y-81788443D01*
X119798412Y-81788443D01*
X119596243Y-81722754D01*
X119596241Y-81722753D01*
X119596240Y-81722753D01*
X119434957Y-81697208D01*
X119386287Y-81689500D01*
X119173713Y-81689500D01*
X119125042Y-81697208D01*
X118963760Y-81722753D01*
X118761585Y-81788444D01*
X118572179Y-81884951D01*
X118400213Y-82009890D01*
X118249890Y-82160213D01*
X118124949Y-82332182D01*
X118120484Y-82340946D01*
X118072509Y-82391742D01*
X118004688Y-82408536D01*
X117938553Y-82385998D01*
X117899516Y-82340946D01*
X117895050Y-82332182D01*
X117770109Y-82160213D01*
X117619786Y-82009890D01*
X117447820Y-81884951D01*
X117258414Y-81788444D01*
X117258413Y-81788443D01*
X117258412Y-81788443D01*
X117056243Y-81722754D01*
X117056241Y-81722753D01*
X117056240Y-81722753D01*
X116894957Y-81697208D01*
X116846287Y-81689500D01*
X116633713Y-81689500D01*
X116585042Y-81697208D01*
X116423760Y-81722753D01*
X116221585Y-81788444D01*
X116032179Y-81884951D01*
X115860213Y-82009890D01*
X115709890Y-82160213D01*
X115584949Y-82332182D01*
X115580484Y-82340946D01*
X115532509Y-82391742D01*
X115464688Y-82408536D01*
X115398553Y-82385998D01*
X115359516Y-82340946D01*
X115355050Y-82332182D01*
X115230109Y-82160213D01*
X115079786Y-82009890D01*
X114907820Y-81884951D01*
X114718414Y-81788444D01*
X114718413Y-81788443D01*
X114718412Y-81788443D01*
X114516243Y-81722754D01*
X114516241Y-81722753D01*
X114516240Y-81722753D01*
X114354957Y-81697208D01*
X114306287Y-81689500D01*
X114093713Y-81689500D01*
X114045042Y-81697208D01*
X113883760Y-81722753D01*
X113681585Y-81788444D01*
X113492179Y-81884951D01*
X113320213Y-82009890D01*
X113169890Y-82160213D01*
X113044949Y-82332182D01*
X113040484Y-82340946D01*
X112992509Y-82391742D01*
X112924688Y-82408536D01*
X112858553Y-82385998D01*
X112819516Y-82340946D01*
X112815050Y-82332182D01*
X112690109Y-82160213D01*
X112539786Y-82009890D01*
X112367820Y-81884951D01*
X112178414Y-81788444D01*
X112178413Y-81788443D01*
X112178412Y-81788443D01*
X111976243Y-81722754D01*
X111976241Y-81722753D01*
X111976240Y-81722753D01*
X111814957Y-81697208D01*
X111766287Y-81689500D01*
X111553713Y-81689500D01*
X111505042Y-81697208D01*
X111343760Y-81722753D01*
X111141585Y-81788444D01*
X110952179Y-81884951D01*
X110780213Y-82009890D01*
X110629890Y-82160213D01*
X110504949Y-82332182D01*
X110500484Y-82340946D01*
X110452509Y-82391742D01*
X110384688Y-82408536D01*
X110318553Y-82385998D01*
X110279516Y-82340946D01*
X110275050Y-82332182D01*
X110150109Y-82160213D01*
X109999786Y-82009890D01*
X109827820Y-81884951D01*
X109638414Y-81788444D01*
X109638413Y-81788443D01*
X109638412Y-81788443D01*
X109436243Y-81722754D01*
X109436241Y-81722753D01*
X109436240Y-81722753D01*
X109274957Y-81697208D01*
X109226287Y-81689500D01*
X109013713Y-81689500D01*
X108965042Y-81697208D01*
X108803760Y-81722753D01*
X108601585Y-81788444D01*
X108412179Y-81884951D01*
X108240213Y-82009890D01*
X108089890Y-82160213D01*
X107964949Y-82332182D01*
X107960484Y-82340946D01*
X107912509Y-82391742D01*
X107844688Y-82408536D01*
X107778553Y-82385998D01*
X107739516Y-82340946D01*
X107735050Y-82332182D01*
X107610109Y-82160213D01*
X107459786Y-82009890D01*
X107287820Y-81884951D01*
X107098414Y-81788444D01*
X107098413Y-81788443D01*
X107098412Y-81788443D01*
X106896243Y-81722754D01*
X106896241Y-81722753D01*
X106896240Y-81722753D01*
X106734957Y-81697208D01*
X106686287Y-81689500D01*
X106473713Y-81689500D01*
X106425042Y-81697208D01*
X106263760Y-81722753D01*
X106061585Y-81788444D01*
X105872179Y-81884951D01*
X105700213Y-82009890D01*
X105549890Y-82160213D01*
X105424949Y-82332182D01*
X105420484Y-82340946D01*
X105372509Y-82391742D01*
X105304688Y-82408536D01*
X105238553Y-82385998D01*
X105199516Y-82340946D01*
X105195050Y-82332182D01*
X105070109Y-82160213D01*
X104919786Y-82009890D01*
X104747820Y-81884951D01*
X104558414Y-81788444D01*
X104558413Y-81788443D01*
X104558412Y-81788443D01*
X104356243Y-81722754D01*
X104356241Y-81722753D01*
X104356240Y-81722753D01*
X104194957Y-81697208D01*
X104146287Y-81689500D01*
X103933713Y-81689500D01*
X103885042Y-81697208D01*
X103723760Y-81722753D01*
X103521585Y-81788444D01*
X103332179Y-81884951D01*
X103160213Y-82009890D01*
X103009890Y-82160213D01*
X102884951Y-82332179D01*
X102788444Y-82521585D01*
X102722753Y-82723760D01*
X102689500Y-82933713D01*
X102689500Y-83146287D01*
X102722754Y-83356243D01*
X102775793Y-83519481D01*
X102788444Y-83558414D01*
X102884951Y-83747820D01*
X103009890Y-83919786D01*
X103160213Y-84070109D01*
X103332182Y-84195050D01*
X103340946Y-84199516D01*
X103391742Y-84247491D01*
X103408536Y-84315312D01*
X103385998Y-84381447D01*
X103340946Y-84420484D01*
X103332182Y-84424949D01*
X103160213Y-84549890D01*
X103009890Y-84700213D01*
X102884951Y-84872179D01*
X102788444Y-85061585D01*
X102722753Y-85263760D01*
X102689500Y-85473713D01*
X102689500Y-85686286D01*
X102722753Y-85896239D01*
X102788444Y-86098414D01*
X102884951Y-86287820D01*
X103009890Y-86459786D01*
X103160213Y-86610109D01*
X103332182Y-86735050D01*
X103340946Y-86739516D01*
X103391742Y-86787491D01*
X103408536Y-86855312D01*
X103385998Y-86921447D01*
X103340946Y-86960484D01*
X103332182Y-86964949D01*
X103160213Y-87089890D01*
X103009890Y-87240213D01*
X102884951Y-87412179D01*
X102788444Y-87601585D01*
X102722753Y-87803760D01*
X102707495Y-87900099D01*
X102689500Y-88013713D01*
X102689500Y-88226287D01*
X102697413Y-88276247D01*
X102715170Y-88388364D01*
X102722754Y-88436243D01*
X102780923Y-88615269D01*
X102788444Y-88638414D01*
X102884951Y-88827820D01*
X103009890Y-88999786D01*
X103160213Y-89150109D01*
X103332182Y-89275050D01*
X103340946Y-89279516D01*
X103391742Y-89327491D01*
X103408536Y-89395312D01*
X103385998Y-89461447D01*
X103340946Y-89500484D01*
X103332182Y-89504949D01*
X103160213Y-89629890D01*
X103009890Y-89780213D01*
X102884951Y-89952179D01*
X102788444Y-90141585D01*
X102722753Y-90343760D01*
X102689500Y-90553713D01*
X102689500Y-90766286D01*
X102712140Y-90909233D01*
X102722754Y-90976243D01*
X102769732Y-91120827D01*
X102788444Y-91178414D01*
X102884951Y-91367820D01*
X103009890Y-91539786D01*
X103160213Y-91690109D01*
X103332182Y-91815050D01*
X103340946Y-91819516D01*
X103391742Y-91867491D01*
X103408536Y-91935312D01*
X103385998Y-92001447D01*
X103340946Y-92040484D01*
X103332182Y-92044949D01*
X103160213Y-92169890D01*
X103009890Y-92320213D01*
X102884951Y-92492179D01*
X102788444Y-92681585D01*
X102722753Y-92883760D01*
X102717637Y-92916064D01*
X102689500Y-93093713D01*
X102689500Y-93306287D01*
X102722754Y-93516243D01*
X102781770Y-93697876D01*
X102788444Y-93718414D01*
X102884951Y-93907820D01*
X103009890Y-94079786D01*
X103160213Y-94230109D01*
X103332182Y-94355050D01*
X103340946Y-94359516D01*
X103391742Y-94407491D01*
X103408536Y-94475312D01*
X103385998Y-94541447D01*
X103340946Y-94580484D01*
X103332182Y-94584949D01*
X103160213Y-94709890D01*
X103009890Y-94860213D01*
X102884951Y-95032179D01*
X102788444Y-95221585D01*
X102722753Y-95423760D01*
X102689500Y-95633713D01*
X102689500Y-95846287D01*
X102691421Y-95858414D01*
X102722753Y-96056239D01*
X102788444Y-96258414D01*
X102884951Y-96447820D01*
X103009890Y-96619786D01*
X103160213Y-96770109D01*
X103332182Y-96895050D01*
X103340946Y-96899516D01*
X103391742Y-96947491D01*
X103408536Y-97015312D01*
X103385998Y-97081447D01*
X103340946Y-97120484D01*
X103332182Y-97124949D01*
X103160213Y-97249890D01*
X103009890Y-97400213D01*
X102884951Y-97572179D01*
X102788444Y-97761585D01*
X102722753Y-97963760D01*
X102689500Y-98173713D01*
X102689500Y-98386287D01*
X102691421Y-98398414D01*
X102722753Y-98596239D01*
X102788444Y-98798414D01*
X102884951Y-98987820D01*
X103009890Y-99159786D01*
X103160213Y-99310109D01*
X103332182Y-99435050D01*
X103340946Y-99439516D01*
X103391742Y-99487491D01*
X103408536Y-99555312D01*
X103385998Y-99621447D01*
X103340946Y-99660484D01*
X103332182Y-99664949D01*
X103160213Y-99789890D01*
X103009890Y-99940213D01*
X102884951Y-100112179D01*
X102788444Y-100301585D01*
X102722753Y-100503760D01*
X102689500Y-100713713D01*
X102689500Y-100926287D01*
X102691421Y-100938414D01*
X102722753Y-101136239D01*
X102788444Y-101338414D01*
X102884951Y-101527820D01*
X103009890Y-101699786D01*
X103160213Y-101850109D01*
X103332182Y-101975050D01*
X103340946Y-101979516D01*
X103391742Y-102027491D01*
X103408536Y-102095312D01*
X103385998Y-102161447D01*
X103340946Y-102200484D01*
X103332182Y-102204949D01*
X103160213Y-102329890D01*
X103009890Y-102480213D01*
X102884951Y-102652179D01*
X102788444Y-102841585D01*
X102722753Y-103043760D01*
X102689500Y-103253713D01*
X102689500Y-103466287D01*
X102691421Y-103478414D01*
X102722753Y-103676239D01*
X102788444Y-103878414D01*
X102884951Y-104067820D01*
X103009890Y-104239786D01*
X103160213Y-104390109D01*
X103332182Y-104515050D01*
X103340946Y-104519516D01*
X103391742Y-104567491D01*
X103408536Y-104635312D01*
X103385998Y-104701447D01*
X103340946Y-104740484D01*
X103332182Y-104744949D01*
X103160213Y-104869890D01*
X103009890Y-105020213D01*
X102884951Y-105192179D01*
X102788444Y-105381585D01*
X102722753Y-105583760D01*
X102689500Y-105793713D01*
X102689500Y-106006287D01*
X102691421Y-106018414D01*
X102722753Y-106216239D01*
X102788444Y-106418414D01*
X102884951Y-106607820D01*
X103009890Y-106779786D01*
X103160213Y-106930109D01*
X103332182Y-107055050D01*
X103340946Y-107059516D01*
X103391742Y-107107491D01*
X103408536Y-107175312D01*
X103385998Y-107241447D01*
X103340946Y-107280484D01*
X103332182Y-107284949D01*
X103160213Y-107409890D01*
X103009890Y-107560213D01*
X102884951Y-107732179D01*
X102788444Y-107921585D01*
X102722753Y-108123760D01*
X102689500Y-108333713D01*
X102689500Y-108546286D01*
X102722753Y-108756239D01*
X102788444Y-108958414D01*
X102884951Y-109147820D01*
X103009890Y-109319786D01*
X103160213Y-109470109D01*
X103332182Y-109595050D01*
X103340946Y-109599516D01*
X103391742Y-109647491D01*
X103408536Y-109715312D01*
X103385998Y-109781447D01*
X103340946Y-109820484D01*
X103332182Y-109824949D01*
X103160213Y-109949890D01*
X103009890Y-110100213D01*
X102884951Y-110272179D01*
X102788444Y-110461585D01*
X102722753Y-110663760D01*
X102689500Y-110873713D01*
X102689500Y-111086287D01*
X102722754Y-111296243D01*
X102745763Y-111367058D01*
X102788444Y-111498414D01*
X102884951Y-111687820D01*
X103009890Y-111859786D01*
X103160213Y-112010109D01*
X103332182Y-112135050D01*
X103340946Y-112139516D01*
X103391742Y-112187491D01*
X103408536Y-112255312D01*
X103385998Y-112321447D01*
X103340946Y-112360484D01*
X103332182Y-112364949D01*
X103160213Y-112489890D01*
X103009890Y-112640213D01*
X102884951Y-112812179D01*
X102788444Y-113001585D01*
X102722753Y-113203760D01*
X102689500Y-113413713D01*
X102689500Y-113626286D01*
X102718665Y-113810431D01*
X102722754Y-113836243D01*
X102785503Y-114029365D01*
X102788444Y-114038414D01*
X102884951Y-114227820D01*
X103009890Y-114399786D01*
X103160213Y-114550109D01*
X103332182Y-114675050D01*
X103340946Y-114679516D01*
X103391742Y-114727491D01*
X103408536Y-114795312D01*
X103385998Y-114861447D01*
X103340946Y-114900484D01*
X103332182Y-114904949D01*
X103160213Y-115029890D01*
X103009890Y-115180213D01*
X102884951Y-115352179D01*
X102788444Y-115541585D01*
X102722753Y-115743760D01*
X102689500Y-115953713D01*
X102689500Y-116166286D01*
X102717490Y-116343011D01*
X102722754Y-116376243D01*
X102748806Y-116456423D01*
X102788444Y-116578414D01*
X102884951Y-116767820D01*
X103009890Y-116939786D01*
X103160213Y-117090109D01*
X103332182Y-117215050D01*
X103340946Y-117219516D01*
X103391742Y-117267491D01*
X103408536Y-117335312D01*
X103385998Y-117401447D01*
X103340946Y-117440484D01*
X103332182Y-117444949D01*
X103160213Y-117569890D01*
X103009890Y-117720213D01*
X102884951Y-117892179D01*
X102788444Y-118081585D01*
X102722753Y-118283760D01*
X102689500Y-118493713D01*
X102689500Y-118706286D01*
X102710554Y-118839219D01*
X102722754Y-118916243D01*
X102775587Y-119078846D01*
X102788444Y-119118414D01*
X102884951Y-119307820D01*
X103009890Y-119479786D01*
X103160213Y-119630109D01*
X103332182Y-119755050D01*
X103340946Y-119759516D01*
X103391742Y-119807491D01*
X103408536Y-119875312D01*
X103385998Y-119941447D01*
X103340946Y-119980484D01*
X103332182Y-119984949D01*
X103160213Y-120109890D01*
X103009890Y-120260213D01*
X102884951Y-120432179D01*
X102788444Y-120621585D01*
X102722753Y-120823760D01*
X102689500Y-121033713D01*
X102689500Y-121246286D01*
X102720171Y-121439938D01*
X102722754Y-121456243D01*
X102768832Y-121598057D01*
X102788444Y-121658414D01*
X102884951Y-121847820D01*
X103009890Y-122019786D01*
X103009896Y-122019792D01*
X103160208Y-122170104D01*
X103263873Y-122245421D01*
X103306539Y-122300750D01*
X103312518Y-122370363D01*
X103279913Y-122432159D01*
X103247285Y-122456223D01*
X103208566Y-122475951D01*
X103036599Y-122600891D01*
X102886276Y-122751214D01*
X102761337Y-122923180D01*
X102664830Y-123112586D01*
X102664829Y-123112588D01*
X102664829Y-123112589D01*
X102650072Y-123158007D01*
X102599139Y-123314761D01*
X102565886Y-123524714D01*
X101850500Y-123524714D01*
X101850500Y-123473713D01*
X101817246Y-123263757D01*
X101751557Y-123061588D01*
X101655051Y-122872184D01*
X101655049Y-122872181D01*
X101655048Y-122872179D01*
X101530109Y-122700213D01*
X101379786Y-122549890D01*
X101207820Y-122424951D01*
X101207115Y-122424591D01*
X101199054Y-122420485D01*
X101148259Y-122372512D01*
X101131463Y-122304692D01*
X101153999Y-122238556D01*
X101199054Y-122199515D01*
X101207816Y-122195051D01*
X101262514Y-122155311D01*
X101379786Y-122070109D01*
X101379788Y-122070106D01*
X101379792Y-122070104D01*
X101530104Y-121919792D01*
X101530106Y-121919788D01*
X101530109Y-121919786D01*
X101655048Y-121747820D01*
X101655047Y-121747820D01*
X101655051Y-121747816D01*
X101751557Y-121558412D01*
X101817246Y-121356243D01*
X101850500Y-121146287D01*
X101850500Y-120933713D01*
X101817246Y-120723757D01*
X101751557Y-120521588D01*
X101655051Y-120332184D01*
X101655049Y-120332181D01*
X101655048Y-120332179D01*
X101530109Y-120160213D01*
X101379786Y-120009890D01*
X101207820Y-119884951D01*
X101207115Y-119884591D01*
X101199054Y-119880485D01*
X101148259Y-119832512D01*
X101131463Y-119764692D01*
X101153999Y-119698556D01*
X101199054Y-119659515D01*
X101207816Y-119655051D01*
X101271920Y-119608477D01*
X101379786Y-119530109D01*
X101379788Y-119530106D01*
X101379792Y-119530104D01*
X101530104Y-119379792D01*
X101530106Y-119379788D01*
X101530109Y-119379786D01*
X101651405Y-119212834D01*
X101655051Y-119207816D01*
X101751557Y-119018412D01*
X101817246Y-118816243D01*
X101850500Y-118606287D01*
X101850500Y-118393713D01*
X101817246Y-118183757D01*
X101751557Y-117981588D01*
X101655051Y-117792184D01*
X101655049Y-117792181D01*
X101655048Y-117792179D01*
X101530109Y-117620213D01*
X101379786Y-117469890D01*
X101207820Y-117344951D01*
X101207115Y-117344591D01*
X101199054Y-117340485D01*
X101148259Y-117292512D01*
X101131463Y-117224692D01*
X101153999Y-117158556D01*
X101199054Y-117119515D01*
X101207816Y-117115051D01*
X101274073Y-117066913D01*
X101379786Y-116990109D01*
X101379788Y-116990106D01*
X101379792Y-116990104D01*
X101530104Y-116839792D01*
X101530106Y-116839788D01*
X101530109Y-116839786D01*
X101655048Y-116667820D01*
X101655047Y-116667820D01*
X101655051Y-116667816D01*
X101751557Y-116478412D01*
X101817246Y-116276243D01*
X101850500Y-116066287D01*
X101850500Y-115853713D01*
X101817246Y-115643757D01*
X101751557Y-115441588D01*
X101655051Y-115252184D01*
X101655049Y-115252181D01*
X101655048Y-115252179D01*
X101530109Y-115080213D01*
X101379786Y-114929890D01*
X101207820Y-114804951D01*
X101207115Y-114804591D01*
X101199054Y-114800485D01*
X101148259Y-114752512D01*
X101131463Y-114684692D01*
X101153999Y-114618556D01*
X101199054Y-114579515D01*
X101207816Y-114575051D01*
X101262902Y-114535029D01*
X101379786Y-114450109D01*
X101379788Y-114450106D01*
X101379792Y-114450104D01*
X101530104Y-114299792D01*
X101530106Y-114299788D01*
X101530109Y-114299786D01*
X101639086Y-114149789D01*
X101655051Y-114127816D01*
X101751557Y-113938412D01*
X101817246Y-113736243D01*
X101850500Y-113526287D01*
X101850500Y-113313713D01*
X101817246Y-113103757D01*
X101751557Y-112901588D01*
X101655051Y-112712184D01*
X101655049Y-112712181D01*
X101655048Y-112712179D01*
X101530109Y-112540213D01*
X101416569Y-112426673D01*
X101383084Y-112365350D01*
X101388068Y-112295658D01*
X101429940Y-112239725D01*
X101460915Y-112222810D01*
X101592331Y-112173796D01*
X101707546Y-112087546D01*
X101793796Y-111972331D01*
X101844091Y-111837483D01*
X101850500Y-111777873D01*
X101850499Y-109982128D01*
X101844091Y-109922517D01*
X101807701Y-109824951D01*
X101793797Y-109787671D01*
X101793793Y-109787664D01*
X101707547Y-109672455D01*
X101707544Y-109672452D01*
X101592335Y-109586206D01*
X101592328Y-109586202D01*
X101457482Y-109535908D01*
X101457483Y-109535908D01*
X101397883Y-109529501D01*
X101397881Y-109529500D01*
X101397873Y-109529500D01*
X101397865Y-109529500D01*
X100073500Y-109529500D01*
X100006461Y-109509815D01*
X99960706Y-109457011D01*
X99949500Y-109405500D01*
X99949500Y-106951097D01*
X99958144Y-106921657D01*
X99964667Y-106891672D01*
X99968422Y-106886654D01*
X99969185Y-106884058D01*
X99985814Y-106863420D01*
X100015478Y-106833756D01*
X100076798Y-106800272D01*
X100141476Y-106803507D01*
X100183757Y-106817246D01*
X100393713Y-106850500D01*
X100393714Y-106850500D01*
X100606286Y-106850500D01*
X100606287Y-106850500D01*
X100816243Y-106817246D01*
X101018412Y-106751557D01*
X101207816Y-106655051D01*
X101229789Y-106639086D01*
X101379786Y-106530109D01*
X101379788Y-106530106D01*
X101379792Y-106530104D01*
X101530104Y-106379792D01*
X101530106Y-106379788D01*
X101530109Y-106379786D01*
X101655048Y-106207820D01*
X101655047Y-106207820D01*
X101655051Y-106207816D01*
X101751557Y-106018412D01*
X101817246Y-105816243D01*
X101850500Y-105606287D01*
X101850500Y-105393713D01*
X101817246Y-105183757D01*
X101751557Y-104981588D01*
X101655051Y-104792184D01*
X101655049Y-104792181D01*
X101655048Y-104792179D01*
X101530109Y-104620213D01*
X101379786Y-104469890D01*
X101207820Y-104344951D01*
X101207115Y-104344591D01*
X101199054Y-104340485D01*
X101148259Y-104292512D01*
X101131463Y-104224692D01*
X101153999Y-104158556D01*
X101199054Y-104119515D01*
X101207816Y-104115051D01*
X101229789Y-104099086D01*
X101379786Y-103990109D01*
X101379788Y-103990106D01*
X101379792Y-103990104D01*
X101530104Y-103839792D01*
X101530106Y-103839788D01*
X101530109Y-103839786D01*
X101655048Y-103667820D01*
X101655047Y-103667820D01*
X101655051Y-103667816D01*
X101751557Y-103478412D01*
X101817246Y-103276243D01*
X101850500Y-103066287D01*
X101850500Y-102853713D01*
X101817246Y-102643757D01*
X101751557Y-102441588D01*
X101655051Y-102252184D01*
X101655049Y-102252181D01*
X101655048Y-102252179D01*
X101530109Y-102080213D01*
X101379786Y-101929890D01*
X101207820Y-101804951D01*
X101207115Y-101804591D01*
X101199054Y-101800485D01*
X101148259Y-101752512D01*
X101131463Y-101684692D01*
X101153999Y-101618556D01*
X101199054Y-101579515D01*
X101207816Y-101575051D01*
X101229789Y-101559086D01*
X101379786Y-101450109D01*
X101379788Y-101450106D01*
X101379792Y-101450104D01*
X101530104Y-101299792D01*
X101530106Y-101299788D01*
X101530109Y-101299786D01*
X101655048Y-101127820D01*
X101655047Y-101127820D01*
X101655051Y-101127816D01*
X101751557Y-100938412D01*
X101817246Y-100736243D01*
X101850500Y-100526287D01*
X101850500Y-100313713D01*
X101817246Y-100103757D01*
X101751557Y-99901588D01*
X101655051Y-99712184D01*
X101655049Y-99712181D01*
X101655048Y-99712179D01*
X101530109Y-99540213D01*
X101379786Y-99389890D01*
X101207820Y-99264951D01*
X101207115Y-99264591D01*
X101199054Y-99260485D01*
X101148259Y-99212512D01*
X101131463Y-99144692D01*
X101153999Y-99078556D01*
X101199054Y-99039515D01*
X101207816Y-99035051D01*
X101229789Y-99019086D01*
X101379786Y-98910109D01*
X101379788Y-98910106D01*
X101379792Y-98910104D01*
X101530104Y-98759792D01*
X101530106Y-98759788D01*
X101530109Y-98759786D01*
X101655048Y-98587820D01*
X101655047Y-98587820D01*
X101655051Y-98587816D01*
X101751557Y-98398412D01*
X101817246Y-98196243D01*
X101850500Y-97986287D01*
X101850500Y-97773713D01*
X101817246Y-97563757D01*
X101751557Y-97361588D01*
X101655051Y-97172184D01*
X101655049Y-97172181D01*
X101655048Y-97172179D01*
X101530109Y-97000213D01*
X101379786Y-96849890D01*
X101207820Y-96724951D01*
X101207115Y-96724591D01*
X101199054Y-96720485D01*
X101148259Y-96672512D01*
X101131463Y-96604692D01*
X101153999Y-96538556D01*
X101199054Y-96499515D01*
X101207816Y-96495051D01*
X101229789Y-96479086D01*
X101379786Y-96370109D01*
X101379788Y-96370106D01*
X101379792Y-96370104D01*
X101530104Y-96219792D01*
X101530106Y-96219788D01*
X101530109Y-96219786D01*
X101655048Y-96047820D01*
X101655047Y-96047820D01*
X101655051Y-96047816D01*
X101751557Y-95858412D01*
X101817246Y-95656243D01*
X101850500Y-95446287D01*
X101850500Y-95233713D01*
X101817246Y-95023757D01*
X101751557Y-94821588D01*
X101655051Y-94632184D01*
X101655049Y-94632181D01*
X101655048Y-94632179D01*
X101530109Y-94460213D01*
X101416569Y-94346673D01*
X101383084Y-94285350D01*
X101388068Y-94215658D01*
X101429940Y-94159725D01*
X101460915Y-94142810D01*
X101592331Y-94093796D01*
X101707546Y-94007546D01*
X101793796Y-93892331D01*
X101844091Y-93757483D01*
X101850500Y-93697873D01*
X101850499Y-91902128D01*
X101844091Y-91842517D01*
X101842872Y-91839250D01*
X101793797Y-91707671D01*
X101793793Y-91707664D01*
X101707547Y-91592455D01*
X101707544Y-91592452D01*
X101592335Y-91506206D01*
X101592328Y-91506202D01*
X101457482Y-91455908D01*
X101457483Y-91455908D01*
X101397883Y-91449501D01*
X101397881Y-91449500D01*
X101397873Y-91449500D01*
X101397864Y-91449500D01*
X99602129Y-91449500D01*
X99602123Y-91449501D01*
X99542516Y-91455908D01*
X99407671Y-91506202D01*
X99407664Y-91506206D01*
X99292455Y-91592452D01*
X99292452Y-91592455D01*
X99206206Y-91707664D01*
X99206202Y-91707671D01*
X99155908Y-91842517D01*
X99151922Y-91879596D01*
X99149501Y-91902123D01*
X99149500Y-91902135D01*
X99149500Y-93697870D01*
X99149501Y-93697876D01*
X99155908Y-93757483D01*
X99206202Y-93892328D01*
X99206206Y-93892335D01*
X99292452Y-94007544D01*
X99292455Y-94007547D01*
X99407664Y-94093793D01*
X99407671Y-94093797D01*
X99539082Y-94142810D01*
X99595016Y-94184681D01*
X99619433Y-94250145D01*
X99604582Y-94318418D01*
X99583431Y-94346673D01*
X99469889Y-94460215D01*
X99344951Y-94632179D01*
X99248444Y-94821585D01*
X99182753Y-95023760D01*
X99149500Y-95233713D01*
X99149500Y-95446286D01*
X99179185Y-95633713D01*
X99182754Y-95656243D01*
X99244503Y-95846287D01*
X99248444Y-95858414D01*
X99344951Y-96047820D01*
X99469890Y-96219786D01*
X99620213Y-96370109D01*
X99792182Y-96495050D01*
X99800946Y-96499516D01*
X99851742Y-96547491D01*
X99868536Y-96615312D01*
X99845998Y-96681447D01*
X99800946Y-96720484D01*
X99792182Y-96724949D01*
X99620213Y-96849890D01*
X99469890Y-97000213D01*
X99344951Y-97172179D01*
X99248444Y-97361585D01*
X99182753Y-97563760D01*
X99149500Y-97773713D01*
X99149500Y-97986286D01*
X99179185Y-98173713D01*
X99182754Y-98196243D01*
X99244503Y-98386287D01*
X99248444Y-98398414D01*
X99344951Y-98587820D01*
X99469890Y-98759786D01*
X99620213Y-98910109D01*
X99792182Y-99035050D01*
X99800946Y-99039516D01*
X99851742Y-99087491D01*
X99868536Y-99155312D01*
X99845998Y-99221447D01*
X99800946Y-99260484D01*
X99792182Y-99264949D01*
X99620213Y-99389890D01*
X99469890Y-99540213D01*
X99344951Y-99712179D01*
X99248444Y-99901585D01*
X99182753Y-100103760D01*
X99149500Y-100313713D01*
X99149500Y-100526286D01*
X99179185Y-100713713D01*
X99182754Y-100736243D01*
X99244503Y-100926287D01*
X99248444Y-100938414D01*
X99344951Y-101127820D01*
X99469890Y-101299786D01*
X99620213Y-101450109D01*
X99792182Y-101575050D01*
X99800946Y-101579516D01*
X99851742Y-101627491D01*
X99868536Y-101695312D01*
X99845998Y-101761447D01*
X99800946Y-101800484D01*
X99792182Y-101804949D01*
X99620213Y-101929890D01*
X99469890Y-102080213D01*
X99344951Y-102252179D01*
X99248444Y-102441585D01*
X99182753Y-102643760D01*
X99149500Y-102853713D01*
X99149500Y-103066286D01*
X99182754Y-103276244D01*
X99182754Y-103276247D01*
X99196491Y-103318523D01*
X99198486Y-103388364D01*
X99166241Y-103444522D01*
X98579286Y-104031478D01*
X98467481Y-104143282D01*
X98467480Y-104143284D01*
X98428063Y-104211557D01*
X98388423Y-104280215D01*
X98347499Y-104432943D01*
X98347499Y-104432945D01*
X98347499Y-104601046D01*
X98347500Y-104601059D01*
X98347500Y-144751901D01*
X98338855Y-144781341D01*
X98332333Y-144811326D01*
X98328577Y-144816342D01*
X98327815Y-144818940D01*
X98311183Y-144839580D01*
X98287585Y-144863179D01*
X98226263Y-144896666D01*
X98199902Y-144899500D01*
X74900428Y-144899500D01*
X74833389Y-144879815D01*
X74812747Y-144863181D01*
X73712046Y-143762481D01*
X73678561Y-143701158D01*
X73683545Y-143631466D01*
X73725417Y-143575533D01*
X73790881Y-143551116D01*
X73799727Y-143550800D01*
X77463031Y-143550800D01*
X77463047Y-143550801D01*
X77470643Y-143550801D01*
X77628754Y-143550801D01*
X77628757Y-143550801D01*
X77781485Y-143509877D01*
X77831604Y-143480939D01*
X77918416Y-143430820D01*
X78030220Y-143319016D01*
X78030220Y-143319014D01*
X78040428Y-143308807D01*
X78040430Y-143308804D01*
X78358506Y-142990728D01*
X78358511Y-142990724D01*
X78368714Y-142980520D01*
X78368716Y-142980520D01*
X78480520Y-142868716D01*
X78559577Y-142731784D01*
X78566194Y-142707085D01*
X78602557Y-142647426D01*
X78665403Y-142616895D01*
X78734779Y-142625189D01*
X78742257Y-142628689D01*
X78759134Y-142637289D01*
X78800238Y-142658233D01*
X78800240Y-142658233D01*
X78800243Y-142658235D01*
X78900530Y-142690820D01*
X78987337Y-142719026D01*
X79181634Y-142749800D01*
X79181639Y-142749800D01*
X79378366Y-142749800D01*
X79572662Y-142719026D01*
X79630876Y-142700111D01*
X79759757Y-142658235D01*
X79935038Y-142568925D01*
X80094190Y-142453294D01*
X80233294Y-142314190D01*
X80348925Y-142155038D01*
X80438235Y-141979757D01*
X80438234Y-141979757D01*
X80439515Y-141977245D01*
X80487490Y-141926449D01*
X80555311Y-141909654D01*
X80621445Y-141932191D01*
X80660485Y-141977245D01*
X80725697Y-142105231D01*
X80751075Y-142155038D01*
X80866706Y-142314190D01*
X81005810Y-142453294D01*
X81164962Y-142568925D01*
X81204024Y-142588828D01*
X81340238Y-142658233D01*
X81340240Y-142658233D01*
X81340243Y-142658235D01*
X81440530Y-142690820D01*
X81527337Y-142719026D01*
X81721634Y-142749800D01*
X81721639Y-142749800D01*
X81918366Y-142749800D01*
X82112662Y-142719026D01*
X82170876Y-142700111D01*
X82299757Y-142658235D01*
X82475038Y-142568925D01*
X82634190Y-142453294D01*
X82773294Y-142314190D01*
X82888925Y-142155038D01*
X82978235Y-141979757D01*
X82978234Y-141979757D01*
X82979515Y-141977245D01*
X83027490Y-141926449D01*
X83095311Y-141909654D01*
X83161445Y-141932191D01*
X83200485Y-141977245D01*
X83265697Y-142105231D01*
X83291075Y-142155038D01*
X83406706Y-142314190D01*
X83545810Y-142453294D01*
X83704962Y-142568925D01*
X83744024Y-142588828D01*
X83880238Y-142658233D01*
X83880240Y-142658233D01*
X83880243Y-142658235D01*
X83980530Y-142690820D01*
X84067337Y-142719026D01*
X84261634Y-142749800D01*
X84261639Y-142749800D01*
X84458366Y-142749800D01*
X84652662Y-142719026D01*
X84710876Y-142700111D01*
X84839757Y-142658235D01*
X85015038Y-142568925D01*
X85174190Y-142453294D01*
X85313294Y-142314190D01*
X85428925Y-142155038D01*
X85518235Y-141979757D01*
X85518234Y-141979757D01*
X85519515Y-141977245D01*
X85567490Y-141926449D01*
X85635311Y-141909654D01*
X85701445Y-141932191D01*
X85740485Y-141977245D01*
X85805697Y-142105231D01*
X85831075Y-142155038D01*
X85946706Y-142314190D01*
X86085810Y-142453294D01*
X86244962Y-142568925D01*
X86284024Y-142588828D01*
X86420238Y-142658233D01*
X86420240Y-142658233D01*
X86420243Y-142658235D01*
X86520530Y-142690820D01*
X86607337Y-142719026D01*
X86801634Y-142749800D01*
X86801639Y-142749800D01*
X86998366Y-142749800D01*
X87192662Y-142719026D01*
X87250876Y-142700111D01*
X87379757Y-142658235D01*
X87555038Y-142568925D01*
X87714190Y-142453294D01*
X87853294Y-142314190D01*
X87968925Y-142155038D01*
X88058235Y-141979757D01*
X88058234Y-141979757D01*
X88059515Y-141977245D01*
X88107490Y-141926449D01*
X88175311Y-141909654D01*
X88241445Y-141932191D01*
X88280485Y-141977245D01*
X88345697Y-142105231D01*
X88371075Y-142155038D01*
X88486706Y-142314190D01*
X88625810Y-142453294D01*
X88784962Y-142568925D01*
X88824024Y-142588828D01*
X88960238Y-142658233D01*
X88960240Y-142658233D01*
X88960243Y-142658235D01*
X89060530Y-142690820D01*
X89147337Y-142719026D01*
X89341634Y-142749800D01*
X89341639Y-142749800D01*
X89538366Y-142749800D01*
X89732662Y-142719026D01*
X89790876Y-142700111D01*
X89919757Y-142658235D01*
X90095038Y-142568925D01*
X90254190Y-142453294D01*
X90393294Y-142314190D01*
X90508925Y-142155038D01*
X90598235Y-141979757D01*
X90598234Y-141979757D01*
X90599515Y-141977245D01*
X90647490Y-141926449D01*
X90715311Y-141909654D01*
X90781445Y-141932191D01*
X90820485Y-141977245D01*
X90885697Y-142105231D01*
X90911075Y-142155038D01*
X91026706Y-142314190D01*
X91165810Y-142453294D01*
X91324962Y-142568925D01*
X91364024Y-142588828D01*
X91500238Y-142658233D01*
X91500240Y-142658233D01*
X91500243Y-142658235D01*
X91600530Y-142690820D01*
X91687337Y-142719026D01*
X91881634Y-142749800D01*
X91881639Y-142749800D01*
X92078366Y-142749800D01*
X92272662Y-142719026D01*
X92330876Y-142700111D01*
X92459757Y-142658235D01*
X92635038Y-142568925D01*
X92794190Y-142453294D01*
X92933294Y-142314190D01*
X93048925Y-142155038D01*
X93138235Y-141979757D01*
X93199026Y-141792662D01*
X93229800Y-141598366D01*
X93229800Y-141401633D01*
X93199026Y-141207337D01*
X93162107Y-141093713D01*
X93138235Y-141020243D01*
X93138233Y-141020240D01*
X93138233Y-141020238D01*
X93091120Y-140927774D01*
X93048925Y-140844962D01*
X92933294Y-140685810D01*
X92794190Y-140546706D01*
X92635038Y-140431075D01*
X92532866Y-140379016D01*
X92457245Y-140340485D01*
X92406449Y-140292510D01*
X92389654Y-140224689D01*
X92412191Y-140158555D01*
X92457245Y-140119515D01*
X92544512Y-140075050D01*
X92635038Y-140028925D01*
X92794190Y-139913294D01*
X92933294Y-139774190D01*
X93048925Y-139615038D01*
X93138235Y-139439757D01*
X93199026Y-139252662D01*
X93229800Y-139058366D01*
X93229800Y-138861633D01*
X93199026Y-138667337D01*
X93162107Y-138553713D01*
X93138235Y-138480243D01*
X93138233Y-138480240D01*
X93138233Y-138480238D01*
X93091120Y-138387774D01*
X93048925Y-138304962D01*
X92933294Y-138145810D01*
X92794190Y-138006706D01*
X92635038Y-137891075D01*
X92603252Y-137874879D01*
X92459761Y-137801766D01*
X92272662Y-137740973D01*
X92078366Y-137710200D01*
X92078361Y-137710200D01*
X91881639Y-137710200D01*
X91881634Y-137710200D01*
X91687337Y-137740973D01*
X91500238Y-137801766D01*
X91324961Y-137891075D01*
X91283852Y-137920943D01*
X91165810Y-138006706D01*
X91165808Y-138006708D01*
X91165807Y-138006708D01*
X91026708Y-138145807D01*
X91026708Y-138145808D01*
X91026706Y-138145810D01*
X90978486Y-138212179D01*
X90911075Y-138304961D01*
X90820485Y-138482754D01*
X90772510Y-138533550D01*
X90704689Y-138550345D01*
X90638554Y-138527807D01*
X90599515Y-138482754D01*
X90550297Y-138386160D01*
X90508925Y-138304962D01*
X90393294Y-138145810D01*
X90254190Y-138006706D01*
X90095038Y-137891075D01*
X90063252Y-137874879D01*
X89919761Y-137801766D01*
X89732662Y-137740973D01*
X89538366Y-137710200D01*
X89538361Y-137710200D01*
X89341639Y-137710200D01*
X89341634Y-137710200D01*
X89147337Y-137740973D01*
X88960238Y-137801766D01*
X88784961Y-137891075D01*
X88743852Y-137920943D01*
X88625810Y-138006706D01*
X88625808Y-138006708D01*
X88625807Y-138006708D01*
X88486708Y-138145807D01*
X88486708Y-138145808D01*
X88486706Y-138145810D01*
X88438486Y-138212179D01*
X88371075Y-138304961D01*
X88280485Y-138482754D01*
X88232510Y-138533550D01*
X88164689Y-138550345D01*
X88098554Y-138527807D01*
X88059515Y-138482754D01*
X88010297Y-138386160D01*
X87968925Y-138304962D01*
X87853294Y-138145810D01*
X87714190Y-138006706D01*
X87555038Y-137891075D01*
X87523252Y-137874879D01*
X87379761Y-137801766D01*
X87192662Y-137740973D01*
X86998366Y-137710200D01*
X86998361Y-137710200D01*
X86801639Y-137710200D01*
X86801634Y-137710200D01*
X86607337Y-137740973D01*
X86420238Y-137801766D01*
X86244961Y-137891075D01*
X86203852Y-137920943D01*
X86085810Y-138006706D01*
X86085808Y-138006708D01*
X86085807Y-138006708D01*
X85946708Y-138145807D01*
X85946708Y-138145808D01*
X85946706Y-138145810D01*
X85898486Y-138212179D01*
X85831075Y-138304961D01*
X85740485Y-138482754D01*
X85692510Y-138533550D01*
X85624689Y-138550345D01*
X85558554Y-138527807D01*
X85519515Y-138482754D01*
X85470297Y-138386160D01*
X85428925Y-138304962D01*
X85313294Y-138145810D01*
X85174190Y-138006706D01*
X85015038Y-137891075D01*
X84983252Y-137874879D01*
X84839761Y-137801766D01*
X84652662Y-137740973D01*
X84458366Y-137710200D01*
X84458361Y-137710200D01*
X84261639Y-137710200D01*
X84261634Y-137710200D01*
X84067337Y-137740973D01*
X83880238Y-137801766D01*
X83704961Y-137891075D01*
X83663852Y-137920943D01*
X83545810Y-138006706D01*
X83545808Y-138006708D01*
X83545807Y-138006708D01*
X83406708Y-138145807D01*
X83406708Y-138145808D01*
X83406706Y-138145810D01*
X83358486Y-138212179D01*
X83291075Y-138304961D01*
X83200485Y-138482754D01*
X83152510Y-138533550D01*
X83084689Y-138550345D01*
X83018554Y-138527807D01*
X82979515Y-138482754D01*
X82930297Y-138386160D01*
X82888925Y-138304962D01*
X82773294Y-138145810D01*
X82634190Y-138006706D01*
X82475038Y-137891075D01*
X82443252Y-137874879D01*
X82299761Y-137801766D01*
X82112662Y-137740973D01*
X81918366Y-137710200D01*
X81918361Y-137710200D01*
X81721639Y-137710200D01*
X81721634Y-137710200D01*
X81527337Y-137740973D01*
X81340238Y-137801766D01*
X81164961Y-137891075D01*
X81123852Y-137920943D01*
X81005810Y-138006706D01*
X81005808Y-138006708D01*
X81005807Y-138006708D01*
X80866708Y-138145807D01*
X80866708Y-138145808D01*
X80866706Y-138145810D01*
X80818486Y-138212179D01*
X80751075Y-138304961D01*
X80660485Y-138482754D01*
X80612510Y-138533550D01*
X80544689Y-138550345D01*
X80478554Y-138527807D01*
X80439515Y-138482754D01*
X80390297Y-138386160D01*
X80348925Y-138304962D01*
X80233294Y-138145810D01*
X80094190Y-138006706D01*
X79935038Y-137891075D01*
X79903252Y-137874879D01*
X79759761Y-137801766D01*
X79572662Y-137740973D01*
X79378366Y-137710200D01*
X79378361Y-137710200D01*
X79181639Y-137710200D01*
X79181634Y-137710200D01*
X78987337Y-137740973D01*
X78800235Y-137801767D01*
X78780794Y-137811674D01*
X78712125Y-137824570D01*
X78647385Y-137798293D01*
X78607128Y-137741187D01*
X78600500Y-137701189D01*
X78600500Y-136800096D01*
X78620185Y-136733057D01*
X78636814Y-136712420D01*
X81858506Y-133490727D01*
X81858511Y-133490724D01*
X81868714Y-133480520D01*
X81868716Y-133480520D01*
X81980520Y-133368716D01*
X82059577Y-133231784D01*
X82093258Y-133106086D01*
X82100500Y-133079058D01*
X82100500Y-132920943D01*
X82100500Y-125300096D01*
X82120185Y-125233057D01*
X82136814Y-125212420D01*
X83471867Y-123877366D01*
X83533188Y-123843883D01*
X83602880Y-123848867D01*
X83658813Y-123890739D01*
X83672561Y-123914881D01*
X83672568Y-123914878D01*
X83672636Y-123915011D01*
X83674105Y-123917591D01*
X83674777Y-123919214D01*
X83674780Y-123919219D01*
X83763148Y-124092651D01*
X83767715Y-124101613D01*
X83888028Y-124267213D01*
X84032786Y-124411971D01*
X84168806Y-124510793D01*
X84198390Y-124532287D01*
X84276274Y-124571971D01*
X84291080Y-124579515D01*
X84341876Y-124627490D01*
X84358671Y-124695311D01*
X84336134Y-124761446D01*
X84291080Y-124800485D01*
X84198386Y-124847715D01*
X84032786Y-124968028D01*
X83888028Y-125112786D01*
X83767715Y-125278386D01*
X83674781Y-125460776D01*
X83611522Y-125655465D01*
X83579500Y-125857648D01*
X83579500Y-126062351D01*
X83611522Y-126264534D01*
X83674781Y-126459223D01*
X83738691Y-126584653D01*
X83767585Y-126641359D01*
X83767715Y-126641613D01*
X83888028Y-126807213D01*
X84032786Y-126951971D01*
X84153226Y-127039474D01*
X84198390Y-127072287D01*
X84276274Y-127111971D01*
X84291080Y-127119515D01*
X84341876Y-127167490D01*
X84358671Y-127235311D01*
X84336134Y-127301446D01*
X84291080Y-127340485D01*
X84198386Y-127387715D01*
X84032786Y-127508028D01*
X83888028Y-127652786D01*
X83767715Y-127818386D01*
X83674781Y-128000776D01*
X83611522Y-128195465D01*
X83579500Y-128397648D01*
X83579500Y-128602351D01*
X83611522Y-128804534D01*
X83674781Y-128999223D01*
X83738691Y-129124653D01*
X83767585Y-129181359D01*
X83767715Y-129181613D01*
X83888028Y-129347213D01*
X84032786Y-129491971D01*
X84176431Y-129596333D01*
X84198390Y-129612287D01*
X84276274Y-129651971D01*
X84291080Y-129659515D01*
X84341876Y-129707490D01*
X84358671Y-129775311D01*
X84336134Y-129841446D01*
X84291080Y-129880485D01*
X84198386Y-129927715D01*
X84032786Y-130048028D01*
X83888028Y-130192786D01*
X83767715Y-130358386D01*
X83674781Y-130540776D01*
X83611522Y-130735465D01*
X83579500Y-130937648D01*
X83579500Y-131142351D01*
X83611522Y-131344534D01*
X83674781Y-131539223D01*
X83767715Y-131721613D01*
X83888028Y-131887213D01*
X84032786Y-132031971D01*
X84187749Y-132144556D01*
X84198390Y-132152287D01*
X84282319Y-132195051D01*
X84380776Y-132245218D01*
X84380778Y-132245218D01*
X84380781Y-132245220D01*
X84485137Y-132279127D01*
X84575465Y-132308477D01*
X84676557Y-132324488D01*
X84777648Y-132340500D01*
X84777649Y-132340500D01*
X84982351Y-132340500D01*
X84982352Y-132340500D01*
X85184534Y-132308477D01*
X85379219Y-132245220D01*
X85561610Y-132152287D01*
X85674726Y-132070104D01*
X85727213Y-132031971D01*
X85727215Y-132031968D01*
X85727219Y-132031966D01*
X85871966Y-131887219D01*
X85871968Y-131887215D01*
X85871971Y-131887213D01*
X85973247Y-131747816D01*
X85992287Y-131721610D01*
X86085220Y-131539219D01*
X86148477Y-131344534D01*
X86168322Y-131219240D01*
X86180500Y-131142351D01*
X86180500Y-130937648D01*
X86148477Y-130735465D01*
X86106117Y-130605096D01*
X86085220Y-130540781D01*
X86085217Y-130540777D01*
X86085217Y-130540774D01*
X86060956Y-130493160D01*
X86060955Y-130493159D01*
X85992287Y-130358390D01*
X85992285Y-130358387D01*
X85992284Y-130358385D01*
X85871971Y-130192786D01*
X85727213Y-130048028D01*
X85561614Y-129927715D01*
X85555006Y-129924348D01*
X85468917Y-129880483D01*
X85418123Y-129832511D01*
X85401328Y-129764690D01*
X85423865Y-129698555D01*
X85468917Y-129659516D01*
X85561610Y-129612287D01*
X85606774Y-129579474D01*
X85727213Y-129491971D01*
X85727215Y-129491968D01*
X85727219Y-129491966D01*
X85871966Y-129347219D01*
X85871968Y-129347215D01*
X85871971Y-129347213D01*
X85924732Y-129274590D01*
X85992287Y-129181610D01*
X86085220Y-128999219D01*
X86148477Y-128804534D01*
X86180500Y-128602352D01*
X86180500Y-128397648D01*
X86158698Y-128260000D01*
X86148477Y-128195465D01*
X86089837Y-128014991D01*
X86085220Y-128000781D01*
X86085218Y-128000778D01*
X86085218Y-128000776D01*
X86025063Y-127882717D01*
X85992287Y-127818390D01*
X85960092Y-127774077D01*
X85871971Y-127652786D01*
X85727213Y-127508028D01*
X85561614Y-127387715D01*
X85546837Y-127380186D01*
X85468917Y-127340483D01*
X85418123Y-127292511D01*
X85401328Y-127224690D01*
X85423865Y-127158555D01*
X85468917Y-127119516D01*
X85561610Y-127072287D01*
X85606774Y-127039474D01*
X85727213Y-126951971D01*
X85727215Y-126951968D01*
X85727219Y-126951966D01*
X85871966Y-126807219D01*
X85871968Y-126807215D01*
X85871971Y-126807213D01*
X85924732Y-126734590D01*
X85992287Y-126641610D01*
X86085220Y-126459219D01*
X86148477Y-126264534D01*
X86180500Y-126062352D01*
X86180500Y-125857648D01*
X86164772Y-125758349D01*
X86148477Y-125655465D01*
X86101920Y-125512179D01*
X86085220Y-125460781D01*
X86085218Y-125460778D01*
X86085218Y-125460776D01*
X86023787Y-125340213D01*
X85992287Y-125278390D01*
X85960092Y-125234077D01*
X85871971Y-125112786D01*
X85727213Y-124968028D01*
X85561614Y-124847715D01*
X85529898Y-124831555D01*
X85468917Y-124800483D01*
X85418123Y-124752511D01*
X85401328Y-124684690D01*
X85423865Y-124618555D01*
X85468917Y-124579516D01*
X85561610Y-124532287D01*
X85591194Y-124510793D01*
X85727213Y-124411971D01*
X85727215Y-124411968D01*
X85727219Y-124411966D01*
X85871966Y-124267219D01*
X85871968Y-124267215D01*
X85871971Y-124267213D01*
X85989137Y-124105945D01*
X85992287Y-124101610D01*
X86085220Y-123919219D01*
X86148477Y-123724534D01*
X86180500Y-123522352D01*
X86180500Y-123317648D01*
X86160106Y-123188888D01*
X86148477Y-123115465D01*
X86103486Y-122976999D01*
X86085220Y-122920781D01*
X86085218Y-122920778D01*
X86085218Y-122920776D01*
X85992287Y-122738390D01*
X85894023Y-122603140D01*
X85882566Y-122571029D01*
X85870658Y-122539102D01*
X85870853Y-122538201D01*
X85870544Y-122537333D01*
X85878261Y-122504146D01*
X85885509Y-122470829D01*
X85886235Y-122469858D01*
X85886370Y-122469280D01*
X85906653Y-122442582D01*
X85980520Y-122368716D01*
X85980521Y-122368714D01*
X86461520Y-121887716D01*
X86540577Y-121750784D01*
X86581501Y-121598057D01*
X86581501Y-121439942D01*
X86581501Y-121432347D01*
X86581500Y-121432329D01*
X86581500Y-119361945D01*
X86581500Y-119361943D01*
X86558777Y-119277139D01*
X86540577Y-119209215D01*
X86498658Y-119136610D01*
X86498658Y-119136608D01*
X86461524Y-119072290D01*
X86461521Y-119072286D01*
X86461520Y-119072284D01*
X86349716Y-118960480D01*
X86349715Y-118960479D01*
X86345385Y-118956149D01*
X86345374Y-118956139D01*
X86174077Y-118784842D01*
X86140592Y-118723519D01*
X86143828Y-118658841D01*
X86148477Y-118644534D01*
X86180500Y-118442352D01*
X86180500Y-118237648D01*
X86148477Y-118035466D01*
X86085220Y-117840781D01*
X86085218Y-117840778D01*
X86085218Y-117840776D01*
X86023787Y-117720213D01*
X85992287Y-117658390D01*
X85976154Y-117636185D01*
X85871971Y-117492786D01*
X85727213Y-117348028D01*
X85561614Y-117227715D01*
X85555006Y-117224348D01*
X85468917Y-117180483D01*
X85418123Y-117132511D01*
X85401328Y-117064690D01*
X85423865Y-116998555D01*
X85468917Y-116959516D01*
X85561610Y-116912287D01*
X85582770Y-116896913D01*
X85727213Y-116791971D01*
X85727215Y-116791968D01*
X85727219Y-116791966D01*
X85871966Y-116647219D01*
X85871968Y-116647215D01*
X85871971Y-116647213D01*
X85963196Y-116521650D01*
X85992287Y-116481610D01*
X86085220Y-116299219D01*
X86148477Y-116104534D01*
X86180500Y-115902352D01*
X86180500Y-115697648D01*
X91199500Y-115697648D01*
X91199500Y-115902351D01*
X91231522Y-116104534D01*
X91294781Y-116299223D01*
X91354028Y-116415499D01*
X91376306Y-116459223D01*
X91387715Y-116481613D01*
X91508028Y-116647213D01*
X91652786Y-116791971D01*
X91807749Y-116904556D01*
X91818390Y-116912287D01*
X91896274Y-116951971D01*
X91911080Y-116959515D01*
X91961876Y-117007490D01*
X91978671Y-117075311D01*
X91956134Y-117141446D01*
X91911080Y-117180485D01*
X91818386Y-117227715D01*
X91652786Y-117348028D01*
X91508028Y-117492786D01*
X91387715Y-117658386D01*
X91294781Y-117840776D01*
X91231522Y-118035465D01*
X91199500Y-118237648D01*
X91199500Y-118442351D01*
X91231522Y-118644534D01*
X91294781Y-118839223D01*
X91354354Y-118956139D01*
X91376306Y-118999223D01*
X91387715Y-119021613D01*
X91508028Y-119187213D01*
X91652786Y-119331971D01*
X91807749Y-119444556D01*
X91818390Y-119452287D01*
X91896274Y-119491971D01*
X91911080Y-119499515D01*
X91961876Y-119547490D01*
X91978671Y-119615311D01*
X91956134Y-119681446D01*
X91911080Y-119720485D01*
X91818386Y-119767715D01*
X91652786Y-119888028D01*
X91508028Y-120032786D01*
X91387715Y-120198386D01*
X91294781Y-120380776D01*
X91231522Y-120575465D01*
X91208035Y-120723760D01*
X91199500Y-120777648D01*
X91199500Y-120982352D01*
X91200573Y-120989125D01*
X91231522Y-121184534D01*
X91294781Y-121379223D01*
X91358691Y-121504653D01*
X91376306Y-121539223D01*
X91387715Y-121561613D01*
X91508028Y-121727213D01*
X91652786Y-121871971D01*
X91803473Y-121981449D01*
X91818390Y-121992287D01*
X91896274Y-122031971D01*
X91911080Y-122039515D01*
X91961876Y-122087490D01*
X91978671Y-122155311D01*
X91956134Y-122221446D01*
X91911080Y-122260485D01*
X91818386Y-122307715D01*
X91652786Y-122428028D01*
X91508028Y-122572786D01*
X91387715Y-122738386D01*
X91294781Y-122920776D01*
X91231522Y-123115465D01*
X91199500Y-123317648D01*
X91199500Y-123522351D01*
X91231522Y-123724534D01*
X91294781Y-123919223D01*
X91358691Y-124044653D01*
X91383148Y-124092651D01*
X91387715Y-124101613D01*
X91508028Y-124267213D01*
X91652786Y-124411971D01*
X91818385Y-124532284D01*
X91818387Y-124532285D01*
X91818390Y-124532287D01*
X91911080Y-124579515D01*
X91911630Y-124579795D01*
X91962426Y-124627770D01*
X91979221Y-124695591D01*
X91956684Y-124761725D01*
X91911630Y-124800765D01*
X91818644Y-124848143D01*
X91774077Y-124880523D01*
X91774077Y-124880524D01*
X92453554Y-125560000D01*
X92447339Y-125560000D01*
X92345606Y-125587259D01*
X92254394Y-125639920D01*
X92179920Y-125714394D01*
X92127259Y-125805606D01*
X92100000Y-125907339D01*
X92100000Y-125913553D01*
X91420524Y-125234077D01*
X91420523Y-125234077D01*
X91388143Y-125278644D01*
X91295244Y-125460968D01*
X91232009Y-125655582D01*
X91200000Y-125857682D01*
X91200000Y-126062317D01*
X91232009Y-126264417D01*
X91295244Y-126459031D01*
X91388141Y-126641350D01*
X91388147Y-126641359D01*
X91420523Y-126685921D01*
X91420524Y-126685922D01*
X92100000Y-126006446D01*
X92100000Y-126012661D01*
X92127259Y-126114394D01*
X92179920Y-126205606D01*
X92254394Y-126280080D01*
X92345606Y-126332741D01*
X92447339Y-126360000D01*
X92453553Y-126360000D01*
X91774076Y-127039474D01*
X91818650Y-127071859D01*
X91912180Y-127119515D01*
X91962976Y-127167489D01*
X91979771Y-127235310D01*
X91957234Y-127301445D01*
X91912180Y-127340485D01*
X91818644Y-127388143D01*
X91774077Y-127420523D01*
X91774077Y-127420524D01*
X92453554Y-128100000D01*
X92447339Y-128100000D01*
X92345606Y-128127259D01*
X92254394Y-128179920D01*
X92179920Y-128254394D01*
X92127259Y-128345606D01*
X92100000Y-128447339D01*
X92100000Y-128453553D01*
X91420524Y-127774077D01*
X91420523Y-127774077D01*
X91388143Y-127818644D01*
X91295244Y-128000968D01*
X91232009Y-128195582D01*
X91200000Y-128397682D01*
X91200000Y-128602317D01*
X91232009Y-128804417D01*
X91295244Y-128999031D01*
X91388141Y-129181350D01*
X91388147Y-129181359D01*
X91420523Y-129225921D01*
X91420524Y-129225922D01*
X92100000Y-128546446D01*
X92100000Y-128552661D01*
X92127259Y-128654394D01*
X92179920Y-128745606D01*
X92254394Y-128820080D01*
X92345606Y-128872741D01*
X92447339Y-128900000D01*
X92453553Y-128900000D01*
X91774076Y-129579474D01*
X91775403Y-129596333D01*
X91790198Y-129615519D01*
X91796177Y-129685132D01*
X91763572Y-129746927D01*
X91713652Y-129778212D01*
X91630886Y-129805638D01*
X91630875Y-129805643D01*
X91481654Y-129897684D01*
X91357684Y-130021654D01*
X91265643Y-130170875D01*
X91265641Y-130170880D01*
X91210494Y-130337302D01*
X91210493Y-130337309D01*
X91200000Y-130440013D01*
X91200000Y-130790000D01*
X92184314Y-130790000D01*
X92179920Y-130794394D01*
X92127259Y-130885606D01*
X92100000Y-130987339D01*
X92100000Y-131092661D01*
X92127259Y-131194394D01*
X92179920Y-131285606D01*
X92184314Y-131290000D01*
X91200001Y-131290000D01*
X91200001Y-131639986D01*
X91210494Y-131742697D01*
X91265641Y-131909119D01*
X91265643Y-131909124D01*
X91357684Y-132058345D01*
X91481654Y-132182315D01*
X91630875Y-132274356D01*
X91630880Y-132274358D01*
X91797302Y-132329505D01*
X91797309Y-132329506D01*
X91900019Y-132339999D01*
X92249999Y-132339999D01*
X92250000Y-132339998D01*
X92250000Y-131355686D01*
X92254394Y-131360080D01*
X92345606Y-131412741D01*
X92447339Y-131440000D01*
X92552661Y-131440000D01*
X92654394Y-131412741D01*
X92745606Y-131360080D01*
X92750000Y-131355686D01*
X92750000Y-132339999D01*
X93099972Y-132339999D01*
X93099986Y-132339998D01*
X93202697Y-132329505D01*
X93369119Y-132274358D01*
X93369124Y-132274356D01*
X93518345Y-132182315D01*
X93642315Y-132058345D01*
X93734356Y-131909124D01*
X93734358Y-131909119D01*
X93789505Y-131742697D01*
X93789506Y-131742690D01*
X93799999Y-131639986D01*
X93800000Y-131639973D01*
X93800000Y-131290000D01*
X92815686Y-131290000D01*
X92820080Y-131285606D01*
X92872741Y-131194394D01*
X92900000Y-131092661D01*
X92900000Y-130987339D01*
X92872741Y-130885606D01*
X92820080Y-130794394D01*
X92815686Y-130790000D01*
X93799999Y-130790000D01*
X93799999Y-130440028D01*
X93799998Y-130440013D01*
X93789505Y-130337302D01*
X93734358Y-130170880D01*
X93734356Y-130170875D01*
X93642315Y-130021654D01*
X93518345Y-129897684D01*
X93369124Y-129805643D01*
X93369119Y-129805641D01*
X93286346Y-129778213D01*
X93228901Y-129738440D01*
X93202078Y-129673924D01*
X93214393Y-129605149D01*
X93224875Y-129592769D01*
X93225921Y-129579474D01*
X92546447Y-128900000D01*
X92552661Y-128900000D01*
X92654394Y-128872741D01*
X92745606Y-128820080D01*
X92820080Y-128745606D01*
X92872741Y-128654394D01*
X92900000Y-128552661D01*
X92900000Y-128546447D01*
X93579474Y-129225921D01*
X93611859Y-129181349D01*
X93704755Y-128999031D01*
X93767990Y-128804417D01*
X93800000Y-128602317D01*
X93800000Y-128397682D01*
X93767990Y-128195582D01*
X93704755Y-128000968D01*
X93611859Y-127818650D01*
X93579474Y-127774077D01*
X93579474Y-127774076D01*
X92900000Y-128453551D01*
X92900000Y-128447339D01*
X92872741Y-128345606D01*
X92820080Y-128254394D01*
X92745606Y-128179920D01*
X92654394Y-128127259D01*
X92552661Y-128100000D01*
X92546446Y-128100000D01*
X93225922Y-127420524D01*
X93225921Y-127420523D01*
X93181359Y-127388147D01*
X93181350Y-127388141D01*
X93087819Y-127340485D01*
X93037023Y-127292511D01*
X93020228Y-127224690D01*
X93042765Y-127158555D01*
X93087820Y-127119515D01*
X93181346Y-127071861D01*
X93181347Y-127071861D01*
X93225921Y-127039474D01*
X92546447Y-126360000D01*
X92552661Y-126360000D01*
X92654394Y-126332741D01*
X92745606Y-126280080D01*
X92820080Y-126205606D01*
X92872741Y-126114394D01*
X92900000Y-126012661D01*
X92900000Y-126006447D01*
X93579474Y-126685921D01*
X93611859Y-126641349D01*
X93704755Y-126459031D01*
X93767990Y-126264417D01*
X93800000Y-126062317D01*
X93800000Y-125857682D01*
X93767990Y-125655582D01*
X93704755Y-125460968D01*
X93611859Y-125278650D01*
X93579474Y-125234077D01*
X93579474Y-125234076D01*
X92900000Y-125913551D01*
X92900000Y-125907339D01*
X92872741Y-125805606D01*
X92820080Y-125714394D01*
X92745606Y-125639920D01*
X92654394Y-125587259D01*
X92552661Y-125560000D01*
X92546446Y-125560000D01*
X93225922Y-124880524D01*
X93225921Y-124880523D01*
X93181359Y-124848147D01*
X93181350Y-124848141D01*
X93088369Y-124800765D01*
X93037573Y-124752790D01*
X93020778Y-124684969D01*
X93043315Y-124618835D01*
X93088370Y-124579795D01*
X93088920Y-124579515D01*
X93181610Y-124532287D01*
X93281400Y-124459786D01*
X93347213Y-124411971D01*
X93347215Y-124411968D01*
X93347219Y-124411966D01*
X93491966Y-124267219D01*
X93491968Y-124267215D01*
X93491971Y-124267213D01*
X93609137Y-124105945D01*
X93612287Y-124101610D01*
X93705220Y-123919219D01*
X93768477Y-123724534D01*
X93800500Y-123522352D01*
X93800500Y-123317648D01*
X93780106Y-123188888D01*
X93768477Y-123115465D01*
X93723486Y-122976999D01*
X93705220Y-122920781D01*
X93705218Y-122920778D01*
X93705218Y-122920776D01*
X93667710Y-122847164D01*
X93612287Y-122738390D01*
X93584550Y-122700213D01*
X93491971Y-122572786D01*
X93347213Y-122428028D01*
X93181614Y-122307715D01*
X93156759Y-122295051D01*
X93088917Y-122260483D01*
X93038123Y-122212511D01*
X93021328Y-122144690D01*
X93043865Y-122078555D01*
X93088917Y-122039516D01*
X93181610Y-121992287D01*
X93256197Y-121938097D01*
X93347213Y-121871971D01*
X93347215Y-121871968D01*
X93347219Y-121871966D01*
X93491966Y-121727219D01*
X93491968Y-121727215D01*
X93491971Y-121727213D01*
X93583196Y-121601650D01*
X93612287Y-121561610D01*
X93705220Y-121379219D01*
X93768477Y-121184534D01*
X93800500Y-120982352D01*
X93800500Y-120777648D01*
X93768477Y-120575466D01*
X93705220Y-120380781D01*
X93705218Y-120380778D01*
X93705218Y-120380776D01*
X93671503Y-120314607D01*
X93612287Y-120198390D01*
X93584550Y-120160213D01*
X93491971Y-120032786D01*
X93347213Y-119888028D01*
X93181614Y-119767715D01*
X93175006Y-119764348D01*
X93088917Y-119720483D01*
X93038123Y-119672511D01*
X93021328Y-119604690D01*
X93043865Y-119538555D01*
X93088917Y-119499516D01*
X93181610Y-119452287D01*
X93202770Y-119436913D01*
X93347213Y-119331971D01*
X93347215Y-119331968D01*
X93347219Y-119331966D01*
X93491966Y-119187219D01*
X93491968Y-119187215D01*
X93491971Y-119187213D01*
X93583196Y-119061650D01*
X93612287Y-119021610D01*
X93705220Y-118839219D01*
X93768477Y-118644534D01*
X93800500Y-118442352D01*
X93800500Y-118237648D01*
X93768477Y-118035466D01*
X93705220Y-117840781D01*
X93705218Y-117840778D01*
X93705218Y-117840776D01*
X93643787Y-117720213D01*
X93612287Y-117658390D01*
X93596154Y-117636185D01*
X93491971Y-117492786D01*
X93347213Y-117348028D01*
X93181614Y-117227715D01*
X93175006Y-117224348D01*
X93088917Y-117180483D01*
X93038123Y-117132511D01*
X93021328Y-117064690D01*
X93043865Y-116998555D01*
X93088917Y-116959516D01*
X93181610Y-116912287D01*
X93202770Y-116896913D01*
X93347213Y-116791971D01*
X93347215Y-116791968D01*
X93347219Y-116791966D01*
X93491966Y-116647219D01*
X93491968Y-116647215D01*
X93491971Y-116647213D01*
X93583196Y-116521650D01*
X93612287Y-116481610D01*
X93705220Y-116299219D01*
X93768477Y-116104534D01*
X93800500Y-115902352D01*
X93800500Y-115697648D01*
X93791964Y-115643757D01*
X93768477Y-115495465D01*
X93721920Y-115352179D01*
X93705220Y-115300781D01*
X93705218Y-115300778D01*
X93705218Y-115300776D01*
X93652443Y-115197201D01*
X93612287Y-115118390D01*
X93604556Y-115107749D01*
X93491971Y-114952786D01*
X93347213Y-114808028D01*
X93181611Y-114687713D01*
X93088369Y-114640203D01*
X93037574Y-114592229D01*
X93020779Y-114524407D01*
X93043317Y-114458273D01*
X93088371Y-114419234D01*
X93181346Y-114371861D01*
X93181347Y-114371861D01*
X93225921Y-114339474D01*
X92546447Y-113660000D01*
X92552661Y-113660000D01*
X92654394Y-113632741D01*
X92745606Y-113580080D01*
X92820080Y-113505606D01*
X92872741Y-113414394D01*
X92900000Y-113312661D01*
X92900000Y-113306447D01*
X93579474Y-113985921D01*
X93611859Y-113941349D01*
X93704755Y-113759031D01*
X93767990Y-113564417D01*
X93800000Y-113362317D01*
X93800000Y-113157682D01*
X93767990Y-112955582D01*
X93704755Y-112760968D01*
X93611859Y-112578650D01*
X93579474Y-112534077D01*
X93579474Y-112534076D01*
X92900000Y-113213551D01*
X92900000Y-113207339D01*
X92872741Y-113105606D01*
X92820080Y-113014394D01*
X92745606Y-112939920D01*
X92654394Y-112887259D01*
X92552661Y-112860000D01*
X92546446Y-112860000D01*
X93225922Y-112180524D01*
X93225921Y-112180523D01*
X93181359Y-112148147D01*
X93181350Y-112148141D01*
X92999031Y-112055244D01*
X92804417Y-111992009D01*
X92602317Y-111960000D01*
X92397683Y-111960000D01*
X92195582Y-111992009D01*
X92000968Y-112055244D01*
X91818644Y-112148143D01*
X91774077Y-112180523D01*
X91774077Y-112180524D01*
X92453554Y-112860000D01*
X92447339Y-112860000D01*
X92345606Y-112887259D01*
X92254394Y-112939920D01*
X92179920Y-113014394D01*
X92127259Y-113105606D01*
X92100000Y-113207339D01*
X92100000Y-113213553D01*
X91420524Y-112534077D01*
X91420523Y-112534077D01*
X91388143Y-112578644D01*
X91295244Y-112760968D01*
X91232009Y-112955582D01*
X91200000Y-113157682D01*
X91200000Y-113362317D01*
X91232009Y-113564417D01*
X91295244Y-113759031D01*
X91388141Y-113941350D01*
X91388147Y-113941359D01*
X91420523Y-113985921D01*
X91420524Y-113985922D01*
X92100000Y-113306446D01*
X92100000Y-113312661D01*
X92127259Y-113414394D01*
X92179920Y-113505606D01*
X92254394Y-113580080D01*
X92345606Y-113632741D01*
X92447339Y-113660000D01*
X92453553Y-113660000D01*
X91774076Y-114339474D01*
X91818652Y-114371861D01*
X91911628Y-114419234D01*
X91962425Y-114467208D01*
X91979220Y-114535029D01*
X91956683Y-114601164D01*
X91911630Y-114640203D01*
X91818388Y-114687713D01*
X91652786Y-114808028D01*
X91508028Y-114952786D01*
X91387715Y-115118386D01*
X91294781Y-115300776D01*
X91231522Y-115495465D01*
X91199500Y-115697648D01*
X86180500Y-115697648D01*
X86171964Y-115643757D01*
X86148477Y-115495465D01*
X86101920Y-115352179D01*
X86085220Y-115300781D01*
X86085218Y-115300778D01*
X86085218Y-115300776D01*
X86032443Y-115197201D01*
X85992287Y-115118390D01*
X85984556Y-115107749D01*
X85871971Y-114952786D01*
X85727213Y-114808028D01*
X85561614Y-114687715D01*
X85550307Y-114681954D01*
X85468917Y-114640483D01*
X85418123Y-114592511D01*
X85401328Y-114524690D01*
X85423865Y-114458555D01*
X85468917Y-114419516D01*
X85561610Y-114372287D01*
X85661400Y-114299786D01*
X85727213Y-114251971D01*
X85727215Y-114251968D01*
X85727219Y-114251966D01*
X85871966Y-114107219D01*
X85871968Y-114107215D01*
X85871971Y-114107213D01*
X85932485Y-114023921D01*
X85992287Y-113941610D01*
X86085220Y-113759219D01*
X86148477Y-113564534D01*
X86180500Y-113362352D01*
X86180500Y-113157648D01*
X86158927Y-113021446D01*
X86148477Y-112955465D01*
X86101920Y-112812179D01*
X86085220Y-112760781D01*
X86085218Y-112760778D01*
X86085218Y-112760776D01*
X86023787Y-112640213D01*
X85992287Y-112578390D01*
X85972146Y-112550668D01*
X85871971Y-112412786D01*
X85727213Y-112268028D01*
X85561613Y-112147715D01*
X85561612Y-112147714D01*
X85561610Y-112147713D01*
X85481724Y-112107009D01*
X85379223Y-112054781D01*
X85184534Y-111991522D01*
X85009995Y-111963878D01*
X84982352Y-111959500D01*
X84777648Y-111959500D01*
X84753329Y-111963351D01*
X84575465Y-111991522D01*
X84380776Y-112054781D01*
X84198386Y-112147715D01*
X84032786Y-112268028D01*
X83888028Y-112412786D01*
X83767715Y-112578386D01*
X83674781Y-112760776D01*
X83611522Y-112955465D01*
X83579500Y-113157648D01*
X83579500Y-113362351D01*
X83611522Y-113564534D01*
X83674781Y-113759223D01*
X83735411Y-113878213D01*
X83767585Y-113941359D01*
X83767715Y-113941613D01*
X83888028Y-114107213D01*
X84032786Y-114251971D01*
X84153226Y-114339474D01*
X84198390Y-114372287D01*
X84276274Y-114411971D01*
X84291080Y-114419515D01*
X84341876Y-114467490D01*
X84358671Y-114535311D01*
X84336134Y-114601446D01*
X84291080Y-114640485D01*
X84198386Y-114687715D01*
X84032786Y-114808028D01*
X83888028Y-114952786D01*
X83767715Y-115118386D01*
X83674781Y-115300776D01*
X83611522Y-115495465D01*
X83579500Y-115697648D01*
X83579500Y-115902351D01*
X83611522Y-116104534D01*
X83674781Y-116299223D01*
X83734028Y-116415499D01*
X83756306Y-116459223D01*
X83767715Y-116481613D01*
X83888028Y-116647213D01*
X84032786Y-116791971D01*
X84187749Y-116904556D01*
X84198390Y-116912287D01*
X84276274Y-116951971D01*
X84291080Y-116959515D01*
X84341876Y-117007490D01*
X84358671Y-117075311D01*
X84336134Y-117141446D01*
X84291080Y-117180485D01*
X84198386Y-117227715D01*
X84032786Y-117348028D01*
X83888028Y-117492786D01*
X83767715Y-117658386D01*
X83674781Y-117840776D01*
X83611522Y-118035465D01*
X83579500Y-118237648D01*
X83579500Y-118442351D01*
X83611522Y-118644534D01*
X83674781Y-118839223D01*
X83734354Y-118956139D01*
X83756306Y-118999223D01*
X83767715Y-119021613D01*
X83888028Y-119187213D01*
X84032786Y-119331971D01*
X84187749Y-119444556D01*
X84198390Y-119452287D01*
X84276274Y-119491971D01*
X84291080Y-119499515D01*
X84341876Y-119547490D01*
X84358671Y-119615311D01*
X84336134Y-119681446D01*
X84291080Y-119720485D01*
X84198386Y-119767715D01*
X84032786Y-119888028D01*
X83888028Y-120032786D01*
X83767715Y-120198386D01*
X83674781Y-120380776D01*
X83611522Y-120575465D01*
X83588035Y-120723760D01*
X83579500Y-120777648D01*
X83579500Y-120982352D01*
X83580573Y-120989125D01*
X83611523Y-121184535D01*
X83616172Y-121198845D01*
X83618165Y-121268687D01*
X83585921Y-121324841D01*
X81312181Y-123598582D01*
X81250858Y-123632067D01*
X81181166Y-123627083D01*
X81125233Y-123585211D01*
X81100816Y-123519747D01*
X81100500Y-123510901D01*
X81100500Y-123340946D01*
X81100500Y-123340943D01*
X81082117Y-123272334D01*
X81059577Y-123188215D01*
X81013526Y-123108453D01*
X80980520Y-123051284D01*
X80868716Y-122939480D01*
X80868715Y-122939479D01*
X80864385Y-122935149D01*
X80864374Y-122935139D01*
X79414077Y-121484842D01*
X79380592Y-121423519D01*
X79383828Y-121358841D01*
X79384672Y-121356243D01*
X79388477Y-121344534D01*
X79420500Y-121142352D01*
X79420500Y-120937648D01*
X79388477Y-120735466D01*
X79384673Y-120723760D01*
X79351475Y-120621585D01*
X79325220Y-120540781D01*
X79325218Y-120540778D01*
X79325218Y-120540776D01*
X79269884Y-120432179D01*
X79232287Y-120358390D01*
X79224556Y-120347749D01*
X79111971Y-120192786D01*
X78967213Y-120048028D01*
X78801614Y-119927715D01*
X78724538Y-119888443D01*
X78708917Y-119880483D01*
X78658123Y-119832511D01*
X78641328Y-119764690D01*
X78663865Y-119698555D01*
X78708917Y-119659516D01*
X78801610Y-119612287D01*
X78822770Y-119596913D01*
X78967213Y-119491971D01*
X78967215Y-119491968D01*
X78967219Y-119491966D01*
X79111966Y-119347219D01*
X79111968Y-119347215D01*
X79111971Y-119347213D01*
X79196067Y-119231463D01*
X79232287Y-119181610D01*
X79325220Y-118999219D01*
X79388477Y-118804534D01*
X79420500Y-118602352D01*
X79420500Y-118397648D01*
X79388477Y-118195466D01*
X79384673Y-118183760D01*
X79342888Y-118055157D01*
X79325220Y-118000781D01*
X79325218Y-118000778D01*
X79325218Y-118000776D01*
X79269884Y-117892179D01*
X79232287Y-117818390D01*
X79219769Y-117801160D01*
X79111971Y-117652786D01*
X78967213Y-117508028D01*
X78801614Y-117387715D01*
X78724538Y-117348443D01*
X78708917Y-117340483D01*
X78658123Y-117292511D01*
X78641328Y-117224690D01*
X78663865Y-117158555D01*
X78708917Y-117119516D01*
X78801610Y-117072287D01*
X78887032Y-117010225D01*
X78967213Y-116951971D01*
X78967215Y-116951968D01*
X78967219Y-116951966D01*
X79111966Y-116807219D01*
X79111968Y-116807215D01*
X79111971Y-116807213D01*
X79196067Y-116691463D01*
X79232287Y-116641610D01*
X79325220Y-116459219D01*
X79388477Y-116264534D01*
X79420500Y-116062352D01*
X79420500Y-115857648D01*
X79409297Y-115786917D01*
X79388477Y-115655465D01*
X79336490Y-115495466D01*
X79325220Y-115460781D01*
X79325218Y-115460778D01*
X79325218Y-115460776D01*
X79269884Y-115352179D01*
X79232287Y-115278390D01*
X79224556Y-115267749D01*
X79111971Y-115112786D01*
X78967213Y-114968028D01*
X78801614Y-114847715D01*
X78724538Y-114808443D01*
X78708917Y-114800483D01*
X78658123Y-114752511D01*
X78641328Y-114684690D01*
X78663865Y-114618555D01*
X78708917Y-114579516D01*
X78801610Y-114532287D01*
X78864134Y-114486861D01*
X78967213Y-114411971D01*
X78967215Y-114411968D01*
X78967219Y-114411966D01*
X79111966Y-114267219D01*
X79111968Y-114267215D01*
X79111971Y-114267213D01*
X79196067Y-114151463D01*
X79232287Y-114101610D01*
X79325220Y-113919219D01*
X79388477Y-113724534D01*
X79420500Y-113522352D01*
X79420500Y-113317648D01*
X79405130Y-113220606D01*
X79388477Y-113115465D01*
X79351475Y-113001585D01*
X79325220Y-112920781D01*
X79325218Y-112920778D01*
X79325218Y-112920776D01*
X79273865Y-112819991D01*
X79232287Y-112738390D01*
X79216894Y-112717203D01*
X79111971Y-112572786D01*
X78967213Y-112428028D01*
X78801613Y-112307715D01*
X78801612Y-112307714D01*
X78801610Y-112307713D01*
X78741898Y-112277288D01*
X78619223Y-112214781D01*
X78424534Y-112151522D01*
X78249995Y-112123878D01*
X78222352Y-112119500D01*
X78017648Y-112119500D01*
X77993329Y-112123351D01*
X77815465Y-112151522D01*
X77620776Y-112214781D01*
X77438386Y-112307715D01*
X77272786Y-112428028D01*
X77128028Y-112572786D01*
X77007715Y-112738386D01*
X76914781Y-112920776D01*
X76851522Y-113115465D01*
X76819500Y-113317648D01*
X76819500Y-113522351D01*
X76851522Y-113724534D01*
X76914781Y-113919223D01*
X76968128Y-114023921D01*
X77001115Y-114088661D01*
X77007715Y-114101613D01*
X77128028Y-114267213D01*
X77272786Y-114411971D01*
X77427544Y-114524407D01*
X77438390Y-114532287D01*
X77522313Y-114575048D01*
X77531080Y-114579515D01*
X77581876Y-114627490D01*
X77598671Y-114695311D01*
X77576134Y-114761446D01*
X77531080Y-114800485D01*
X77438386Y-114847715D01*
X77272786Y-114968028D01*
X77128028Y-115112786D01*
X77007715Y-115278386D01*
X76914781Y-115460776D01*
X76851522Y-115655465D01*
X76819500Y-115857648D01*
X76819500Y-116062351D01*
X76851522Y-116264534D01*
X76914781Y-116459223D01*
X77007715Y-116641613D01*
X77128028Y-116807213D01*
X77272786Y-116951971D01*
X77427749Y-117064556D01*
X77438390Y-117072287D01*
X77512891Y-117110247D01*
X77531080Y-117119515D01*
X77581876Y-117167490D01*
X77598671Y-117235311D01*
X77576134Y-117301446D01*
X77531080Y-117340485D01*
X77438386Y-117387715D01*
X77272786Y-117508028D01*
X77128028Y-117652786D01*
X77007715Y-117818386D01*
X76914781Y-118000776D01*
X76851522Y-118195465D01*
X76819500Y-118397648D01*
X76819500Y-118602351D01*
X76851522Y-118804534D01*
X76914781Y-118999223D01*
X77007715Y-119181613D01*
X77128028Y-119347213D01*
X77272786Y-119491971D01*
X77427749Y-119604556D01*
X77438390Y-119612287D01*
X77522313Y-119655048D01*
X77531080Y-119659515D01*
X77581876Y-119707490D01*
X77598671Y-119775311D01*
X77576134Y-119841446D01*
X77531080Y-119880485D01*
X77438386Y-119927715D01*
X77272786Y-120048028D01*
X77128028Y-120192786D01*
X77007715Y-120358386D01*
X76914781Y-120540776D01*
X76851522Y-120735465D01*
X76819500Y-120937648D01*
X76819500Y-121142351D01*
X76851522Y-121344534D01*
X76914781Y-121539223D01*
X77007715Y-121721613D01*
X77128028Y-121887213D01*
X77272786Y-122031971D01*
X77427749Y-122144556D01*
X77438390Y-122152287D01*
X77519383Y-122193555D01*
X77531080Y-122199515D01*
X77581876Y-122247490D01*
X77598671Y-122315311D01*
X77576134Y-122381446D01*
X77531080Y-122420485D01*
X77438386Y-122467715D01*
X77272786Y-122588028D01*
X77128028Y-122732786D01*
X77007715Y-122898386D01*
X76914781Y-123080776D01*
X76851522Y-123275465D01*
X76826627Y-123432648D01*
X76819500Y-123477648D01*
X76819500Y-123682352D01*
X76823005Y-123704480D01*
X76851522Y-123884534D01*
X76914781Y-124079223D01*
X77007715Y-124261613D01*
X77128028Y-124427213D01*
X77272786Y-124571971D01*
X77376448Y-124647284D01*
X77438390Y-124692287D01*
X77519383Y-124733555D01*
X77531080Y-124739515D01*
X77581876Y-124787490D01*
X77598671Y-124855311D01*
X77576134Y-124921446D01*
X77531080Y-124960485D01*
X77438386Y-125007715D01*
X77272786Y-125128028D01*
X77128028Y-125272786D01*
X77007715Y-125438386D01*
X76914781Y-125620776D01*
X76851522Y-125815465D01*
X76819500Y-126017648D01*
X76819500Y-126222351D01*
X76851522Y-126424534D01*
X76914781Y-126619223D01*
X77007715Y-126801613D01*
X77128028Y-126967213D01*
X77272786Y-127111971D01*
X77402492Y-127206206D01*
X77438390Y-127232287D01*
X77519383Y-127273555D01*
X77531080Y-127279515D01*
X77581876Y-127327490D01*
X77598671Y-127395311D01*
X77576134Y-127461446D01*
X77531080Y-127500485D01*
X77438386Y-127547715D01*
X77272786Y-127668028D01*
X77128028Y-127812786D01*
X77007715Y-127978386D01*
X76914781Y-128160776D01*
X76851522Y-128355465D01*
X76819500Y-128557648D01*
X76819500Y-128762351D01*
X76851522Y-128964534D01*
X76914781Y-129159223D01*
X76975512Y-129278412D01*
X77007585Y-129341359D01*
X77007715Y-129341613D01*
X77128028Y-129507213D01*
X77272786Y-129651971D01*
X77418326Y-129757710D01*
X77438390Y-129772287D01*
X77554607Y-129831503D01*
X77620776Y-129865218D01*
X77620778Y-129865218D01*
X77620781Y-129865220D01*
X77681501Y-129884949D01*
X77815465Y-129928477D01*
X77916557Y-129944488D01*
X78017648Y-129960500D01*
X78017649Y-129960500D01*
X78222351Y-129960500D01*
X78222352Y-129960500D01*
X78424534Y-129928477D01*
X78619219Y-129865220D01*
X78801610Y-129772287D01*
X78932669Y-129677068D01*
X78967213Y-129651971D01*
X78967215Y-129651968D01*
X78967219Y-129651966D01*
X79111966Y-129507219D01*
X79111968Y-129507215D01*
X79111971Y-129507213D01*
X79183864Y-129408259D01*
X79232287Y-129341610D01*
X79325220Y-129159219D01*
X79388477Y-128964534D01*
X79420500Y-128762352D01*
X79420500Y-128557648D01*
X79403416Y-128449786D01*
X79388477Y-128355465D01*
X79342868Y-128215096D01*
X79325220Y-128160781D01*
X79325218Y-128160778D01*
X79325218Y-128160776D01*
X79250936Y-128014991D01*
X79232287Y-127978390D01*
X79200092Y-127934077D01*
X79111971Y-127812786D01*
X78967213Y-127668028D01*
X78801614Y-127547715D01*
X78791410Y-127542516D01*
X78708917Y-127500483D01*
X78658123Y-127452511D01*
X78641328Y-127384690D01*
X78663865Y-127318555D01*
X78708917Y-127279516D01*
X78801610Y-127232287D01*
X78837508Y-127206206D01*
X78967213Y-127111971D01*
X78967215Y-127111968D01*
X78967219Y-127111966D01*
X79111966Y-126967219D01*
X79111968Y-126967215D01*
X79111971Y-126967213D01*
X79196067Y-126851463D01*
X79232287Y-126801610D01*
X79325220Y-126619219D01*
X79388477Y-126424534D01*
X79420500Y-126222352D01*
X79420500Y-126017648D01*
X79411369Y-125959999D01*
X79388477Y-125815465D01*
X79351475Y-125701585D01*
X79325220Y-125620781D01*
X79325218Y-125620778D01*
X79325218Y-125620776D01*
X79269884Y-125512179D01*
X79232287Y-125438390D01*
X79199590Y-125393386D01*
X79111971Y-125272786D01*
X78967213Y-125128028D01*
X78801614Y-125007715D01*
X78724538Y-124968443D01*
X78708917Y-124960483D01*
X78658123Y-124912511D01*
X78641328Y-124844690D01*
X78663865Y-124778555D01*
X78708917Y-124739516D01*
X78801610Y-124692287D01*
X78890411Y-124627770D01*
X78967213Y-124571971D01*
X78967215Y-124571968D01*
X78967219Y-124571966D01*
X79111966Y-124427219D01*
X79111968Y-124427215D01*
X79111971Y-124427213D01*
X79215293Y-124285000D01*
X79232287Y-124261610D01*
X79325220Y-124079219D01*
X79388477Y-123884534D01*
X79420500Y-123682352D01*
X79420500Y-123489097D01*
X79440185Y-123422058D01*
X79492989Y-123376303D01*
X79562147Y-123366359D01*
X79625703Y-123395384D01*
X79632181Y-123401416D01*
X79863181Y-123632416D01*
X79896666Y-123693739D01*
X79899500Y-123720097D01*
X79899500Y-131199902D01*
X79879815Y-131266941D01*
X79863181Y-131287583D01*
X77287584Y-133863181D01*
X77226261Y-133896666D01*
X77199903Y-133899500D01*
X56800097Y-133899500D01*
X56733058Y-133879815D01*
X56712416Y-133863181D01*
X55136819Y-132287584D01*
X55103334Y-132226261D01*
X55100500Y-132199903D01*
X55100500Y-130605096D01*
X55120185Y-130538057D01*
X55136815Y-130517419D01*
X55745158Y-129909075D01*
X55806479Y-129875592D01*
X55871151Y-129878825D01*
X55885466Y-129883477D01*
X55885471Y-129883477D01*
X55885472Y-129883478D01*
X55933744Y-129891123D01*
X56087648Y-129915500D01*
X56087649Y-129915500D01*
X56292351Y-129915500D01*
X56292352Y-129915500D01*
X56494534Y-129883477D01*
X56689219Y-129820220D01*
X56871610Y-129727287D01*
X56964891Y-129659515D01*
X57037213Y-129606971D01*
X57037215Y-129606968D01*
X57037219Y-129606966D01*
X57181966Y-129462219D01*
X57181968Y-129462215D01*
X57181971Y-129462213D01*
X57237399Y-129385921D01*
X57302287Y-129296610D01*
X57395220Y-129114219D01*
X57458477Y-128919534D01*
X57490500Y-128717352D01*
X57490500Y-128512648D01*
X57488497Y-128499999D01*
X57458477Y-128310465D01*
X57408180Y-128155669D01*
X57395220Y-128115781D01*
X57395218Y-128115778D01*
X57395218Y-128115776D01*
X57343865Y-128014991D01*
X57302287Y-127933390D01*
X57265471Y-127882717D01*
X57181969Y-127767784D01*
X57037213Y-127623028D01*
X56871614Y-127502715D01*
X56836242Y-127484692D01*
X56778917Y-127455483D01*
X56728123Y-127407511D01*
X56711328Y-127339690D01*
X56733865Y-127273555D01*
X56778917Y-127234516D01*
X56871610Y-127187287D01*
X56911157Y-127158555D01*
X57037213Y-127066971D01*
X57037215Y-127066968D01*
X57037219Y-127066966D01*
X57181966Y-126922219D01*
X57181968Y-126922215D01*
X57181971Y-126922213D01*
X57234732Y-126849590D01*
X57302287Y-126756610D01*
X57395220Y-126574219D01*
X57458477Y-126379534D01*
X57490500Y-126177352D01*
X57490500Y-125972648D01*
X57472291Y-125857682D01*
X57458477Y-125770465D01*
X57409840Y-125620776D01*
X57395220Y-125575781D01*
X57395218Y-125575778D01*
X57395218Y-125575776D01*
X57361503Y-125509607D01*
X57302287Y-125393390D01*
X57263652Y-125340213D01*
X57181971Y-125227786D01*
X57037213Y-125083028D01*
X56871614Y-124962715D01*
X56859397Y-124956490D01*
X56778917Y-124915483D01*
X56728123Y-124867511D01*
X56711328Y-124799690D01*
X56733865Y-124733555D01*
X56778917Y-124694516D01*
X56871610Y-124647287D01*
X56922782Y-124610109D01*
X57037213Y-124526971D01*
X57037215Y-124526968D01*
X57037219Y-124526966D01*
X57181966Y-124382219D01*
X57181968Y-124382215D01*
X57181971Y-124382213D01*
X57260548Y-124274059D01*
X57302287Y-124216610D01*
X57395220Y-124034219D01*
X57458477Y-123839534D01*
X57490500Y-123637352D01*
X57490500Y-123432648D01*
X57481576Y-123376303D01*
X57458477Y-123230465D01*
X57418833Y-123108454D01*
X57395220Y-123035781D01*
X57395218Y-123035778D01*
X57395218Y-123035776D01*
X57337848Y-122923183D01*
X57302287Y-122853390D01*
X57294556Y-122842749D01*
X57181971Y-122687786D01*
X57037213Y-122543028D01*
X56871614Y-122422715D01*
X56849338Y-122411365D01*
X56778917Y-122375483D01*
X56728123Y-122327511D01*
X56711328Y-122259690D01*
X56733865Y-122193555D01*
X56778917Y-122154516D01*
X56871610Y-122107287D01*
X56922782Y-122070109D01*
X57037213Y-121986971D01*
X57037215Y-121986968D01*
X57037219Y-121986966D01*
X57181966Y-121842219D01*
X57181968Y-121842215D01*
X57181971Y-121842213D01*
X57234732Y-121769590D01*
X57302287Y-121676610D01*
X57395220Y-121494219D01*
X57458477Y-121299534D01*
X57490500Y-121097352D01*
X57490500Y-120892648D01*
X57458477Y-120690466D01*
X57458475Y-120690462D01*
X57458475Y-120690457D01*
X57447545Y-120656817D01*
X57445550Y-120586976D01*
X57481631Y-120527144D01*
X57544332Y-120496316D01*
X57565476Y-120494500D01*
X59868903Y-120494500D01*
X59935942Y-120514185D01*
X59956584Y-120530819D01*
X62515921Y-123090157D01*
X62549406Y-123151480D01*
X62546173Y-123216149D01*
X62541523Y-123230460D01*
X62541523Y-123230462D01*
X62509500Y-123432648D01*
X62509500Y-123637351D01*
X62541522Y-123839534D01*
X62604781Y-124034223D01*
X62697715Y-124216613D01*
X62818028Y-124382213D01*
X62962786Y-124526971D01*
X63101527Y-124627770D01*
X63128390Y-124647287D01*
X63216707Y-124692287D01*
X63221080Y-124694515D01*
X63271876Y-124742490D01*
X63288671Y-124810311D01*
X63266134Y-124876446D01*
X63221080Y-124915485D01*
X63128386Y-124962715D01*
X62962786Y-125083028D01*
X62818028Y-125227786D01*
X62697715Y-125393386D01*
X62604781Y-125575776D01*
X62541522Y-125770465D01*
X62509500Y-125972648D01*
X62509500Y-126177351D01*
X62541522Y-126379534D01*
X62604781Y-126574223D01*
X62697715Y-126756613D01*
X62818028Y-126922213D01*
X62818034Y-126922219D01*
X62962781Y-127066966D01*
X63056452Y-127135021D01*
X63099117Y-127190350D01*
X63105096Y-127259963D01*
X63072491Y-127321759D01*
X63022571Y-127353045D01*
X62940666Y-127380186D01*
X62940663Y-127380187D01*
X62791342Y-127472289D01*
X62667289Y-127596342D01*
X62575187Y-127745663D01*
X62575185Y-127745668D01*
X62552946Y-127812781D01*
X62520001Y-127912203D01*
X62520001Y-127912204D01*
X62520000Y-127912204D01*
X62509500Y-128014983D01*
X62509500Y-129215001D01*
X62509501Y-129215018D01*
X62520000Y-129317796D01*
X62520001Y-129317799D01*
X62575185Y-129484331D01*
X62575187Y-129484336D01*
X62589298Y-129507213D01*
X62667288Y-129633656D01*
X62791344Y-129757712D01*
X62940666Y-129849814D01*
X63107203Y-129904999D01*
X63209991Y-129915500D01*
X64410008Y-129915499D01*
X64414404Y-129915050D01*
X64427895Y-129913671D01*
X64512797Y-129904999D01*
X64679334Y-129849814D01*
X64828656Y-129757712D01*
X64952712Y-129633656D01*
X65044814Y-129484334D01*
X65099999Y-129317797D01*
X65110500Y-129215009D01*
X65110499Y-128215095D01*
X65119143Y-128185655D01*
X65125667Y-128155669D01*
X65129421Y-128150653D01*
X65130184Y-128148057D01*
X65146813Y-128127420D01*
X65269506Y-128004728D01*
X65269511Y-128004724D01*
X65279714Y-127994520D01*
X65279716Y-127994520D01*
X65391520Y-127882716D01*
X65457877Y-127767781D01*
X65470577Y-127745785D01*
X65511500Y-127593057D01*
X65511500Y-127434943D01*
X65511500Y-123168009D01*
X65511501Y-123167996D01*
X65511501Y-122999895D01*
X65511501Y-122999893D01*
X65470577Y-122847165D01*
X65432946Y-122781987D01*
X65432946Y-122781986D01*
X65391522Y-122710237D01*
X65391521Y-122710236D01*
X65391520Y-122710234D01*
X65279716Y-122598430D01*
X65279715Y-122598429D01*
X65275385Y-122594099D01*
X65275374Y-122594089D01*
X64753640Y-122072355D01*
X64750402Y-122069117D01*
X64740865Y-122051644D01*
X64738147Y-122053457D01*
X64738145Y-122053454D01*
X64740863Y-122051641D01*
X64731855Y-122035138D01*
X64716931Y-122007807D01*
X64716931Y-122007796D01*
X64716927Y-122007788D01*
X64719660Y-121969650D01*
X64721915Y-121938115D01*
X64721921Y-121938105D01*
X64721922Y-121938097D01*
X64721954Y-121938053D01*
X64750415Y-121893768D01*
X64801966Y-121842219D01*
X64801968Y-121842215D01*
X64801971Y-121842213D01*
X64854732Y-121769590D01*
X64922287Y-121676610D01*
X65015220Y-121494219D01*
X65078477Y-121299534D01*
X65110500Y-121097352D01*
X65110500Y-120892648D01*
X65078477Y-120690466D01*
X65078475Y-120690462D01*
X65078475Y-120690457D01*
X65067545Y-120656817D01*
X65065550Y-120586976D01*
X65101631Y-120527144D01*
X65164332Y-120496316D01*
X65185476Y-120494500D01*
X66513903Y-120494500D01*
X66580942Y-120514185D01*
X66601584Y-120530819D01*
X69205922Y-123135157D01*
X69239407Y-123196480D01*
X69236173Y-123261154D01*
X69234365Y-123266717D01*
X69231522Y-123275468D01*
X69211574Y-123401416D01*
X69199500Y-123477648D01*
X69199500Y-123682352D01*
X69203005Y-123704480D01*
X69231522Y-123884534D01*
X69294781Y-124079223D01*
X69387715Y-124261613D01*
X69508028Y-124427213D01*
X69652786Y-124571971D01*
X69756448Y-124647284D01*
X69818390Y-124692287D01*
X69899383Y-124733555D01*
X69911080Y-124739515D01*
X69961876Y-124787490D01*
X69978671Y-124855311D01*
X69956134Y-124921446D01*
X69911080Y-124960485D01*
X69818386Y-125007715D01*
X69652786Y-125128028D01*
X69508028Y-125272786D01*
X69387715Y-125438386D01*
X69294781Y-125620776D01*
X69231522Y-125815465D01*
X69199500Y-126017648D01*
X69199500Y-126222351D01*
X69231522Y-126424534D01*
X69294781Y-126619223D01*
X69387715Y-126801613D01*
X69508028Y-126967213D01*
X69652786Y-127111971D01*
X69818385Y-127232284D01*
X69818387Y-127232285D01*
X69818390Y-127232287D01*
X69899383Y-127273555D01*
X69911630Y-127279795D01*
X69962426Y-127327770D01*
X69979221Y-127395591D01*
X69956684Y-127461725D01*
X69911630Y-127500765D01*
X69818644Y-127548143D01*
X69774077Y-127580523D01*
X69774077Y-127580524D01*
X70453554Y-128260000D01*
X70447339Y-128260000D01*
X70345606Y-128287259D01*
X70254394Y-128339920D01*
X70179920Y-128414394D01*
X70127259Y-128505606D01*
X70100000Y-128607339D01*
X70100000Y-128613553D01*
X69420524Y-127934077D01*
X69420523Y-127934077D01*
X69388143Y-127978644D01*
X69295244Y-128160968D01*
X69232009Y-128355582D01*
X69200000Y-128557682D01*
X69200000Y-128762317D01*
X69232009Y-128964417D01*
X69295244Y-129159031D01*
X69388141Y-129341350D01*
X69388147Y-129341359D01*
X69420523Y-129385921D01*
X69420524Y-129385922D01*
X70100000Y-128706446D01*
X70100000Y-128712661D01*
X70127259Y-128814394D01*
X70179920Y-128905606D01*
X70254394Y-128980080D01*
X70345606Y-129032741D01*
X70447339Y-129060000D01*
X70453553Y-129060000D01*
X69774076Y-129739474D01*
X69818650Y-129771859D01*
X70000968Y-129864755D01*
X70195582Y-129927990D01*
X70397683Y-129960000D01*
X70602317Y-129960000D01*
X70804417Y-129927990D01*
X70999031Y-129864755D01*
X71181349Y-129771859D01*
X71225921Y-129739474D01*
X70546447Y-129060000D01*
X70552661Y-129060000D01*
X70654394Y-129032741D01*
X70745606Y-128980080D01*
X70820080Y-128905606D01*
X70872741Y-128814394D01*
X70900000Y-128712661D01*
X70900000Y-128706447D01*
X71579474Y-129385921D01*
X71611859Y-129341349D01*
X71704755Y-129159031D01*
X71767990Y-128964417D01*
X71800000Y-128762317D01*
X71800000Y-128557682D01*
X71767990Y-128355582D01*
X71704755Y-128160968D01*
X71611859Y-127978650D01*
X71579474Y-127934077D01*
X71579474Y-127934076D01*
X70900000Y-128613551D01*
X70900000Y-128607339D01*
X70872741Y-128505606D01*
X70820080Y-128414394D01*
X70745606Y-128339920D01*
X70654394Y-128287259D01*
X70552661Y-128260000D01*
X70546446Y-128260000D01*
X71225922Y-127580524D01*
X71225921Y-127580523D01*
X71181359Y-127548147D01*
X71181350Y-127548141D01*
X71088369Y-127500765D01*
X71037573Y-127452790D01*
X71020778Y-127384969D01*
X71043315Y-127318835D01*
X71088370Y-127279795D01*
X71100617Y-127273555D01*
X71181610Y-127232287D01*
X71273921Y-127165220D01*
X71347213Y-127111971D01*
X71347215Y-127111968D01*
X71347219Y-127111966D01*
X71491966Y-126967219D01*
X71491968Y-126967215D01*
X71491971Y-126967213D01*
X71576067Y-126851463D01*
X71612287Y-126801610D01*
X71705220Y-126619219D01*
X71768477Y-126424534D01*
X71800500Y-126222352D01*
X71800500Y-126017648D01*
X71791369Y-125959999D01*
X71768477Y-125815465D01*
X71731475Y-125701585D01*
X71705220Y-125620781D01*
X71705218Y-125620778D01*
X71705218Y-125620776D01*
X71649884Y-125512179D01*
X71612287Y-125438390D01*
X71579590Y-125393386D01*
X71491971Y-125272786D01*
X71347213Y-125128028D01*
X71181614Y-125007715D01*
X71104538Y-124968443D01*
X71088917Y-124960483D01*
X71038123Y-124912511D01*
X71021328Y-124844690D01*
X71043865Y-124778555D01*
X71088917Y-124739516D01*
X71181610Y-124692287D01*
X71270411Y-124627770D01*
X71347213Y-124571971D01*
X71347215Y-124571968D01*
X71347219Y-124571966D01*
X71491966Y-124427219D01*
X71491968Y-124427215D01*
X71491971Y-124427213D01*
X71595293Y-124285000D01*
X71612287Y-124261610D01*
X71705220Y-124079219D01*
X71768477Y-123884534D01*
X71800500Y-123682352D01*
X71800500Y-123477648D01*
X71788426Y-123401416D01*
X71768477Y-123275465D01*
X71730312Y-123158007D01*
X71705220Y-123080781D01*
X71705218Y-123080778D01*
X71705218Y-123080776D01*
X71633222Y-122939478D01*
X71612287Y-122898390D01*
X71604556Y-122887749D01*
X71491971Y-122732786D01*
X71347213Y-122588028D01*
X71181614Y-122467715D01*
X71175006Y-122464348D01*
X71088917Y-122420483D01*
X71038123Y-122372511D01*
X71021328Y-122304690D01*
X71043865Y-122238555D01*
X71088917Y-122199516D01*
X71181610Y-122152287D01*
X71243552Y-122107284D01*
X71347213Y-122031971D01*
X71347215Y-122031968D01*
X71347219Y-122031966D01*
X71491966Y-121887219D01*
X71491968Y-121887215D01*
X71491971Y-121887213D01*
X71576067Y-121771463D01*
X71612287Y-121721610D01*
X71705220Y-121539219D01*
X71768477Y-121344534D01*
X71800500Y-121142352D01*
X71800500Y-120937648D01*
X71768477Y-120735466D01*
X71764673Y-120723760D01*
X71731475Y-120621585D01*
X71705220Y-120540781D01*
X71705218Y-120540778D01*
X71705218Y-120540776D01*
X71649884Y-120432179D01*
X71612287Y-120358390D01*
X71604556Y-120347749D01*
X71491971Y-120192786D01*
X71347213Y-120048028D01*
X71181614Y-119927715D01*
X71104538Y-119888443D01*
X71088917Y-119880483D01*
X71038123Y-119832511D01*
X71021328Y-119764690D01*
X71043865Y-119698555D01*
X71088917Y-119659516D01*
X71181610Y-119612287D01*
X71202770Y-119596913D01*
X71347213Y-119491971D01*
X71347215Y-119491968D01*
X71347219Y-119491966D01*
X71491966Y-119347219D01*
X71491968Y-119347215D01*
X71491971Y-119347213D01*
X71576067Y-119231463D01*
X71612287Y-119181610D01*
X71705220Y-118999219D01*
X71768477Y-118804534D01*
X71800500Y-118602352D01*
X71800500Y-118397648D01*
X71768477Y-118195466D01*
X71764673Y-118183760D01*
X71722888Y-118055157D01*
X71705220Y-118000781D01*
X71705218Y-118000778D01*
X71705218Y-118000776D01*
X71649884Y-117892179D01*
X71612287Y-117818390D01*
X71599769Y-117801160D01*
X71491971Y-117652786D01*
X71347213Y-117508028D01*
X71181614Y-117387715D01*
X71104538Y-117348443D01*
X71088917Y-117340483D01*
X71038123Y-117292511D01*
X71021328Y-117224690D01*
X71043865Y-117158555D01*
X71088917Y-117119516D01*
X71181610Y-117072287D01*
X71267032Y-117010225D01*
X71347213Y-116951971D01*
X71347215Y-116951968D01*
X71347219Y-116951966D01*
X71491966Y-116807219D01*
X71491968Y-116807215D01*
X71491971Y-116807213D01*
X71576067Y-116691463D01*
X71612287Y-116641610D01*
X71705220Y-116459219D01*
X71768477Y-116264534D01*
X71800500Y-116062352D01*
X71800500Y-115857648D01*
X71789297Y-115786917D01*
X71768477Y-115655465D01*
X71716490Y-115495466D01*
X71705220Y-115460781D01*
X71705218Y-115460778D01*
X71705218Y-115460776D01*
X71649884Y-115352179D01*
X71612287Y-115278390D01*
X71604556Y-115267749D01*
X71491971Y-115112786D01*
X71347219Y-114968034D01*
X71266964Y-114909726D01*
X71253547Y-114899978D01*
X71210882Y-114844649D01*
X71204903Y-114775036D01*
X71237508Y-114713240D01*
X71287426Y-114681955D01*
X71369334Y-114654814D01*
X71518656Y-114562712D01*
X71642712Y-114438656D01*
X71734814Y-114289334D01*
X71789999Y-114122797D01*
X71800500Y-114020009D01*
X71800499Y-112949095D01*
X71820183Y-112882057D01*
X71872987Y-112836302D01*
X71942146Y-112826358D01*
X72005702Y-112855383D01*
X72012168Y-112861404D01*
X72354522Y-113203757D01*
X72863181Y-113712416D01*
X72896666Y-113773739D01*
X72899500Y-113800097D01*
X72899500Y-120920234D01*
X72879815Y-120987273D01*
X72878602Y-120989125D01*
X72790609Y-121120814D01*
X72790602Y-121120827D01*
X72730264Y-121266498D01*
X72730261Y-121266510D01*
X72699500Y-121421153D01*
X72699500Y-121578846D01*
X72730261Y-121733489D01*
X72730264Y-121733501D01*
X72790602Y-121879172D01*
X72790609Y-121879185D01*
X72878210Y-122010288D01*
X72878213Y-122010292D01*
X72989707Y-122121786D01*
X72989711Y-122121789D01*
X73120814Y-122209390D01*
X73120827Y-122209397D01*
X73266498Y-122269735D01*
X73266503Y-122269737D01*
X73421153Y-122300499D01*
X73421156Y-122300500D01*
X73421158Y-122300500D01*
X73578844Y-122300500D01*
X73578845Y-122300499D01*
X73733497Y-122269737D01*
X73879179Y-122209394D01*
X74010289Y-122121789D01*
X74121789Y-122010289D01*
X74209394Y-121879179D01*
X74269737Y-121733497D01*
X74300500Y-121578842D01*
X74300500Y-121421158D01*
X74300500Y-121421155D01*
X74300499Y-121421153D01*
X74293047Y-121383690D01*
X74269737Y-121266503D01*
X74269735Y-121266498D01*
X74209397Y-121120827D01*
X74209390Y-121120814D01*
X74121398Y-120989125D01*
X74100520Y-120922447D01*
X74100500Y-120920234D01*
X74100500Y-113589060D01*
X74100501Y-113589047D01*
X74100501Y-113420944D01*
X74098746Y-113414394D01*
X74059577Y-113268216D01*
X73995761Y-113157682D01*
X73980524Y-113131290D01*
X73980518Y-113131282D01*
X68247819Y-107398583D01*
X68214334Y-107337260D01*
X68211500Y-107310902D01*
X68211500Y-91816290D01*
X68231185Y-91749251D01*
X68283989Y-91703496D01*
X68353147Y-91693552D01*
X68391793Y-91705804D01*
X68481588Y-91751557D01*
X68683757Y-91817246D01*
X68893713Y-91850500D01*
X68893714Y-91850500D01*
X69106286Y-91850500D01*
X69106287Y-91850500D01*
X69316243Y-91817246D01*
X69518412Y-91751557D01*
X69707816Y-91655051D01*
X69812707Y-91578844D01*
X69879786Y-91530109D01*
X69879788Y-91530106D01*
X69879792Y-91530104D01*
X70030104Y-91379792D01*
X70030106Y-91379788D01*
X70030109Y-91379786D01*
X70155048Y-91207820D01*
X70155047Y-91207820D01*
X70155051Y-91207816D01*
X70251557Y-91018412D01*
X70317246Y-90816243D01*
X70350500Y-90606287D01*
X70350500Y-90393713D01*
X70317246Y-90183757D01*
X70251557Y-89981588D01*
X70155051Y-89792184D01*
X70155049Y-89792181D01*
X70155048Y-89792179D01*
X70030109Y-89620213D01*
X69879786Y-89469890D01*
X69707820Y-89344951D01*
X69707115Y-89344591D01*
X69699054Y-89340485D01*
X69648259Y-89292512D01*
X69631463Y-89224692D01*
X69653999Y-89158556D01*
X69699054Y-89119515D01*
X69707816Y-89115051D01*
X69808674Y-89041774D01*
X69879786Y-88990109D01*
X69879788Y-88990106D01*
X69879792Y-88990104D01*
X70030104Y-88839792D01*
X70030106Y-88839788D01*
X70030109Y-88839786D01*
X70155048Y-88667820D01*
X70155050Y-88667817D01*
X70155051Y-88667816D01*
X70251557Y-88478412D01*
X70317246Y-88276243D01*
X70350500Y-88066287D01*
X70350500Y-87853713D01*
X70317246Y-87643757D01*
X70293870Y-87571816D01*
X70291876Y-87501977D01*
X70327956Y-87442144D01*
X70390657Y-87411316D01*
X70411802Y-87409500D01*
X71088198Y-87409500D01*
X71155237Y-87429185D01*
X71200992Y-87481989D01*
X71210936Y-87551147D01*
X71206130Y-87571812D01*
X71196457Y-87601585D01*
X71182753Y-87643760D01*
X71149500Y-87853713D01*
X71149500Y-88066286D01*
X71174841Y-88226287D01*
X71182754Y-88276243D01*
X71237431Y-88444522D01*
X71248444Y-88478414D01*
X71344951Y-88667820D01*
X71469890Y-88839786D01*
X71620213Y-88990109D01*
X71792182Y-89115050D01*
X71800946Y-89119516D01*
X71851742Y-89167491D01*
X71868536Y-89235312D01*
X71845998Y-89301447D01*
X71800946Y-89340484D01*
X71792182Y-89344949D01*
X71620213Y-89469890D01*
X71469890Y-89620213D01*
X71344951Y-89792179D01*
X71248444Y-89981585D01*
X71182753Y-90183760D01*
X71149500Y-90393713D01*
X71149500Y-90606286D01*
X71179745Y-90797249D01*
X71182754Y-90816243D01*
X71239117Y-90989711D01*
X71248444Y-91018414D01*
X71344951Y-91207820D01*
X71469890Y-91379786D01*
X71620213Y-91530109D01*
X71792179Y-91655048D01*
X71792181Y-91655049D01*
X71792184Y-91655051D01*
X71981588Y-91751557D01*
X72183757Y-91817246D01*
X72393713Y-91850500D01*
X72393714Y-91850500D01*
X72606286Y-91850500D01*
X72606287Y-91850500D01*
X72816243Y-91817246D01*
X73018412Y-91751557D01*
X73207816Y-91655051D01*
X73312707Y-91578844D01*
X73379786Y-91530109D01*
X73379788Y-91530106D01*
X73379792Y-91530104D01*
X73530104Y-91379792D01*
X73530106Y-91379788D01*
X73530109Y-91379786D01*
X73655048Y-91207820D01*
X73655047Y-91207820D01*
X73655051Y-91207816D01*
X73751557Y-91018412D01*
X73817246Y-90816243D01*
X73850500Y-90606287D01*
X73850500Y-90459097D01*
X73870185Y-90392058D01*
X73922989Y-90346303D01*
X73992147Y-90336359D01*
X74055703Y-90365384D01*
X74062181Y-90371416D01*
X75555139Y-91864374D01*
X75555149Y-91864385D01*
X75559479Y-91868715D01*
X75559480Y-91868716D01*
X75671284Y-91980520D01*
X75758095Y-92030639D01*
X75808215Y-92059577D01*
X75944409Y-92096070D01*
X75949400Y-92097878D01*
X75958566Y-92104604D01*
X75985843Y-92118615D01*
X75989710Y-92121789D01*
X76120814Y-92209390D01*
X76120827Y-92209397D01*
X76215799Y-92248735D01*
X76266503Y-92269737D01*
X76419127Y-92300096D01*
X76421153Y-92300499D01*
X76421156Y-92300500D01*
X76421158Y-92300500D01*
X76578844Y-92300500D01*
X76578845Y-92300499D01*
X76733497Y-92269737D01*
X76879179Y-92209394D01*
X77010289Y-92121789D01*
X77121789Y-92010289D01*
X77209394Y-91879179D01*
X77269737Y-91733497D01*
X77300500Y-91578842D01*
X77300500Y-91421158D01*
X77300500Y-91421155D01*
X77300499Y-91421153D01*
X77292272Y-91379792D01*
X77269737Y-91266503D01*
X77233249Y-91178412D01*
X77209397Y-91120827D01*
X77209390Y-91120814D01*
X77121789Y-90989711D01*
X77121786Y-90989707D01*
X77010292Y-90878213D01*
X77010288Y-90878210D01*
X76879185Y-90790609D01*
X76879172Y-90790602D01*
X76733501Y-90730264D01*
X76733489Y-90730261D01*
X76578845Y-90699500D01*
X76578842Y-90699500D01*
X76421158Y-90699500D01*
X76421155Y-90699500D01*
X76266505Y-90730261D01*
X76266497Y-90730264D01*
X76239098Y-90741613D01*
X76169629Y-90749080D01*
X76107150Y-90717804D01*
X76103967Y-90714732D01*
X75901416Y-90512181D01*
X75867931Y-90450858D01*
X75872915Y-90381166D01*
X75914787Y-90325233D01*
X75980251Y-90300816D01*
X75989097Y-90300500D01*
X76078844Y-90300500D01*
X76078845Y-90300499D01*
X76233497Y-90269737D01*
X76379179Y-90209394D01*
X76510289Y-90121789D01*
X76621789Y-90010289D01*
X76709394Y-89879179D01*
X76769737Y-89733497D01*
X76800500Y-89578842D01*
X76800500Y-89421158D01*
X76800500Y-89421155D01*
X76800499Y-89421153D01*
X76776688Y-89301447D01*
X76769737Y-89266503D01*
X76762256Y-89248443D01*
X76709397Y-89120827D01*
X76709390Y-89120814D01*
X76621789Y-88989711D01*
X76621786Y-88989707D01*
X76510292Y-88878213D01*
X76510288Y-88878210D01*
X76379185Y-88790609D01*
X76379172Y-88790602D01*
X76233501Y-88730264D01*
X76233491Y-88730261D01*
X76078151Y-88699362D01*
X76016241Y-88666977D01*
X76014662Y-88665426D01*
X75135555Y-87786319D01*
X74035767Y-86686532D01*
X73951390Y-86602155D01*
X85990000Y-86602155D01*
X85990000Y-87250000D01*
X86906988Y-87250000D01*
X86874075Y-87307007D01*
X86840000Y-87434174D01*
X86840000Y-87565826D01*
X86874075Y-87692993D01*
X86906988Y-87750000D01*
X85990000Y-87750000D01*
X85990000Y-88397844D01*
X85996401Y-88457372D01*
X85996403Y-88457379D01*
X86046645Y-88592086D01*
X86046649Y-88592093D01*
X86132809Y-88707187D01*
X86132812Y-88707190D01*
X86247906Y-88793350D01*
X86247913Y-88793354D01*
X86382620Y-88843596D01*
X86382627Y-88843598D01*
X86442155Y-88849999D01*
X86442172Y-88850000D01*
X87090000Y-88850000D01*
X87090000Y-87933012D01*
X87147007Y-87965925D01*
X87274174Y-88000000D01*
X87405826Y-88000000D01*
X87532993Y-87965925D01*
X87590000Y-87933012D01*
X87590000Y-88850000D01*
X88237828Y-88850000D01*
X88237844Y-88849999D01*
X88297372Y-88843598D01*
X88297379Y-88843596D01*
X88432086Y-88793354D01*
X88432093Y-88793350D01*
X88547187Y-88707190D01*
X88547190Y-88707187D01*
X88633350Y-88592093D01*
X88633354Y-88592086D01*
X88655529Y-88532632D01*
X88694319Y-88359390D01*
X88694682Y-88358734D01*
X88694642Y-88357984D01*
X88727642Y-88298802D01*
X89397037Y-87629408D01*
X89414075Y-87692993D01*
X89479901Y-87807007D01*
X89572993Y-87900099D01*
X89687007Y-87965925D01*
X89750590Y-87982962D01*
X89118282Y-88615269D01*
X89118282Y-88615270D01*
X89172449Y-88654624D01*
X89361782Y-88751095D01*
X89563870Y-88816757D01*
X89773754Y-88850000D01*
X89986246Y-88850000D01*
X90196127Y-88816757D01*
X90196130Y-88816757D01*
X90398217Y-88751095D01*
X90587554Y-88654622D01*
X90641716Y-88615270D01*
X90641717Y-88615270D01*
X90009408Y-87982962D01*
X90072993Y-87965925D01*
X90187007Y-87900099D01*
X90280099Y-87807007D01*
X90345925Y-87692993D01*
X90362962Y-87629408D01*
X90995270Y-88261717D01*
X90995270Y-88261716D01*
X91034622Y-88207554D01*
X91039514Y-88197954D01*
X91087488Y-88147157D01*
X91155308Y-88130361D01*
X91221444Y-88152897D01*
X91260486Y-88197954D01*
X91265375Y-88207550D01*
X91304728Y-88261716D01*
X91937037Y-87629408D01*
X91954075Y-87692993D01*
X92019901Y-87807007D01*
X92112993Y-87900099D01*
X92227007Y-87965925D01*
X92290590Y-87982962D01*
X91658282Y-88615269D01*
X91658282Y-88615270D01*
X91712449Y-88654624D01*
X91901782Y-88751095D01*
X92103870Y-88816757D01*
X92313754Y-88850000D01*
X92526246Y-88850000D01*
X92736127Y-88816757D01*
X92736130Y-88816757D01*
X92938217Y-88751095D01*
X93127554Y-88654622D01*
X93181716Y-88615270D01*
X93181717Y-88615270D01*
X92549408Y-87982962D01*
X92612993Y-87965925D01*
X92727007Y-87900099D01*
X92820099Y-87807007D01*
X92885925Y-87692993D01*
X92902962Y-87629409D01*
X93535270Y-88261717D01*
X93535270Y-88261716D01*
X93574622Y-88207554D01*
X93579514Y-88197954D01*
X93627488Y-88147157D01*
X93695308Y-88130361D01*
X93761444Y-88152897D01*
X93800486Y-88197954D01*
X93805375Y-88207550D01*
X93844728Y-88261716D01*
X94477037Y-87629408D01*
X94494075Y-87692993D01*
X94559901Y-87807007D01*
X94652993Y-87900099D01*
X94767007Y-87965925D01*
X94830590Y-87982962D01*
X94198282Y-88615269D01*
X94198282Y-88615270D01*
X94252449Y-88654624D01*
X94441782Y-88751095D01*
X94643870Y-88816757D01*
X94853754Y-88850000D01*
X95066246Y-88850000D01*
X95276127Y-88816757D01*
X95276130Y-88816757D01*
X95478217Y-88751095D01*
X95667554Y-88654622D01*
X95721716Y-88615270D01*
X95721717Y-88615270D01*
X95089408Y-87982962D01*
X95152993Y-87965925D01*
X95267007Y-87900099D01*
X95360099Y-87807007D01*
X95425925Y-87692993D01*
X95442962Y-87629408D01*
X96075270Y-88261717D01*
X96075270Y-88261716D01*
X96114622Y-88207554D01*
X96119514Y-88197954D01*
X96167488Y-88147157D01*
X96235308Y-88130361D01*
X96301444Y-88152897D01*
X96340486Y-88197954D01*
X96345375Y-88207550D01*
X96384728Y-88261716D01*
X97017037Y-87629408D01*
X97034075Y-87692993D01*
X97099901Y-87807007D01*
X97192993Y-87900099D01*
X97307007Y-87965925D01*
X97370590Y-87982962D01*
X96738282Y-88615269D01*
X96738282Y-88615270D01*
X96792449Y-88654624D01*
X96981782Y-88751095D01*
X97183870Y-88816757D01*
X97393754Y-88850000D01*
X97606246Y-88850000D01*
X97816127Y-88816757D01*
X97816130Y-88816757D01*
X98018217Y-88751095D01*
X98207554Y-88654622D01*
X98261716Y-88615270D01*
X98261717Y-88615270D01*
X97629408Y-87982962D01*
X97692993Y-87965925D01*
X97807007Y-87900099D01*
X97900099Y-87807007D01*
X97965925Y-87692993D01*
X97982962Y-87629409D01*
X98615270Y-88261717D01*
X98615270Y-88261716D01*
X98654622Y-88207554D01*
X98659514Y-88197954D01*
X98707488Y-88147157D01*
X98775308Y-88130361D01*
X98841444Y-88152897D01*
X98880486Y-88197954D01*
X98885375Y-88207550D01*
X98924728Y-88261716D01*
X99557037Y-87629408D01*
X99574075Y-87692993D01*
X99639901Y-87807007D01*
X99732993Y-87900099D01*
X99847007Y-87965925D01*
X99910590Y-87982962D01*
X99278282Y-88615269D01*
X99278282Y-88615270D01*
X99332449Y-88654624D01*
X99521782Y-88751095D01*
X99723870Y-88816757D01*
X99933754Y-88850000D01*
X100146246Y-88850000D01*
X100356127Y-88816757D01*
X100356130Y-88816757D01*
X100558217Y-88751095D01*
X100747554Y-88654622D01*
X100801716Y-88615270D01*
X100801717Y-88615270D01*
X100169408Y-87982962D01*
X100232993Y-87965925D01*
X100347007Y-87900099D01*
X100440099Y-87807007D01*
X100505925Y-87692993D01*
X100522962Y-87629409D01*
X101155270Y-88261717D01*
X101155270Y-88261716D01*
X101194622Y-88207554D01*
X101291095Y-88018217D01*
X101356757Y-87816130D01*
X101356757Y-87816127D01*
X101390000Y-87606246D01*
X101390000Y-87393753D01*
X101356757Y-87183872D01*
X101356757Y-87183869D01*
X101291095Y-86981782D01*
X101194624Y-86792449D01*
X101155270Y-86738282D01*
X101155269Y-86738282D01*
X100522962Y-87370590D01*
X100505925Y-87307007D01*
X100440099Y-87192993D01*
X100347007Y-87099901D01*
X100232993Y-87034075D01*
X100169409Y-87017037D01*
X100801716Y-86384728D01*
X100747550Y-86345375D01*
X100558217Y-86248904D01*
X100356129Y-86183242D01*
X100146246Y-86150000D01*
X99933754Y-86150000D01*
X99723872Y-86183242D01*
X99723869Y-86183242D01*
X99521782Y-86248904D01*
X99332439Y-86345380D01*
X99278282Y-86384727D01*
X99278282Y-86384728D01*
X99910591Y-87017037D01*
X99847007Y-87034075D01*
X99732993Y-87099901D01*
X99639901Y-87192993D01*
X99574075Y-87307007D01*
X99557037Y-87370591D01*
X98924728Y-86738282D01*
X98924727Y-86738282D01*
X98885380Y-86792440D01*
X98880483Y-86802051D01*
X98832506Y-86852845D01*
X98764684Y-86869638D01*
X98698550Y-86847098D01*
X98659516Y-86802048D01*
X98654626Y-86792452D01*
X98615270Y-86738282D01*
X98615269Y-86738282D01*
X97982962Y-87370590D01*
X97965925Y-87307007D01*
X97900099Y-87192993D01*
X97807007Y-87099901D01*
X97692993Y-87034075D01*
X97629409Y-87017037D01*
X98261716Y-86384728D01*
X98207550Y-86345375D01*
X98018217Y-86248904D01*
X97816129Y-86183242D01*
X97606246Y-86150000D01*
X97393754Y-86150000D01*
X97183872Y-86183242D01*
X97183869Y-86183242D01*
X96981782Y-86248904D01*
X96792439Y-86345380D01*
X96738282Y-86384727D01*
X96738282Y-86384728D01*
X97370591Y-87017037D01*
X97307007Y-87034075D01*
X97192993Y-87099901D01*
X97099901Y-87192993D01*
X97034075Y-87307007D01*
X97017037Y-87370591D01*
X96384728Y-86738282D01*
X96384727Y-86738282D01*
X96345380Y-86792440D01*
X96340483Y-86802051D01*
X96292506Y-86852845D01*
X96224684Y-86869638D01*
X96158550Y-86847098D01*
X96119516Y-86802048D01*
X96114626Y-86792452D01*
X96075270Y-86738282D01*
X95442962Y-87370590D01*
X95425925Y-87307007D01*
X95360099Y-87192993D01*
X95267007Y-87099901D01*
X95152993Y-87034075D01*
X95089409Y-87017037D01*
X95721716Y-86384728D01*
X95667550Y-86345375D01*
X95478217Y-86248904D01*
X95276129Y-86183242D01*
X95066246Y-86150000D01*
X94853754Y-86150000D01*
X94643872Y-86183242D01*
X94643869Y-86183242D01*
X94441782Y-86248904D01*
X94252439Y-86345380D01*
X94198282Y-86384727D01*
X94198282Y-86384728D01*
X94830591Y-87017037D01*
X94767007Y-87034075D01*
X94652993Y-87099901D01*
X94559901Y-87192993D01*
X94494075Y-87307007D01*
X94477037Y-87370591D01*
X93844728Y-86738282D01*
X93844727Y-86738282D01*
X93805380Y-86792440D01*
X93800483Y-86802051D01*
X93752506Y-86852845D01*
X93684684Y-86869638D01*
X93618550Y-86847098D01*
X93579516Y-86802048D01*
X93574626Y-86792452D01*
X93535270Y-86738282D01*
X93535269Y-86738282D01*
X92902962Y-87370590D01*
X92885925Y-87307007D01*
X92820099Y-87192993D01*
X92727007Y-87099901D01*
X92612993Y-87034075D01*
X92549409Y-87017037D01*
X93181716Y-86384728D01*
X93127550Y-86345375D01*
X92938217Y-86248904D01*
X92736129Y-86183242D01*
X92526246Y-86150000D01*
X92313754Y-86150000D01*
X92103872Y-86183242D01*
X92103869Y-86183242D01*
X91901782Y-86248904D01*
X91712439Y-86345380D01*
X91658282Y-86384727D01*
X91658282Y-86384728D01*
X92290591Y-87017037D01*
X92227007Y-87034075D01*
X92112993Y-87099901D01*
X92019901Y-87192993D01*
X91954075Y-87307007D01*
X91937037Y-87370591D01*
X91304728Y-86738282D01*
X91304727Y-86738282D01*
X91265380Y-86792440D01*
X91260483Y-86802051D01*
X91212506Y-86852845D01*
X91144684Y-86869638D01*
X91078550Y-86847098D01*
X91039516Y-86802048D01*
X91034626Y-86792452D01*
X90995270Y-86738282D01*
X90995269Y-86738282D01*
X90362962Y-87370590D01*
X90345925Y-87307007D01*
X90280099Y-87192993D01*
X90187007Y-87099901D01*
X90072993Y-87034075D01*
X90009409Y-87017037D01*
X90641716Y-86384728D01*
X90587550Y-86345375D01*
X90398217Y-86248904D01*
X90196129Y-86183242D01*
X89986246Y-86150000D01*
X89773754Y-86150000D01*
X89563872Y-86183242D01*
X89563869Y-86183242D01*
X89361782Y-86248904D01*
X89172439Y-86345380D01*
X89118282Y-86384727D01*
X89118282Y-86384728D01*
X89750591Y-87017037D01*
X89687007Y-87034075D01*
X89572993Y-87099901D01*
X89479901Y-87192993D01*
X89414075Y-87307007D01*
X89397037Y-87370591D01*
X88727642Y-86701196D01*
X88694319Y-86640609D01*
X88655527Y-86467364D01*
X88633354Y-86407913D01*
X88633350Y-86407906D01*
X88547190Y-86292812D01*
X88547187Y-86292809D01*
X88432093Y-86206649D01*
X88432086Y-86206645D01*
X88297379Y-86156403D01*
X88297372Y-86156401D01*
X88237844Y-86150000D01*
X87590000Y-86150000D01*
X87590000Y-87066988D01*
X87532993Y-87034075D01*
X87405826Y-87000000D01*
X87274174Y-87000000D01*
X87147007Y-87034075D01*
X87090000Y-87066988D01*
X87090000Y-86150000D01*
X86442155Y-86150000D01*
X86382627Y-86156401D01*
X86382620Y-86156403D01*
X86247913Y-86206645D01*
X86247906Y-86206649D01*
X86132812Y-86292809D01*
X86132809Y-86292812D01*
X86046649Y-86407906D01*
X86046645Y-86407913D01*
X85996403Y-86542620D01*
X85996401Y-86542627D01*
X85990000Y-86602155D01*
X73951390Y-86602155D01*
X73868555Y-86519320D01*
X73835070Y-86457997D01*
X73840053Y-86388307D01*
X73844091Y-86377483D01*
X73850500Y-86317873D01*
X73850499Y-84522128D01*
X73844091Y-84462517D01*
X73828414Y-84420486D01*
X73793797Y-84327671D01*
X73793793Y-84327664D01*
X73707547Y-84212455D01*
X73707544Y-84212452D01*
X73592335Y-84126206D01*
X73592328Y-84126202D01*
X73457482Y-84075908D01*
X73457483Y-84075908D01*
X73397883Y-84069501D01*
X73397881Y-84069500D01*
X73397873Y-84069500D01*
X73397864Y-84069500D01*
X71602129Y-84069500D01*
X71602123Y-84069501D01*
X71542516Y-84075908D01*
X71407671Y-84126202D01*
X71407664Y-84126206D01*
X71292455Y-84212452D01*
X71292452Y-84212455D01*
X71206206Y-84327664D01*
X71206202Y-84327671D01*
X71155908Y-84462517D01*
X71149501Y-84522116D01*
X71149501Y-84522123D01*
X71149500Y-84522135D01*
X71149501Y-86084500D01*
X71129816Y-86151539D01*
X71077013Y-86197294D01*
X71025501Y-86208500D01*
X70474500Y-86208500D01*
X70407461Y-86188815D01*
X70361706Y-86136011D01*
X70350500Y-86084500D01*
X70350499Y-84522129D01*
X70350498Y-84522123D01*
X70350497Y-84522116D01*
X70344091Y-84462517D01*
X70328414Y-84420486D01*
X70293797Y-84327671D01*
X70293793Y-84327664D01*
X70207547Y-84212455D01*
X70207544Y-84212452D01*
X70092335Y-84126206D01*
X70092328Y-84126202D01*
X69957482Y-84075908D01*
X69957483Y-84075908D01*
X69897883Y-84069501D01*
X69897881Y-84069500D01*
X69897873Y-84069500D01*
X69897864Y-84069500D01*
X68102129Y-84069500D01*
X68102123Y-84069501D01*
X68042516Y-84075908D01*
X67907671Y-84126202D01*
X67907664Y-84126206D01*
X67792455Y-84212452D01*
X67792452Y-84212455D01*
X67706206Y-84327664D01*
X67706202Y-84327671D01*
X67655908Y-84462517D01*
X67649501Y-84522116D01*
X67649501Y-84522123D01*
X67649500Y-84522135D01*
X67649501Y-86084500D01*
X67629816Y-86151539D01*
X67577013Y-86197294D01*
X67525501Y-86208500D01*
X66974500Y-86208500D01*
X66907461Y-86188815D01*
X66861706Y-86136011D01*
X66850500Y-86084500D01*
X66850499Y-84522129D01*
X66850498Y-84522123D01*
X66850497Y-84522116D01*
X66844091Y-84462517D01*
X66828414Y-84420486D01*
X66793797Y-84327671D01*
X66793793Y-84327664D01*
X66707547Y-84212455D01*
X66707544Y-84212452D01*
X66592335Y-84126206D01*
X66592328Y-84126202D01*
X66457482Y-84075908D01*
X66457483Y-84075908D01*
X66397883Y-84069501D01*
X66397881Y-84069500D01*
X66397873Y-84069500D01*
X66397864Y-84069500D01*
X64602129Y-84069500D01*
X64602123Y-84069501D01*
X64542516Y-84075908D01*
X64407671Y-84126202D01*
X64407664Y-84126206D01*
X64292455Y-84212452D01*
X64292452Y-84212455D01*
X64206206Y-84327664D01*
X64206202Y-84327671D01*
X64155908Y-84462517D01*
X64149501Y-84522116D01*
X64149501Y-84522123D01*
X64149500Y-84522135D01*
X64149500Y-86317870D01*
X64149501Y-86317876D01*
X64155908Y-86377483D01*
X64206202Y-86512328D01*
X64206206Y-86512335D01*
X64292452Y-86627544D01*
X64292455Y-86627547D01*
X64407664Y-86713793D01*
X64407671Y-86713797D01*
X64539082Y-86762810D01*
X64595016Y-86804681D01*
X64619433Y-86870145D01*
X64604582Y-86938418D01*
X64583431Y-86966673D01*
X64469889Y-87080215D01*
X64344951Y-87252179D01*
X64248444Y-87441585D01*
X64182753Y-87643760D01*
X64149500Y-87853713D01*
X64149500Y-88066286D01*
X64174841Y-88226287D01*
X64182754Y-88276243D01*
X64237431Y-88444522D01*
X64248444Y-88478414D01*
X64344951Y-88667820D01*
X64469890Y-88839786D01*
X64620213Y-88990109D01*
X64792182Y-89115050D01*
X64800946Y-89119516D01*
X64851742Y-89167491D01*
X64868536Y-89235312D01*
X64845998Y-89301447D01*
X64800946Y-89340484D01*
X64792182Y-89344949D01*
X64620213Y-89469890D01*
X64469890Y-89620213D01*
X64344951Y-89792179D01*
X64248444Y-89981585D01*
X64182753Y-90183760D01*
X64149500Y-90393713D01*
X64149500Y-90606286D01*
X64179745Y-90797249D01*
X64182754Y-90816243D01*
X64239117Y-90989711D01*
X64248444Y-91018414D01*
X64344951Y-91207820D01*
X64469890Y-91379786D01*
X64620213Y-91530109D01*
X64792179Y-91655048D01*
X64792181Y-91655049D01*
X64792184Y-91655051D01*
X64981588Y-91751557D01*
X65183757Y-91817246D01*
X65393713Y-91850500D01*
X65393714Y-91850500D01*
X65606286Y-91850500D01*
X65606287Y-91850500D01*
X65816243Y-91817246D01*
X66018412Y-91751557D01*
X66207816Y-91655051D01*
X66312707Y-91578844D01*
X66379786Y-91530109D01*
X66379788Y-91530106D01*
X66379792Y-91530104D01*
X66530104Y-91379792D01*
X66530106Y-91379788D01*
X66530109Y-91379786D01*
X66655048Y-91207820D01*
X66655047Y-91207820D01*
X66655051Y-91207816D01*
X66751557Y-91018412D01*
X66768570Y-90966051D01*
X66808006Y-90908378D01*
X66872365Y-90881179D01*
X66941211Y-90893093D01*
X66992687Y-90940337D01*
X67010500Y-91004371D01*
X67010500Y-107524330D01*
X67010499Y-107524348D01*
X67010499Y-107690054D01*
X67010498Y-107690054D01*
X67051423Y-107842785D01*
X67080358Y-107892900D01*
X67080359Y-107892904D01*
X67080360Y-107892904D01*
X67130479Y-107979714D01*
X67130481Y-107979717D01*
X67249349Y-108098585D01*
X67249355Y-108098590D01*
X71058583Y-111907819D01*
X71092068Y-111969142D01*
X71087084Y-112038834D01*
X71045212Y-112094767D01*
X70979748Y-112119184D01*
X70970902Y-112119500D01*
X69899998Y-112119500D01*
X69899981Y-112119501D01*
X69797203Y-112130000D01*
X69797200Y-112130001D01*
X69630668Y-112185185D01*
X69630663Y-112185187D01*
X69481342Y-112277289D01*
X69357289Y-112401342D01*
X69265187Y-112550663D01*
X69265186Y-112550666D01*
X69210001Y-112717203D01*
X69210001Y-112717204D01*
X69210000Y-112717204D01*
X69199500Y-112819983D01*
X69199500Y-114020001D01*
X69199501Y-114020018D01*
X69210000Y-114122796D01*
X69210001Y-114122799D01*
X69265185Y-114289331D01*
X69265187Y-114289336D01*
X69296112Y-114339474D01*
X69357288Y-114438656D01*
X69481344Y-114562712D01*
X69630666Y-114654814D01*
X69712570Y-114681954D01*
X69770015Y-114721727D01*
X69796838Y-114786243D01*
X69784523Y-114855018D01*
X69746451Y-114899978D01*
X69652787Y-114968028D01*
X69652782Y-114968032D01*
X69508028Y-115112786D01*
X69387715Y-115278386D01*
X69294781Y-115460776D01*
X69231522Y-115655465D01*
X69199500Y-115857648D01*
X69199500Y-116062351D01*
X69232285Y-116269346D01*
X69230986Y-116269551D01*
X69230098Y-116287274D01*
X69233351Y-116310807D01*
X69228382Y-116321531D01*
X69227791Y-116333335D01*
X69213964Y-116352650D01*
X69203979Y-116374203D01*
X69194001Y-116380538D01*
X69187122Y-116390149D01*
X69165049Y-116398922D01*
X69144996Y-116411656D01*
X69130239Y-116412759D01*
X69122194Y-116415957D01*
X69110034Y-116416488D01*
X69098513Y-116416425D01*
X69095057Y-116415499D01*
X68936943Y-116415499D01*
X68936939Y-116415500D01*
X65185476Y-116415500D01*
X65118437Y-116395815D01*
X65072682Y-116343011D01*
X65062738Y-116273853D01*
X65067545Y-116253183D01*
X65078475Y-116219542D01*
X65078475Y-116219538D01*
X65078477Y-116219534D01*
X65110500Y-116017352D01*
X65110500Y-115812648D01*
X65106332Y-115786332D01*
X65078477Y-115610465D01*
X65041111Y-115495465D01*
X65015220Y-115415781D01*
X65015218Y-115415778D01*
X65015218Y-115415776D01*
X64981503Y-115349607D01*
X64922287Y-115233390D01*
X64914556Y-115222749D01*
X64801971Y-115067786D01*
X64657213Y-114923028D01*
X64491611Y-114802713D01*
X64398369Y-114755203D01*
X64347574Y-114707229D01*
X64330779Y-114639407D01*
X64353317Y-114573273D01*
X64398371Y-114534234D01*
X64491346Y-114486861D01*
X64491347Y-114486861D01*
X64535921Y-114454474D01*
X63856446Y-113775000D01*
X63862661Y-113775000D01*
X63964394Y-113747741D01*
X64055606Y-113695080D01*
X64130080Y-113620606D01*
X64182741Y-113529394D01*
X64210000Y-113427661D01*
X64210000Y-113421447D01*
X64889474Y-114100921D01*
X64921859Y-114056349D01*
X65014755Y-113874031D01*
X65077990Y-113679417D01*
X65110000Y-113477317D01*
X65110000Y-113272682D01*
X65077990Y-113070582D01*
X65014755Y-112875968D01*
X64921859Y-112693650D01*
X64889474Y-112649077D01*
X64889474Y-112649076D01*
X64210000Y-113328551D01*
X64210000Y-113322339D01*
X64182741Y-113220606D01*
X64130080Y-113129394D01*
X64055606Y-113054920D01*
X63964394Y-113002259D01*
X63862661Y-112975000D01*
X63856446Y-112975000D01*
X64535922Y-112295524D01*
X64535921Y-112295523D01*
X64491359Y-112263147D01*
X64491350Y-112263141D01*
X64309031Y-112170244D01*
X64114417Y-112107009D01*
X63912317Y-112075000D01*
X63707683Y-112075000D01*
X63505582Y-112107009D01*
X63310968Y-112170244D01*
X63128644Y-112263143D01*
X63084077Y-112295523D01*
X63084077Y-112295524D01*
X63763554Y-112975000D01*
X63757339Y-112975000D01*
X63655606Y-113002259D01*
X63564394Y-113054920D01*
X63489920Y-113129394D01*
X63437259Y-113220606D01*
X63410000Y-113322339D01*
X63410000Y-113328553D01*
X62730524Y-112649077D01*
X62730523Y-112649077D01*
X62698143Y-112693644D01*
X62605244Y-112875968D01*
X62542009Y-113070582D01*
X62510000Y-113272682D01*
X62510000Y-113477317D01*
X62542009Y-113679417D01*
X62605245Y-113874034D01*
X62646628Y-113955252D01*
X62659524Y-114023921D01*
X62633247Y-114088661D01*
X62576141Y-114128918D01*
X62506335Y-114131910D01*
X62448462Y-114099227D01*
X57887590Y-109538355D01*
X57887588Y-109538352D01*
X57768717Y-109419481D01*
X57768716Y-109419480D01*
X57681904Y-109369360D01*
X57681904Y-109369359D01*
X57681900Y-109369358D01*
X57659951Y-109356685D01*
X57627435Y-109337911D01*
X57601756Y-109318206D01*
X56136819Y-107853269D01*
X56103334Y-107791946D01*
X56100500Y-107765588D01*
X56100500Y-95427856D01*
X56120185Y-95360817D01*
X56136814Y-95340180D01*
X60534277Y-90942716D01*
X60595598Y-90909233D01*
X60665290Y-90914217D01*
X60721223Y-90956089D01*
X60739886Y-90992078D01*
X60748443Y-91018413D01*
X60844951Y-91207820D01*
X60969890Y-91379786D01*
X61120213Y-91530109D01*
X61292179Y-91655048D01*
X61292181Y-91655049D01*
X61292184Y-91655051D01*
X61481588Y-91751557D01*
X61683757Y-91817246D01*
X61893713Y-91850500D01*
X61893714Y-91850500D01*
X62106286Y-91850500D01*
X62106287Y-91850500D01*
X62316243Y-91817246D01*
X62518412Y-91751557D01*
X62707816Y-91655051D01*
X62812707Y-91578844D01*
X62879786Y-91530109D01*
X62879788Y-91530106D01*
X62879792Y-91530104D01*
X63030104Y-91379792D01*
X63030106Y-91379788D01*
X63030109Y-91379786D01*
X63155048Y-91207820D01*
X63155047Y-91207820D01*
X63155051Y-91207816D01*
X63251557Y-91018412D01*
X63317246Y-90816243D01*
X63350500Y-90606287D01*
X63350500Y-90393713D01*
X63317246Y-90183757D01*
X63251557Y-89981588D01*
X63155051Y-89792184D01*
X63155049Y-89792181D01*
X63155048Y-89792179D01*
X63030109Y-89620213D01*
X62879786Y-89469890D01*
X62707820Y-89344951D01*
X62707115Y-89344591D01*
X62699054Y-89340485D01*
X62648259Y-89292512D01*
X62631463Y-89224692D01*
X62653999Y-89158556D01*
X62699054Y-89119515D01*
X62707816Y-89115051D01*
X62808674Y-89041774D01*
X62879786Y-88990109D01*
X62879788Y-88990106D01*
X62879792Y-88990104D01*
X63030104Y-88839792D01*
X63030106Y-88839788D01*
X63030109Y-88839786D01*
X63155048Y-88667820D01*
X63155050Y-88667817D01*
X63155051Y-88667816D01*
X63251557Y-88478412D01*
X63317246Y-88276243D01*
X63350500Y-88066287D01*
X63350500Y-87853713D01*
X63317246Y-87643757D01*
X63251557Y-87441588D01*
X63155051Y-87252184D01*
X63155049Y-87252181D01*
X63155048Y-87252179D01*
X63030109Y-87080213D01*
X62916569Y-86966673D01*
X62883084Y-86905350D01*
X62888068Y-86835658D01*
X62929940Y-86779725D01*
X62960915Y-86762810D01*
X63092331Y-86713796D01*
X63207546Y-86627546D01*
X63293796Y-86512331D01*
X63344091Y-86377483D01*
X63350500Y-86317873D01*
X63350499Y-84522128D01*
X63344091Y-84462517D01*
X63328414Y-84420486D01*
X63293797Y-84327671D01*
X63293793Y-84327664D01*
X63207547Y-84212455D01*
X63207544Y-84212452D01*
X63092335Y-84126206D01*
X63092328Y-84126202D01*
X62957482Y-84075908D01*
X62957483Y-84075908D01*
X62897883Y-84069501D01*
X62897881Y-84069500D01*
X62897873Y-84069500D01*
X62897865Y-84069500D01*
X61550097Y-84069500D01*
X61483058Y-84049815D01*
X61462416Y-84033181D01*
X61067590Y-83638355D01*
X61067588Y-83638352D01*
X60948717Y-83519481D01*
X60948716Y-83519480D01*
X60861904Y-83469360D01*
X60861904Y-83469359D01*
X60861900Y-83469358D01*
X60811785Y-83440423D01*
X60659057Y-83399499D01*
X60500943Y-83399499D01*
X60493347Y-83399499D01*
X60493331Y-83399500D01*
X53920940Y-83399500D01*
X53880019Y-83410464D01*
X53880019Y-83410465D01*
X53842751Y-83420451D01*
X53768214Y-83440423D01*
X53768209Y-83440426D01*
X53631290Y-83519475D01*
X53631282Y-83519481D01*
X52019481Y-85131282D01*
X52019479Y-85131285D01*
X51986612Y-85188214D01*
X51986611Y-85188216D01*
X51940423Y-85268214D01*
X51940423Y-85268215D01*
X51899499Y-85420943D01*
X51899499Y-85579057D01*
X51899499Y-85579059D01*
X51899500Y-85589053D01*
X51899500Y-116413330D01*
X51899499Y-116413348D01*
X51899499Y-116579054D01*
X51899498Y-116579054D01*
X50000500Y-116579054D01*
X50000500Y-81124500D01*
X50020185Y-81057461D01*
X50072989Y-81011706D01*
X50124500Y-81000500D01*
X148875500Y-81000500D01*
X148942539Y-81020185D01*
G37*
%TD.AperFunction*%
%TD*%
M02*
