M48
; DRILL file {KiCad 9.0.7-9.0.7~ubuntu24.04.1} date 2026-03-10T15:42:58-0500
; FORMAT={-:-/ absolute / metric / decimal}
; #@! TF.CreationDate,2026-03-10T15:42:58-05:00
; #@! TF.GenerationSoftware,Kicad,Pcbnew,9.0.7-9.0.7~ubuntu24.04.1
; #@! TF.FileFunction,Plated,1,2,PTH
FMAT,2
METRIC
; #@! TA.AperFunction,Plated,PTH,ViaDrill
T1C0.300
; #@! TA.AperFunction,Plated,PTH,ComponentDrill
T2C0.800
; #@! TA.AperFunction,Plated,PTH,ComponentDrill
T3C0.991
; #@! TA.AperFunction,Plated,PTH,ComponentDrill
T4C1.000
%
G90
G05
T1
X54.0Y-114.5
X54.0Y-119.0
X57.899Y-113.101
X60.074Y-115.276
X73.5Y-121.5
X76.0Y-89.5
X76.5Y-91.5
T2
X56.19Y-113.375
X56.19Y-115.915
X56.19Y-118.455
X56.19Y-120.995
X56.19Y-123.535
X56.19Y-126.075
X56.19Y-128.615
X63.81Y-113.375
X63.81Y-115.915
X63.81Y-118.455
X63.81Y-120.995
X63.81Y-123.535
X63.81Y-126.075
X63.81Y-128.615
X70.5Y-113.42
X70.5Y-115.96
X70.5Y-118.5
X70.5Y-121.04
X70.5Y-123.58
X70.5Y-126.12
X70.5Y-128.66
X78.12Y-113.42
X78.12Y-115.96
X78.12Y-118.5
X78.12Y-121.04
X78.12Y-123.58
X78.12Y-126.12
X78.12Y-128.66
X84.88Y-113.26
X84.88Y-115.8
X84.88Y-118.34
X84.88Y-120.88
X84.88Y-123.42
X84.88Y-125.96
X84.88Y-128.5
X84.88Y-131.04
X92.5Y-113.26
X92.5Y-115.8
X92.5Y-118.34
X92.5Y-120.88
X92.5Y-123.42
X92.5Y-125.96
X92.5Y-128.5
X92.5Y-131.04
T3
X61.5Y-138.96
X61.5Y-141.5
X64.04Y-138.96
X64.04Y-141.5
X66.58Y-138.96
X66.58Y-141.5
X69.12Y-138.96
X69.12Y-141.5
X71.66Y-138.96
X71.66Y-141.5
X74.2Y-138.96
X74.2Y-141.5
X76.74Y-138.96
X76.74Y-141.5
X79.28Y-138.96
X79.28Y-141.5
X81.82Y-138.96
X81.82Y-141.5
X84.36Y-138.96
X84.36Y-141.5
X86.9Y-138.96
X86.9Y-141.5
X89.44Y-138.96
X89.44Y-141.5
X91.98Y-138.96
X91.98Y-141.5
T4
X55.0Y-85.42
X55.0Y-87.96
X55.0Y-90.5
X58.5Y-85.42
X58.5Y-87.96
X58.5Y-90.5
X62.0Y-85.42
X62.0Y-87.96
X62.0Y-90.5
X65.5Y-85.42
X65.5Y-87.96
X65.5Y-90.5
X69.0Y-85.42
X69.0Y-87.96
X69.0Y-90.5
X72.5Y-85.42
X72.5Y-87.96
X72.5Y-90.5
X87.34Y-87.5
X89.88Y-87.5
X92.42Y-87.5
X94.96Y-87.5
X97.5Y-87.5
X100.04Y-87.5
X100.5Y-92.8
X100.5Y-95.34
X100.5Y-97.88
X100.5Y-100.42
X100.5Y-102.96
X100.5Y-105.5
X100.5Y-110.88
X100.5Y-113.42
X100.5Y-115.96
X100.5Y-118.5
X100.5Y-121.04
X100.5Y-123.58
X100.5Y-128.5
X100.5Y-131.04
X100.5Y-133.58
X100.5Y-136.12
X100.5Y-138.66
X100.5Y-141.2
X103.916Y-123.631
X104.04Y-83.04
X104.04Y-85.58
X104.04Y-88.12
X104.04Y-90.66
X104.04Y-93.2
X104.04Y-95.74
X104.04Y-98.28
X104.04Y-100.82
X104.04Y-103.36
X104.04Y-105.9
X104.04Y-108.44
X104.04Y-110.98
X104.04Y-113.52
X104.04Y-116.06
X104.04Y-118.6
X104.04Y-121.14
X104.04Y-126.22
X104.04Y-128.76
X104.04Y-131.3
X104.04Y-133.84
X104.04Y-136.38
X104.04Y-138.92
X104.04Y-141.46
X104.04Y-144.0
X106.456Y-123.631
X106.58Y-83.04
X106.58Y-85.58
X106.58Y-88.12
X106.58Y-90.66
X106.58Y-93.2
X106.58Y-95.74
X106.58Y-98.28
X106.58Y-100.82
X106.58Y-103.36
X106.58Y-105.9
X106.58Y-108.44
X106.58Y-110.98
X106.58Y-113.52
X106.58Y-116.06
X106.58Y-118.6
X106.58Y-121.14
X106.58Y-126.22
X106.58Y-128.76
X106.58Y-131.3
X106.58Y-133.84
X106.58Y-136.38
X106.58Y-138.92
X106.58Y-141.46
X106.58Y-144.0
X108.996Y-123.631
X109.12Y-83.04
X109.12Y-85.58
X109.12Y-88.12
X109.12Y-90.66
X109.12Y-93.2
X109.12Y-95.74
X109.12Y-98.28
X109.12Y-100.82
X109.12Y-103.36
X109.12Y-105.9
X109.12Y-108.44
X109.12Y-110.98
X109.12Y-113.52
X109.12Y-116.06
X109.12Y-118.6
X109.12Y-121.14
X109.12Y-126.22
X109.12Y-128.76
X109.12Y-131.3
X109.12Y-133.84
X109.12Y-136.38
X109.12Y-138.92
X109.12Y-141.46
X109.12Y-144.0
X111.536Y-123.631
X111.66Y-83.04
X111.66Y-85.58
X111.66Y-88.12
X111.66Y-90.66
X111.66Y-93.2
X111.66Y-95.74
X111.66Y-98.28
X111.66Y-100.82
X111.66Y-103.36
X111.66Y-105.9
X111.66Y-108.44
X111.66Y-110.98
X111.66Y-113.52
X111.66Y-116.06
X111.66Y-118.6
X111.66Y-121.14
X111.66Y-126.22
X111.66Y-128.76
X111.66Y-131.3
X111.66Y-133.84
X111.66Y-136.38
X111.66Y-138.92
X111.66Y-141.46
X111.66Y-144.0
X114.076Y-123.631
X114.2Y-83.04
X114.2Y-85.58
X114.2Y-88.12
X114.2Y-90.66
X114.2Y-93.2
X114.2Y-95.74
X114.2Y-98.28
X114.2Y-100.82
X114.2Y-103.36
X114.2Y-105.9
X114.2Y-108.44
X114.2Y-110.98
X114.2Y-113.52
X114.2Y-116.06
X114.2Y-118.6
X114.2Y-121.14
X114.2Y-126.22
X114.2Y-128.76
X114.2Y-131.3
X114.2Y-133.84
X114.2Y-136.38
X114.2Y-138.92
X114.2Y-141.46
X114.2Y-144.0
X116.616Y-123.631
X116.74Y-83.04
X116.74Y-85.58
X116.74Y-88.12
X116.74Y-90.66
X116.74Y-93.2
X116.74Y-95.74
X116.74Y-98.28
X116.74Y-100.82
X116.74Y-103.36
X116.74Y-105.9
X116.74Y-108.44
X116.74Y-110.98
X116.74Y-113.52
X116.74Y-116.06
X116.74Y-118.6
X116.74Y-121.14
X116.74Y-126.22
X116.74Y-128.76
X116.74Y-131.3
X116.74Y-133.84
X116.74Y-136.38
X116.74Y-138.92
X116.74Y-141.46
X116.74Y-144.0
X119.156Y-123.631
X119.28Y-83.04
X119.28Y-85.58
X119.28Y-88.12
X119.28Y-90.66
X119.28Y-93.2
X119.28Y-95.74
X119.28Y-98.28
X119.28Y-100.82
X119.28Y-103.36
X119.28Y-105.9
X119.28Y-108.44
X119.28Y-110.98
X119.28Y-113.52
X119.28Y-116.06
X119.28Y-118.6
X119.28Y-121.14
X119.28Y-126.22
X119.28Y-128.76
X119.28Y-131.3
X119.28Y-133.84
X119.28Y-136.38
X119.28Y-138.92
X119.28Y-141.46
X119.28Y-144.0
X121.696Y-123.631
X121.82Y-83.04
X121.82Y-85.58
X121.82Y-88.12
X121.82Y-90.66
X121.82Y-93.2
X121.82Y-95.74
X121.82Y-98.28
X121.82Y-100.82
X121.82Y-103.36
X121.82Y-105.9
X121.82Y-108.44
X121.82Y-110.98
X121.82Y-113.52
X121.82Y-116.06
X121.82Y-118.6
X121.82Y-121.14
X121.82Y-126.22
X121.82Y-128.76
X121.82Y-131.3
X121.82Y-133.84
X121.82Y-136.38
X121.82Y-138.92
X121.82Y-141.46
X121.82Y-144.0
X124.236Y-123.631
X124.36Y-83.04
X124.36Y-85.58
X124.36Y-88.12
X124.36Y-90.66
X124.36Y-93.2
X124.36Y-95.74
X124.36Y-98.28
X124.36Y-100.82
X124.36Y-103.36
X124.36Y-105.9
X124.36Y-108.44
X124.36Y-110.98
X124.36Y-113.52
X124.36Y-116.06
X124.36Y-118.6
X124.36Y-121.14
X124.36Y-126.22
X124.36Y-128.76
X124.36Y-131.3
X124.36Y-133.84
X124.36Y-136.38
X124.36Y-138.92
X124.36Y-141.46
X124.36Y-144.0
X126.776Y-123.631
X126.9Y-83.04
X126.9Y-85.58
X126.9Y-88.12
X126.9Y-90.66
X126.9Y-93.2
X126.9Y-95.74
X126.9Y-98.28
X126.9Y-100.82
X126.9Y-103.36
X126.9Y-105.9
X126.9Y-108.44
X126.9Y-110.98
X126.9Y-113.52
X126.9Y-116.06
X126.9Y-118.6
X126.9Y-121.14
X126.9Y-126.22
X126.9Y-128.76
X126.9Y-131.3
X126.9Y-133.84
X126.9Y-136.38
X126.9Y-138.92
X126.9Y-141.46
X126.9Y-144.0
X129.316Y-123.631
X129.44Y-83.04
X129.44Y-85.58
X129.44Y-88.12
X129.44Y-90.66
X129.44Y-93.2
X129.44Y-95.74
X129.44Y-98.28
X129.44Y-100.82
X129.44Y-103.36
X129.44Y-105.9
X129.44Y-108.44
X129.44Y-110.98
X129.44Y-113.52
X129.44Y-116.06
X129.44Y-118.6
X129.44Y-121.14
X129.44Y-126.22
X129.44Y-128.76
X129.44Y-131.3
X129.44Y-133.84
X129.44Y-136.38
X129.44Y-138.92
X129.44Y-141.46
X129.44Y-144.0
X131.856Y-123.631
X131.98Y-83.04
X131.98Y-85.58
X131.98Y-88.12
X131.98Y-90.66
X131.98Y-93.2
X131.98Y-95.74
X131.98Y-98.28
X131.98Y-100.82
X131.98Y-103.36
X131.98Y-105.9
X131.98Y-108.44
X131.98Y-110.98
X131.98Y-113.52
X131.98Y-116.06
X131.98Y-118.6
X131.98Y-121.14
X131.98Y-126.22
X131.98Y-128.76
X131.98Y-131.3
X131.98Y-133.84
X131.98Y-136.38
X131.98Y-138.92
X131.98Y-141.46
X131.98Y-144.0
X134.396Y-123.631
X134.52Y-83.04
X134.52Y-85.58
X134.52Y-88.12
X134.52Y-90.66
X134.52Y-93.2
X134.52Y-95.74
X134.52Y-98.28
X134.52Y-100.82
X134.52Y-103.36
X134.52Y-105.9
X134.52Y-108.44
X134.52Y-110.98
X134.52Y-113.52
X134.52Y-116.06
X134.52Y-118.6
X134.52Y-121.14
X134.52Y-126.22
X134.52Y-128.76
X134.52Y-131.3
X134.52Y-133.84
X134.52Y-136.38
X134.52Y-138.92
X134.52Y-141.46
X134.52Y-144.0
X136.936Y-123.631
X137.06Y-83.04
X137.06Y-85.58
X137.06Y-88.12
X137.06Y-90.66
X137.06Y-93.2
X137.06Y-95.74
X137.06Y-98.28
X137.06Y-100.82
X137.06Y-103.36
X137.06Y-105.9
X137.06Y-108.44
X137.06Y-110.98
X137.06Y-113.52
X137.06Y-116.06
X137.06Y-118.6
X137.06Y-121.14
X137.06Y-126.22
X137.06Y-128.76
X137.06Y-131.3
X137.06Y-133.84
X137.06Y-136.38
X137.06Y-138.92
X137.06Y-141.46
X137.06Y-144.0
X139.476Y-123.631
X139.6Y-83.04
X139.6Y-85.58
X139.6Y-88.12
X139.6Y-90.66
X139.6Y-93.2
X139.6Y-95.74
X139.6Y-98.28
X139.6Y-100.82
X139.6Y-103.36
X139.6Y-105.9
X139.6Y-108.44
X139.6Y-110.98
X139.6Y-113.52
X139.6Y-116.06
X139.6Y-118.6
X139.6Y-121.14
X139.6Y-126.22
X139.6Y-128.76
X139.6Y-131.3
X139.6Y-133.84
X139.6Y-136.38
X139.6Y-138.92
X139.6Y-141.46
X139.6Y-144.0
X142.016Y-123.631
X142.14Y-83.04
X142.14Y-85.58
X142.14Y-88.12
X142.14Y-90.66
X142.14Y-93.2
X142.14Y-95.74
X142.14Y-98.28
X142.14Y-100.82
X142.14Y-103.36
X142.14Y-105.9
X142.14Y-108.44
X142.14Y-110.98
X142.14Y-113.52
X142.14Y-116.06
X142.14Y-118.6
X142.14Y-121.14
X142.14Y-126.22
X142.14Y-128.76
X142.14Y-131.3
X142.14Y-133.84
X142.14Y-136.38
X142.14Y-138.92
X142.14Y-141.46
X142.14Y-144.0
X144.556Y-123.631
X144.68Y-83.04
X144.68Y-85.58
X144.68Y-88.12
X144.68Y-90.66
X144.68Y-93.2
X144.68Y-95.74
X144.68Y-98.28
X144.68Y-100.82
X144.68Y-103.36
X144.68Y-105.9
X144.68Y-108.44
X144.68Y-110.98
X144.68Y-113.52
X144.68Y-116.06
X144.68Y-118.6
X144.68Y-121.14
X144.68Y-126.22
X144.68Y-128.76
X144.68Y-131.3
X144.68Y-133.84
X144.68Y-136.38
X144.68Y-138.92
X144.68Y-141.46
X144.68Y-144.0
X147.096Y-123.631
X147.22Y-83.04
X147.22Y-85.58
X147.22Y-88.12
X147.22Y-90.66
X147.22Y-93.2
X147.22Y-95.74
X147.22Y-98.28
X147.22Y-100.82
X147.22Y-103.36
X147.22Y-105.9
X147.22Y-108.44
X147.22Y-110.98
X147.22Y-113.52
X147.22Y-116.06
X147.22Y-118.6
X147.22Y-121.14
X147.22Y-126.22
X147.22Y-128.76
X147.22Y-131.3
X147.22Y-133.84
X147.22Y-136.38
X147.22Y-138.92
X147.22Y-141.46
X147.22Y-144.0
M30
