%TF.GenerationSoftware,KiCad,Pcbnew,9.0.7-9.0.7~ubuntu24.04.1*%
%TF.CreationDate,2026-03-18T09:41:29-05:00*%
%TF.ProjectId,protocard,70726f74-6f63-4617-9264-2e6b69636164,rev?*%
%TF.SameCoordinates,Original*%
%TF.FileFunction,Soldermask,Top*%
%TF.FilePolarity,Negative*%
%FSLAX46Y46*%
G04 Gerber Fmt 4.6, Leading zero omitted, Abs format (unit mm)*
G04 Created by KiCad (PCBNEW 9.0.7-9.0.7~ubuntu24.04.1) date 2026-03-18 09:41:29*
%MOMM*%
%LPD*%
G01*
G04 APERTURE LIST*
G04 Aperture macros list*
%AMRoundRect*
0 Rectangle with rounded corners*
0 $1 Rounding radius*
0 $2 $3 $4 $5 $6 $7 $8 $9 X,Y pos of 4 corners*
0 Add a 4 corners polygon primitive as box body*
4,1,4,$2,$3,$4,$5,$6,$7,$8,$9,$2,$3,0*
0 Add four circle primitives for the rounded corners*
1,1,$1+$1,$2,$3*
1,1,$1+$1,$4,$5*
1,1,$1+$1,$6,$7*
1,1,$1+$1,$8,$9*
0 Add four rect primitives between the rounded corners*
20,1,$1+$1,$2,$3,$4,$5,0*
20,1,$1+$1,$4,$5,$6,$7,0*
20,1,$1+$1,$6,$7,$8,$9,0*
20,1,$1+$1,$8,$9,$2,$3,0*%
G04 Aperture macros list end*
%ADD10C,1.600000*%
%ADD11RoundRect,0.250000X-0.550000X-0.550000X0.550000X-0.550000X0.550000X0.550000X-0.550000X0.550000X0*%
%ADD12R,1.700000X1.700000*%
%ADD13C,1.700000*%
%ADD14C,1.498600*%
%ADD15RoundRect,0.250000X0.550000X0.550000X-0.550000X0.550000X-0.550000X-0.550000X0.550000X-0.550000X0*%
G04 APERTURE END LIST*
D10*
%TO.C,U2*%
X78120000Y-113420000D03*
X78120000Y-115960000D03*
X78120000Y-118500000D03*
X78120000Y-121040000D03*
X78120000Y-123580000D03*
X78120000Y-126120000D03*
X78120000Y-128660000D03*
X70500000Y-128660000D03*
X70500000Y-126120000D03*
X70500000Y-123580000D03*
X70500000Y-121040000D03*
X70500000Y-118500000D03*
X70500000Y-115960000D03*
D11*
X70500000Y-113420000D03*
%TD*%
D12*
%TO.C,JP6*%
X72500000Y-85420000D03*
D13*
X72500000Y-87960000D03*
X72500000Y-90500000D03*
%TD*%
D12*
%TO.C,JP2*%
X58500000Y-85420000D03*
D13*
X58500000Y-87960000D03*
X58500000Y-90500000D03*
%TD*%
D14*
%TO.C,J1*%
X91980000Y-138960000D03*
X91980000Y-141500000D03*
X89440000Y-138960000D03*
X89440000Y-141500000D03*
X86900000Y-138960000D03*
X86900000Y-141500000D03*
X84360000Y-138960000D03*
X84360000Y-141500000D03*
X81820000Y-138960000D03*
X81820000Y-141500000D03*
X79280000Y-138960000D03*
X79280000Y-141500000D03*
X76740000Y-138960000D03*
X76740000Y-141500000D03*
X74200000Y-138960000D03*
X74200000Y-141500000D03*
X71660000Y-138960000D03*
X71660000Y-141500000D03*
X69120000Y-138960000D03*
X69120000Y-141500000D03*
X66580000Y-138960000D03*
X66580000Y-141500000D03*
X64040000Y-138960000D03*
X64040000Y-141500000D03*
X61500000Y-138960000D03*
X61500000Y-141500000D03*
%TD*%
D12*
%TO.C,J3*%
X99500000Y-122800000D03*
D13*
X99500000Y-125340000D03*
X99500000Y-127880000D03*
X99500000Y-130420000D03*
X99500000Y-132960000D03*
X99500000Y-135500000D03*
%TD*%
%TO.C,REF\u002A\u002A*%
X103916386Y-123631001D03*
X104040000Y-83040000D03*
X104040000Y-85580000D03*
X104040000Y-88120000D03*
X104040000Y-90660000D03*
X104040000Y-93200000D03*
X104040000Y-95740000D03*
X104040000Y-98280000D03*
X104040000Y-100820000D03*
X104040000Y-103360000D03*
X104040000Y-105900000D03*
X104040000Y-108440000D03*
X104040000Y-110980000D03*
X104040000Y-113520000D03*
X104040000Y-116060000D03*
X104040000Y-118600000D03*
X104040000Y-121140000D03*
X104040000Y-126220000D03*
X104040000Y-128760000D03*
X104040000Y-131300000D03*
X104040000Y-133840000D03*
X104040000Y-136380000D03*
X104040000Y-138920000D03*
X104040000Y-141460000D03*
X104040000Y-144000000D03*
X106456386Y-123631001D03*
X106580000Y-83040000D03*
X106580000Y-85580000D03*
X106580000Y-88120000D03*
X106580000Y-90660000D03*
X106580000Y-93200000D03*
X106580000Y-95740000D03*
X106580000Y-98280000D03*
X106580000Y-100820000D03*
X106580000Y-103360000D03*
X106580000Y-105900000D03*
X106580000Y-108440000D03*
X106580000Y-110980000D03*
X106580000Y-113520000D03*
X106580000Y-116060000D03*
X106580000Y-118600000D03*
X106580000Y-121140000D03*
X106580000Y-126220000D03*
X106580000Y-128760000D03*
X106580000Y-131300000D03*
X106580000Y-133840000D03*
X106580000Y-136380000D03*
X106580000Y-138920000D03*
X106580000Y-141460000D03*
X106580000Y-144000000D03*
X108996386Y-123631001D03*
X109120000Y-83040000D03*
X109120000Y-85580000D03*
X109120000Y-88120000D03*
X109120000Y-90660000D03*
X109120000Y-93200000D03*
X109120000Y-95740000D03*
X109120000Y-98280000D03*
X109120000Y-100820000D03*
X109120000Y-103360000D03*
X109120000Y-105900000D03*
X109120000Y-108440000D03*
X109120000Y-110980000D03*
X109120000Y-113520000D03*
X109120000Y-116060000D03*
X109120000Y-118600000D03*
X109120000Y-121140000D03*
X109120000Y-126220000D03*
X109120000Y-128760000D03*
X109120000Y-131300000D03*
X109120000Y-133840000D03*
X109120000Y-136380000D03*
X109120000Y-138920000D03*
X109120000Y-141460000D03*
X109120000Y-144000000D03*
X111536386Y-123631001D03*
X111660000Y-83040000D03*
X111660000Y-85580000D03*
X111660000Y-88120000D03*
X111660000Y-90660000D03*
X111660000Y-93200000D03*
X111660000Y-95740000D03*
X111660000Y-98280000D03*
X111660000Y-100820000D03*
X111660000Y-103360000D03*
X111660000Y-105900000D03*
X111660000Y-108440000D03*
X111660000Y-110980000D03*
X111660000Y-113520000D03*
X111660000Y-116060000D03*
X111660000Y-118600000D03*
X111660000Y-121140000D03*
X111660000Y-126220000D03*
X111660000Y-128760000D03*
X111660000Y-131300000D03*
X111660000Y-133840000D03*
X111660000Y-136380000D03*
X111660000Y-138920000D03*
X111660000Y-141460000D03*
X111660000Y-144000000D03*
X114076386Y-123631001D03*
X114200000Y-83040000D03*
X114200000Y-85580000D03*
X114200000Y-88120000D03*
X114200000Y-90660000D03*
X114200000Y-93200000D03*
X114200000Y-95740000D03*
X114200000Y-98280000D03*
X114200000Y-100820000D03*
X114200000Y-103360000D03*
X114200000Y-105900000D03*
X114200000Y-108440000D03*
X114200000Y-110980000D03*
X114200000Y-113520000D03*
X114200000Y-116060000D03*
X114200000Y-118600000D03*
X114200000Y-121140000D03*
X114200000Y-126220000D03*
X114200000Y-128760000D03*
X114200000Y-131300000D03*
X114200000Y-133840000D03*
X114200000Y-136380000D03*
X114200000Y-138920000D03*
X114200000Y-141460000D03*
X114200000Y-144000000D03*
X116616386Y-123631001D03*
X116740000Y-83040000D03*
X116740000Y-85580000D03*
X116740000Y-88120000D03*
X116740000Y-90660000D03*
X116740000Y-93200000D03*
X116740000Y-95740000D03*
X116740000Y-98280000D03*
X116740000Y-100820000D03*
X116740000Y-103360000D03*
X116740000Y-105900000D03*
X116740000Y-108440000D03*
X116740000Y-110980000D03*
X116740000Y-113520000D03*
X116740000Y-116060000D03*
X116740000Y-118600000D03*
X116740000Y-121140000D03*
X116740000Y-126220000D03*
X116740000Y-128760000D03*
X116740000Y-131300000D03*
X116740000Y-133840000D03*
X116740000Y-136380000D03*
X116740000Y-138920000D03*
X116740000Y-141460000D03*
X116740000Y-144000000D03*
X119156386Y-123631001D03*
X119280000Y-83040000D03*
X119280000Y-85580000D03*
X119280000Y-88120000D03*
X119280000Y-90660000D03*
X119280000Y-93200000D03*
X119280000Y-95740000D03*
X119280000Y-98280000D03*
X119280000Y-100820000D03*
X119280000Y-103360000D03*
X119280000Y-105900000D03*
X119280000Y-108440000D03*
X119280000Y-110980000D03*
X119280000Y-113520000D03*
X119280000Y-116060000D03*
X119280000Y-118600000D03*
X119280000Y-121140000D03*
X119280000Y-126220000D03*
X119280000Y-128760000D03*
X119280000Y-131300000D03*
X119280000Y-133840000D03*
X119280000Y-136380000D03*
X119280000Y-138920000D03*
X119280000Y-141460000D03*
X119280000Y-144000000D03*
X121696386Y-123631001D03*
X121820000Y-83040000D03*
X121820000Y-85580000D03*
X121820000Y-88120000D03*
X121820000Y-90660000D03*
X121820000Y-93200000D03*
X121820000Y-95740000D03*
X121820000Y-98280000D03*
X121820000Y-100820000D03*
X121820000Y-103360000D03*
X121820000Y-105900000D03*
X121820000Y-108440000D03*
X121820000Y-110980000D03*
X121820000Y-113520000D03*
X121820000Y-116060000D03*
X121820000Y-118600000D03*
X121820000Y-121140000D03*
X121820000Y-126220000D03*
X121820000Y-128760000D03*
X121820000Y-131300000D03*
X121820000Y-133840000D03*
X121820000Y-136380000D03*
X121820000Y-138920000D03*
X121820000Y-141460000D03*
X121820000Y-144000000D03*
X124236386Y-123631001D03*
X124360000Y-83040000D03*
X124360000Y-85580000D03*
X124360000Y-88120000D03*
X124360000Y-90660000D03*
X124360000Y-93200000D03*
X124360000Y-95740000D03*
X124360000Y-98280000D03*
X124360000Y-100820000D03*
X124360000Y-103360000D03*
X124360000Y-105900000D03*
X124360000Y-108440000D03*
X124360000Y-110980000D03*
X124360000Y-113520000D03*
X124360000Y-116060000D03*
X124360000Y-118600000D03*
X124360000Y-121140000D03*
X124360000Y-126220000D03*
X124360000Y-128760000D03*
X124360000Y-131300000D03*
X124360000Y-133840000D03*
X124360000Y-136380000D03*
X124360000Y-138920000D03*
X124360000Y-141460000D03*
X124360000Y-144000000D03*
X126776386Y-123631001D03*
X126900000Y-83040000D03*
X126900000Y-85580000D03*
X126900000Y-88120000D03*
X126900000Y-90660000D03*
X126900000Y-93200000D03*
X126900000Y-95740000D03*
X126900000Y-98280000D03*
X126900000Y-100820000D03*
X126900000Y-103360000D03*
X126900000Y-105900000D03*
X126900000Y-108440000D03*
X126900000Y-110980000D03*
X126900000Y-113520000D03*
X126900000Y-116060000D03*
X126900000Y-118600000D03*
X126900000Y-121140000D03*
X126900000Y-126220000D03*
X126900000Y-128760000D03*
X126900000Y-131300000D03*
X126900000Y-133840000D03*
X126900000Y-136380000D03*
X126900000Y-138920000D03*
X126900000Y-141460000D03*
X126900000Y-144000000D03*
X129316386Y-123631001D03*
X129440000Y-83040000D03*
X129440000Y-85580000D03*
X129440000Y-88120000D03*
X129440000Y-90660000D03*
X129440000Y-93200000D03*
X129440000Y-95740000D03*
X129440000Y-98280000D03*
X129440000Y-100820000D03*
X129440000Y-103360000D03*
X129440000Y-105900000D03*
X129440000Y-108440000D03*
X129440000Y-110980000D03*
X129440000Y-113520000D03*
X129440000Y-116060000D03*
X129440000Y-118600000D03*
X129440000Y-121140000D03*
X129440000Y-126220000D03*
X129440000Y-128760000D03*
X129440000Y-131300000D03*
X129440000Y-133840000D03*
X129440000Y-136380000D03*
X129440000Y-138920000D03*
X129440000Y-141460000D03*
X129440000Y-144000000D03*
X131856386Y-123631001D03*
X131980000Y-83040000D03*
X131980000Y-85580000D03*
X131980000Y-88120000D03*
X131980000Y-90660000D03*
X131980000Y-93200000D03*
X131980000Y-95740000D03*
X131980000Y-98280000D03*
X131980000Y-100820000D03*
X131980000Y-103360000D03*
X131980000Y-105900000D03*
X131980000Y-108440000D03*
X131980000Y-110980000D03*
X131980000Y-113520000D03*
X131980000Y-116060000D03*
X131980000Y-118600000D03*
X131980000Y-121140000D03*
X131980000Y-126220000D03*
X131980000Y-128760000D03*
X131980000Y-131300000D03*
X131980000Y-133840000D03*
X131980000Y-136380000D03*
X131980000Y-138920000D03*
X131980000Y-141460000D03*
X131980000Y-144000000D03*
X134396386Y-123631001D03*
X134520000Y-83040000D03*
X134520000Y-85580000D03*
X134520000Y-88120000D03*
X134520000Y-90660000D03*
X134520000Y-93200000D03*
X134520000Y-95740000D03*
X134520000Y-98280000D03*
X134520000Y-100820000D03*
X134520000Y-103360000D03*
X134520000Y-105900000D03*
X134520000Y-108440000D03*
X134520000Y-110980000D03*
X134520000Y-113520000D03*
X134520000Y-116060000D03*
X134520000Y-118600000D03*
X134520000Y-121140000D03*
X134520000Y-126220000D03*
X134520000Y-128760000D03*
X134520000Y-131300000D03*
X134520000Y-133840000D03*
X134520000Y-136380000D03*
X134520000Y-138920000D03*
X134520000Y-141460000D03*
X134520000Y-144000000D03*
X136936386Y-123631001D03*
X137060000Y-83040000D03*
X137060000Y-85580000D03*
X137060000Y-88120000D03*
X137060000Y-90660000D03*
X137060000Y-93200000D03*
X137060000Y-95740000D03*
X137060000Y-98280000D03*
X137060000Y-100820000D03*
X137060000Y-103360000D03*
X137060000Y-105900000D03*
X137060000Y-108440000D03*
X137060000Y-110980000D03*
X137060000Y-113520000D03*
X137060000Y-116060000D03*
X137060000Y-118600000D03*
X137060000Y-121140000D03*
X137060000Y-126220000D03*
X137060000Y-128760000D03*
X137060000Y-131300000D03*
X137060000Y-133840000D03*
X137060000Y-136380000D03*
X137060000Y-138920000D03*
X137060000Y-141460000D03*
X137060000Y-144000000D03*
X139476386Y-123631001D03*
X139600000Y-83040000D03*
X139600000Y-85580000D03*
X139600000Y-88120000D03*
X139600000Y-90660000D03*
X139600000Y-93200000D03*
X139600000Y-95740000D03*
X139600000Y-98280000D03*
X139600000Y-100820000D03*
X139600000Y-103360000D03*
X139600000Y-105900000D03*
X139600000Y-108440000D03*
X139600000Y-110980000D03*
X139600000Y-113520000D03*
X139600000Y-116060000D03*
X139600000Y-118600000D03*
X139600000Y-121140000D03*
X139600000Y-126220000D03*
X139600000Y-128760000D03*
X139600000Y-131300000D03*
X139600000Y-133840000D03*
X139600000Y-136380000D03*
X139600000Y-138920000D03*
X139600000Y-141460000D03*
X139600000Y-144000000D03*
X142016386Y-123631001D03*
X142140000Y-83040000D03*
X142140000Y-85580000D03*
X142140000Y-88120000D03*
X142140000Y-90660000D03*
X142140000Y-93200000D03*
X142140000Y-95740000D03*
X142140000Y-98280000D03*
X142140000Y-100820000D03*
X142140000Y-103360000D03*
X142140000Y-105900000D03*
X142140000Y-108440000D03*
X142140000Y-110980000D03*
X142140000Y-113520000D03*
X142140000Y-116060000D03*
X142140000Y-118600000D03*
X142140000Y-121140000D03*
X142140000Y-126220000D03*
X142140000Y-128760000D03*
X142140000Y-131300000D03*
X142140000Y-133840000D03*
X142140000Y-136380000D03*
X142140000Y-138920000D03*
X142140000Y-141460000D03*
X142140000Y-144000000D03*
X144556386Y-123631001D03*
X144680000Y-83040000D03*
X144680000Y-85580000D03*
X144680000Y-88120000D03*
X144680000Y-90660000D03*
X144680000Y-93200000D03*
X144680000Y-95740000D03*
X144680000Y-98280000D03*
X144680000Y-100820000D03*
X144680000Y-103360000D03*
X144680000Y-105900000D03*
X144680000Y-108440000D03*
X144680000Y-110980000D03*
X144680000Y-113520000D03*
X144680000Y-116060000D03*
X144680000Y-118600000D03*
X144680000Y-121140000D03*
X144680000Y-126220000D03*
X144680000Y-128760000D03*
X144680000Y-131300000D03*
X144680000Y-133840000D03*
X144680000Y-136380000D03*
X144680000Y-138920000D03*
X144680000Y-141460000D03*
X144680000Y-144000000D03*
X147096386Y-123631001D03*
X147220000Y-83040000D03*
X147220000Y-85580000D03*
X147220000Y-88120000D03*
X147220000Y-90660000D03*
X147220000Y-93200000D03*
X147220000Y-95740000D03*
X147220000Y-98280000D03*
X147220000Y-100820000D03*
X147220000Y-103360000D03*
X147220000Y-105900000D03*
X147220000Y-108440000D03*
X147220000Y-110980000D03*
X147220000Y-113520000D03*
X147220000Y-116060000D03*
X147220000Y-118600000D03*
X147220000Y-121140000D03*
X147220000Y-126220000D03*
X147220000Y-128760000D03*
X147220000Y-131300000D03*
X147220000Y-133840000D03*
X147220000Y-136380000D03*
X147220000Y-138920000D03*
X147220000Y-141460000D03*
X147220000Y-144000000D03*
%TD*%
D12*
%TO.C,JP4*%
X65500000Y-85420000D03*
D13*
X65500000Y-87960000D03*
X65500000Y-90500000D03*
%TD*%
D12*
%TO.C,JP3*%
X62000000Y-85420000D03*
D13*
X62000000Y-87960000D03*
X62000000Y-90500000D03*
%TD*%
D12*
%TO.C,JP5*%
X69000000Y-85420000D03*
D13*
X69000000Y-87960000D03*
X69000000Y-90500000D03*
%TD*%
D12*
%TO.C,J4*%
X99500000Y-110420000D03*
D13*
X99500000Y-112960000D03*
X99500000Y-115500000D03*
%TD*%
D12*
%TO.C,J2*%
X99500000Y-84500000D03*
D13*
X99500000Y-87040000D03*
X99500000Y-89580000D03*
X99500000Y-92120000D03*
X99500000Y-94660000D03*
X99500000Y-97200000D03*
X99500000Y-99740000D03*
X99500000Y-102280000D03*
%TD*%
D12*
%TO.C,JP1*%
X55000000Y-85420000D03*
D13*
X55000000Y-87960000D03*
X55000000Y-90500000D03*
%TD*%
D15*
%TO.C,U1*%
X63810000Y-128615000D03*
D10*
X63810000Y-126075000D03*
X63810000Y-123535000D03*
X63810000Y-120995000D03*
X63810000Y-118455000D03*
X63810000Y-115915000D03*
X63810000Y-113375000D03*
X56190000Y-113375000D03*
X56190000Y-115915000D03*
X56190000Y-118455000D03*
X56190000Y-120995000D03*
X56190000Y-123535000D03*
X56190000Y-126075000D03*
X56190000Y-128615000D03*
%TD*%
D15*
%TO.C,U3*%
X92500000Y-131040000D03*
D10*
X92500000Y-128500000D03*
X92500000Y-125960000D03*
X92500000Y-123420000D03*
X92500000Y-120880000D03*
X92500000Y-118340000D03*
X92500000Y-115800000D03*
X92500000Y-113260000D03*
X84880000Y-113260000D03*
X84880000Y-115800000D03*
X84880000Y-118340000D03*
X84880000Y-120880000D03*
X84880000Y-123420000D03*
X84880000Y-125960000D03*
X84880000Y-128500000D03*
X84880000Y-131040000D03*
%TD*%
M02*
