%TF.GenerationSoftware,KiCad,Pcbnew,9.0.7-9.0.7~ubuntu24.04.1*%
%TF.CreationDate,2026-03-18T09:41:28-05:00*%
%TF.ProjectId,protocard,70726f74-6f63-4617-9264-2e6b69636164,rev?*%
%TF.SameCoordinates,Original*%
%TF.FileFunction,Copper,L1,Top*%
%TF.FilePolarity,Positive*%
%FSLAX46Y46*%
G04 Gerber Fmt 4.6, Leading zero omitted, Abs format (unit mm)*
G04 Created by KiCad (PCBNEW 9.0.7-9.0.7~ubuntu24.04.1) date 2026-03-18 09:41:28*
%MOMM*%
%LPD*%
G01*
G04 APERTURE LIST*
G04 Aperture macros list*
%AMRoundRect*
0 Rectangle with rounded corners*
0 $1 Rounding radius*
0 $2 $3 $4 $5 $6 $7 $8 $9 X,Y pos of 4 corners*
0 Add a 4 corners polygon primitive as box body*
4,1,4,$2,$3,$4,$5,$6,$7,$8,$9,$2,$3,0*
0 Add four circle primitives for the rounded corners*
1,1,$1+$1,$2,$3*
1,1,$1+$1,$4,$5*
1,1,$1+$1,$6,$7*
1,1,$1+$1,$8,$9*
0 Add four rect primitives between the rounded corners*
20,1,$1+$1,$2,$3,$4,$5,0*
20,1,$1+$1,$4,$5,$6,$7,0*
20,1,$1+$1,$6,$7,$8,$9,0*
20,1,$1+$1,$8,$9,$2,$3,0*%
G04 Aperture macros list end*
%TA.AperFunction,ComponentPad*%
%ADD10C,1.600000*%
%TD*%
%TA.AperFunction,ComponentPad*%
%ADD11RoundRect,0.250000X-0.550000X-0.550000X0.550000X-0.550000X0.550000X0.550000X-0.550000X0.550000X0*%
%TD*%
%TA.AperFunction,ComponentPad*%
%ADD12R,1.700000X1.700000*%
%TD*%
%TA.AperFunction,ComponentPad*%
%ADD13C,1.700000*%
%TD*%
%TA.AperFunction,ComponentPad*%
%ADD14C,1.498600*%
%TD*%
%TA.AperFunction,ComponentPad*%
%ADD15RoundRect,0.250000X0.550000X0.550000X-0.550000X0.550000X-0.550000X-0.550000X0.550000X-0.550000X0*%
%TD*%
%TA.AperFunction,ViaPad*%
%ADD16C,0.600000*%
%TD*%
%TA.AperFunction,Conductor*%
%ADD17C,0.200000*%
%TD*%
G04 APERTURE END LIST*
D10*
%TO.P,U2,14,Vdd*%
%TO.N,+3V3*%
X78120000Y-113420000D03*
%TO.P,U2,13,J*%
%TO.N,unconnected-(U2-J-Pad13)*%
X78120000Y-115960000D03*
%TO.P,U2,12,H*%
%TO.N,+3V3*%
X78120000Y-118500000D03*
%TO.P,U2,11,G*%
X78120000Y-121040000D03*
%TO.P,U2,10,F*%
%TO.N,Net-(JP6-C)*%
X78120000Y-123580000D03*
%TO.P,U2,9,E*%
%TO.N,Net-(JP5-C)*%
X78120000Y-126120000D03*
%TO.P,U2,8,NC*%
%TO.N,unconnected-(U2-NC-Pad8)*%
X78120000Y-128660000D03*
%TO.P,U2,7,Vss*%
%TO.N,GND*%
X70500000Y-128660000D03*
%TO.P,U2,6,NC*%
%TO.N,unconnected-(U2-NC-Pad6)*%
X70500000Y-126120000D03*
%TO.P,U2,5,D*%
%TO.N,Net-(JP2-C)*%
X70500000Y-123580000D03*
%TO.P,U2,4,C*%
%TO.N,Net-(JP1-C)*%
X70500000Y-121040000D03*
%TO.P,U2,3,B*%
%TO.N,Net-(JP3-C)*%
X70500000Y-118500000D03*
%TO.P,U2,2,A*%
%TO.N,Net-(JP4-C)*%
X70500000Y-115960000D03*
D11*
%TO.P,U2,1,K*%
%TO.N,Net-(J2-Pin_3)*%
X70500000Y-113420000D03*
%TD*%
D12*
%TO.P,JP6,1,A*%
%TO.N,Net-(JP6-A)*%
X72500000Y-85420000D03*
D13*
%TO.P,JP6,2,C*%
%TO.N,Net-(JP6-C)*%
X72500000Y-87960000D03*
%TO.P,JP6,3,B*%
%TO.N,/A7*%
X72500000Y-90500000D03*
%TD*%
D12*
%TO.P,JP2,1,A*%
%TO.N,Net-(JP2-A)*%
X58500000Y-85420000D03*
D13*
%TO.P,JP2,2,C*%
%TO.N,Net-(JP2-C)*%
X58500000Y-87960000D03*
%TO.P,JP2,3,B*%
%TO.N,/A3*%
X58500000Y-90500000D03*
%TD*%
D14*
%TO.P,J1,1,1*%
%TO.N,D0*%
X91980000Y-138960000D03*
%TO.P,J1,2,2*%
%TO.N,A0*%
X91980000Y-141500000D03*
%TO.P,J1,3,3*%
%TO.N,D1*%
X89440000Y-138960000D03*
%TO.P,J1,4,4*%
%TO.N,A1*%
X89440000Y-141500000D03*
%TO.P,J1,5,5*%
%TO.N,D2*%
X86900000Y-138960000D03*
%TO.P,J1,6,6*%
%TO.N,/A2*%
X86900000Y-141500000D03*
%TO.P,J1,7,7*%
%TO.N,D3*%
X84360000Y-138960000D03*
%TO.P,J1,8,8*%
%TO.N,/A3*%
X84360000Y-141500000D03*
%TO.P,J1,9,9*%
%TO.N,D4*%
X81820000Y-138960000D03*
%TO.P,J1,10,10*%
%TO.N,/A4*%
X81820000Y-141500000D03*
%TO.P,J1,11,11*%
%TO.N,D5*%
X79280000Y-138960000D03*
%TO.P,J1,12,12*%
%TO.N,/A5*%
X79280000Y-141500000D03*
%TO.P,J1,13,13*%
%TO.N,D6*%
X76740000Y-138960000D03*
%TO.P,J1,14,14*%
%TO.N,/A6*%
X76740000Y-141500000D03*
%TO.P,J1,15,15*%
%TO.N,D7*%
X74200000Y-138960000D03*
%TO.P,J1,16,16*%
%TO.N,/A7*%
X74200000Y-141500000D03*
%TO.P,J1,17,17*%
%TO.N,OUT*%
X71660000Y-138960000D03*
%TO.P,J1,18,18*%
%TO.N,~{RESET}*%
X71660000Y-141500000D03*
%TO.P,J1,19,19*%
%TO.N,INP*%
X69120000Y-138960000D03*
%TO.P,J1,20,20*%
%TO.N,~{CLEAR}*%
X69120000Y-141500000D03*
%TO.P,J1,21,21*%
%TO.N,WAIT*%
X66580000Y-138960000D03*
%TO.P,J1,22,22*%
%TO.N,GND*%
X66580000Y-141500000D03*
%TO.P,J1,23,23*%
%TO.N,+3V3*%
X64040000Y-138960000D03*
%TO.P,J1,24,24*%
%TO.N,+5V*%
X64040000Y-141500000D03*
%TO.P,J1,25,25*%
%TO.N,unconnected-(J1-Pad25)*%
X61500000Y-138960000D03*
%TO.P,J1,26,26*%
%TO.N,unconnected-(J1-Pad26)*%
X61500000Y-141500000D03*
%TD*%
D12*
%TO.P,J3,1,Pin_1*%
%TO.N,+3V3*%
X99500000Y-122800000D03*
D13*
%TO.P,J3,2,Pin_2*%
X99500000Y-125340000D03*
%TO.P,J3,3,Pin_3*%
X99500000Y-127880000D03*
%TO.P,J3,4,Pin_4*%
%TO.N,+5V*%
X99500000Y-130420000D03*
%TO.P,J3,5,Pin_5*%
X99500000Y-132960000D03*
%TO.P,J3,6,Pin_6*%
X99500000Y-135500000D03*
%TD*%
%TO.P,REF\u002A\u002A,1*%
%TO.N,N/C*%
X103916386Y-123631001D03*
X104040000Y-83040000D03*
X104040000Y-85580000D03*
X104040000Y-88120000D03*
X104040000Y-90660000D03*
X104040000Y-93200000D03*
X104040000Y-95740000D03*
X104040000Y-98280000D03*
X104040000Y-100820000D03*
X104040000Y-103360000D03*
X104040000Y-105900000D03*
X104040000Y-108440000D03*
X104040000Y-110980000D03*
X104040000Y-113520000D03*
X104040000Y-116060000D03*
X104040000Y-118600000D03*
X104040000Y-121140000D03*
X104040000Y-126220000D03*
X104040000Y-128760000D03*
X104040000Y-131300000D03*
X104040000Y-133840000D03*
X104040000Y-136380000D03*
X104040000Y-138920000D03*
X104040000Y-141460000D03*
X104040000Y-144000000D03*
%TO.P,REF\u002A\u002A,2*%
X106456386Y-123631001D03*
X106580000Y-83040000D03*
X106580000Y-85580000D03*
X106580000Y-88120000D03*
X106580000Y-90660000D03*
X106580000Y-93200000D03*
X106580000Y-95740000D03*
X106580000Y-98280000D03*
X106580000Y-100820000D03*
X106580000Y-103360000D03*
X106580000Y-105900000D03*
X106580000Y-108440000D03*
X106580000Y-110980000D03*
X106580000Y-113520000D03*
X106580000Y-116060000D03*
X106580000Y-118600000D03*
X106580000Y-121140000D03*
X106580000Y-126220000D03*
X106580000Y-128760000D03*
X106580000Y-131300000D03*
X106580000Y-133840000D03*
X106580000Y-136380000D03*
X106580000Y-138920000D03*
X106580000Y-141460000D03*
X106580000Y-144000000D03*
%TO.P,REF\u002A\u002A,3*%
X108996386Y-123631001D03*
X109120000Y-83040000D03*
X109120000Y-85580000D03*
X109120000Y-88120000D03*
X109120000Y-90660000D03*
X109120000Y-93200000D03*
X109120000Y-95740000D03*
X109120000Y-98280000D03*
X109120000Y-100820000D03*
X109120000Y-103360000D03*
X109120000Y-105900000D03*
X109120000Y-108440000D03*
X109120000Y-110980000D03*
X109120000Y-113520000D03*
X109120000Y-116060000D03*
X109120000Y-118600000D03*
X109120000Y-121140000D03*
X109120000Y-126220000D03*
X109120000Y-128760000D03*
X109120000Y-131300000D03*
X109120000Y-133840000D03*
X109120000Y-136380000D03*
X109120000Y-138920000D03*
X109120000Y-141460000D03*
X109120000Y-144000000D03*
%TO.P,REF\u002A\u002A,4*%
X111536386Y-123631001D03*
X111660000Y-83040000D03*
X111660000Y-85580000D03*
X111660000Y-88120000D03*
X111660000Y-90660000D03*
X111660000Y-93200000D03*
X111660000Y-95740000D03*
X111660000Y-98280000D03*
X111660000Y-100820000D03*
X111660000Y-103360000D03*
X111660000Y-105900000D03*
X111660000Y-108440000D03*
X111660000Y-110980000D03*
X111660000Y-113520000D03*
X111660000Y-116060000D03*
X111660000Y-118600000D03*
X111660000Y-121140000D03*
X111660000Y-126220000D03*
X111660000Y-128760000D03*
X111660000Y-131300000D03*
X111660000Y-133840000D03*
X111660000Y-136380000D03*
X111660000Y-138920000D03*
X111660000Y-141460000D03*
X111660000Y-144000000D03*
%TO.P,REF\u002A\u002A,5*%
X114076386Y-123631001D03*
X114200000Y-83040000D03*
X114200000Y-85580000D03*
X114200000Y-88120000D03*
X114200000Y-90660000D03*
X114200000Y-93200000D03*
X114200000Y-95740000D03*
X114200000Y-98280000D03*
X114200000Y-100820000D03*
X114200000Y-103360000D03*
X114200000Y-105900000D03*
X114200000Y-108440000D03*
X114200000Y-110980000D03*
X114200000Y-113520000D03*
X114200000Y-116060000D03*
X114200000Y-118600000D03*
X114200000Y-121140000D03*
X114200000Y-126220000D03*
X114200000Y-128760000D03*
X114200000Y-131300000D03*
X114200000Y-133840000D03*
X114200000Y-136380000D03*
X114200000Y-138920000D03*
X114200000Y-141460000D03*
X114200000Y-144000000D03*
%TO.P,REF\u002A\u002A,6*%
X116616386Y-123631001D03*
X116740000Y-83040000D03*
X116740000Y-85580000D03*
X116740000Y-88120000D03*
X116740000Y-90660000D03*
X116740000Y-93200000D03*
X116740000Y-95740000D03*
X116740000Y-98280000D03*
X116740000Y-100820000D03*
X116740000Y-103360000D03*
X116740000Y-105900000D03*
X116740000Y-108440000D03*
X116740000Y-110980000D03*
X116740000Y-113520000D03*
X116740000Y-116060000D03*
X116740000Y-118600000D03*
X116740000Y-121140000D03*
X116740000Y-126220000D03*
X116740000Y-128760000D03*
X116740000Y-131300000D03*
X116740000Y-133840000D03*
X116740000Y-136380000D03*
X116740000Y-138920000D03*
X116740000Y-141460000D03*
X116740000Y-144000000D03*
%TO.P,REF\u002A\u002A,7*%
X119156386Y-123631001D03*
X119280000Y-83040000D03*
X119280000Y-85580000D03*
X119280000Y-88120000D03*
X119280000Y-90660000D03*
X119280000Y-93200000D03*
X119280000Y-95740000D03*
X119280000Y-98280000D03*
X119280000Y-100820000D03*
X119280000Y-103360000D03*
X119280000Y-105900000D03*
X119280000Y-108440000D03*
X119280000Y-110980000D03*
X119280000Y-113520000D03*
X119280000Y-116060000D03*
X119280000Y-118600000D03*
X119280000Y-121140000D03*
X119280000Y-126220000D03*
X119280000Y-128760000D03*
X119280000Y-131300000D03*
X119280000Y-133840000D03*
X119280000Y-136380000D03*
X119280000Y-138920000D03*
X119280000Y-141460000D03*
X119280000Y-144000000D03*
%TO.P,REF\u002A\u002A,8*%
X121696386Y-123631001D03*
X121820000Y-83040000D03*
X121820000Y-85580000D03*
X121820000Y-88120000D03*
X121820000Y-90660000D03*
X121820000Y-93200000D03*
X121820000Y-95740000D03*
X121820000Y-98280000D03*
X121820000Y-100820000D03*
X121820000Y-103360000D03*
X121820000Y-105900000D03*
X121820000Y-108440000D03*
X121820000Y-110980000D03*
X121820000Y-113520000D03*
X121820000Y-116060000D03*
X121820000Y-118600000D03*
X121820000Y-121140000D03*
X121820000Y-126220000D03*
X121820000Y-128760000D03*
X121820000Y-131300000D03*
X121820000Y-133840000D03*
X121820000Y-136380000D03*
X121820000Y-138920000D03*
X121820000Y-141460000D03*
X121820000Y-144000000D03*
%TO.P,REF\u002A\u002A,9*%
X124236386Y-123631001D03*
X124360000Y-83040000D03*
X124360000Y-85580000D03*
X124360000Y-88120000D03*
X124360000Y-90660000D03*
X124360000Y-93200000D03*
X124360000Y-95740000D03*
X124360000Y-98280000D03*
X124360000Y-100820000D03*
X124360000Y-103360000D03*
X124360000Y-105900000D03*
X124360000Y-108440000D03*
X124360000Y-110980000D03*
X124360000Y-113520000D03*
X124360000Y-116060000D03*
X124360000Y-118600000D03*
X124360000Y-121140000D03*
X124360000Y-126220000D03*
X124360000Y-128760000D03*
X124360000Y-131300000D03*
X124360000Y-133840000D03*
X124360000Y-136380000D03*
X124360000Y-138920000D03*
X124360000Y-141460000D03*
X124360000Y-144000000D03*
%TO.P,REF\u002A\u002A,10*%
X126776386Y-123631001D03*
X126900000Y-83040000D03*
X126900000Y-85580000D03*
X126900000Y-88120000D03*
X126900000Y-90660000D03*
X126900000Y-93200000D03*
X126900000Y-95740000D03*
X126900000Y-98280000D03*
X126900000Y-100820000D03*
X126900000Y-103360000D03*
X126900000Y-105900000D03*
X126900000Y-108440000D03*
X126900000Y-110980000D03*
X126900000Y-113520000D03*
X126900000Y-116060000D03*
X126900000Y-118600000D03*
X126900000Y-121140000D03*
X126900000Y-126220000D03*
X126900000Y-128760000D03*
X126900000Y-131300000D03*
X126900000Y-133840000D03*
X126900000Y-136380000D03*
X126900000Y-138920000D03*
X126900000Y-141460000D03*
X126900000Y-144000000D03*
%TO.P,REF\u002A\u002A,11*%
X129316386Y-123631001D03*
X129440000Y-83040000D03*
X129440000Y-85580000D03*
X129440000Y-88120000D03*
X129440000Y-90660000D03*
X129440000Y-93200000D03*
X129440000Y-95740000D03*
X129440000Y-98280000D03*
X129440000Y-100820000D03*
X129440000Y-103360000D03*
X129440000Y-105900000D03*
X129440000Y-108440000D03*
X129440000Y-110980000D03*
X129440000Y-113520000D03*
X129440000Y-116060000D03*
X129440000Y-118600000D03*
X129440000Y-121140000D03*
X129440000Y-126220000D03*
X129440000Y-128760000D03*
X129440000Y-131300000D03*
X129440000Y-133840000D03*
X129440000Y-136380000D03*
X129440000Y-138920000D03*
X129440000Y-141460000D03*
X129440000Y-144000000D03*
%TO.P,REF\u002A\u002A,12*%
X131856386Y-123631001D03*
X131980000Y-83040000D03*
X131980000Y-85580000D03*
X131980000Y-88120000D03*
X131980000Y-90660000D03*
X131980000Y-93200000D03*
X131980000Y-95740000D03*
X131980000Y-98280000D03*
X131980000Y-100820000D03*
X131980000Y-103360000D03*
X131980000Y-105900000D03*
X131980000Y-108440000D03*
X131980000Y-110980000D03*
X131980000Y-113520000D03*
X131980000Y-116060000D03*
X131980000Y-118600000D03*
X131980000Y-121140000D03*
X131980000Y-126220000D03*
X131980000Y-128760000D03*
X131980000Y-131300000D03*
X131980000Y-133840000D03*
X131980000Y-136380000D03*
X131980000Y-138920000D03*
X131980000Y-141460000D03*
X131980000Y-144000000D03*
%TO.P,REF\u002A\u002A,13*%
X134396386Y-123631001D03*
X134520000Y-83040000D03*
X134520000Y-85580000D03*
X134520000Y-88120000D03*
X134520000Y-90660000D03*
X134520000Y-93200000D03*
X134520000Y-95740000D03*
X134520000Y-98280000D03*
X134520000Y-100820000D03*
X134520000Y-103360000D03*
X134520000Y-105900000D03*
X134520000Y-108440000D03*
X134520000Y-110980000D03*
X134520000Y-113520000D03*
X134520000Y-116060000D03*
X134520000Y-118600000D03*
X134520000Y-121140000D03*
X134520000Y-126220000D03*
X134520000Y-128760000D03*
X134520000Y-131300000D03*
X134520000Y-133840000D03*
X134520000Y-136380000D03*
X134520000Y-138920000D03*
X134520000Y-141460000D03*
X134520000Y-144000000D03*
%TO.P,REF\u002A\u002A,14*%
X136936386Y-123631001D03*
X137060000Y-83040000D03*
X137060000Y-85580000D03*
X137060000Y-88120000D03*
X137060000Y-90660000D03*
X137060000Y-93200000D03*
X137060000Y-95740000D03*
X137060000Y-98280000D03*
X137060000Y-100820000D03*
X137060000Y-103360000D03*
X137060000Y-105900000D03*
X137060000Y-108440000D03*
X137060000Y-110980000D03*
X137060000Y-113520000D03*
X137060000Y-116060000D03*
X137060000Y-118600000D03*
X137060000Y-121140000D03*
X137060000Y-126220000D03*
X137060000Y-128760000D03*
X137060000Y-131300000D03*
X137060000Y-133840000D03*
X137060000Y-136380000D03*
X137060000Y-138920000D03*
X137060000Y-141460000D03*
X137060000Y-144000000D03*
%TO.P,REF\u002A\u002A,15*%
X139476386Y-123631001D03*
X139600000Y-83040000D03*
X139600000Y-85580000D03*
X139600000Y-88120000D03*
X139600000Y-90660000D03*
X139600000Y-93200000D03*
X139600000Y-95740000D03*
X139600000Y-98280000D03*
X139600000Y-100820000D03*
X139600000Y-103360000D03*
X139600000Y-105900000D03*
X139600000Y-108440000D03*
X139600000Y-110980000D03*
X139600000Y-113520000D03*
X139600000Y-116060000D03*
X139600000Y-118600000D03*
X139600000Y-121140000D03*
X139600000Y-126220000D03*
X139600000Y-128760000D03*
X139600000Y-131300000D03*
X139600000Y-133840000D03*
X139600000Y-136380000D03*
X139600000Y-138920000D03*
X139600000Y-141460000D03*
X139600000Y-144000000D03*
%TO.P,REF\u002A\u002A,16*%
X142016386Y-123631001D03*
X142140000Y-83040000D03*
X142140000Y-85580000D03*
X142140000Y-88120000D03*
X142140000Y-90660000D03*
X142140000Y-93200000D03*
X142140000Y-95740000D03*
X142140000Y-98280000D03*
X142140000Y-100820000D03*
X142140000Y-103360000D03*
X142140000Y-105900000D03*
X142140000Y-108440000D03*
X142140000Y-110980000D03*
X142140000Y-113520000D03*
X142140000Y-116060000D03*
X142140000Y-118600000D03*
X142140000Y-121140000D03*
X142140000Y-126220000D03*
X142140000Y-128760000D03*
X142140000Y-131300000D03*
X142140000Y-133840000D03*
X142140000Y-136380000D03*
X142140000Y-138920000D03*
X142140000Y-141460000D03*
X142140000Y-144000000D03*
X144556386Y-123631001D03*
X144680000Y-83040000D03*
X144680000Y-85580000D03*
X144680000Y-88120000D03*
X144680000Y-90660000D03*
X144680000Y-93200000D03*
X144680000Y-95740000D03*
X144680000Y-98280000D03*
X144680000Y-100820000D03*
X144680000Y-103360000D03*
X144680000Y-105900000D03*
X144680000Y-108440000D03*
X144680000Y-110980000D03*
X144680000Y-113520000D03*
X144680000Y-116060000D03*
X144680000Y-118600000D03*
X144680000Y-121140000D03*
X144680000Y-126220000D03*
X144680000Y-128760000D03*
X144680000Y-131300000D03*
X144680000Y-133840000D03*
X144680000Y-136380000D03*
X144680000Y-138920000D03*
X144680000Y-141460000D03*
X144680000Y-144000000D03*
X147096386Y-123631001D03*
X147220000Y-83040000D03*
X147220000Y-85580000D03*
X147220000Y-88120000D03*
X147220000Y-90660000D03*
X147220000Y-93200000D03*
X147220000Y-95740000D03*
X147220000Y-98280000D03*
X147220000Y-100820000D03*
X147220000Y-103360000D03*
X147220000Y-105900000D03*
X147220000Y-108440000D03*
X147220000Y-110980000D03*
X147220000Y-113520000D03*
X147220000Y-116060000D03*
X147220000Y-118600000D03*
X147220000Y-121140000D03*
X147220000Y-126220000D03*
X147220000Y-128760000D03*
X147220000Y-131300000D03*
X147220000Y-133840000D03*
X147220000Y-136380000D03*
X147220000Y-138920000D03*
X147220000Y-141460000D03*
X147220000Y-144000000D03*
%TD*%
D12*
%TO.P,JP4,1,A*%
%TO.N,Net-(JP4-A)*%
X65500000Y-85420000D03*
D13*
%TO.P,JP4,2,C*%
%TO.N,Net-(JP4-C)*%
X65500000Y-87960000D03*
%TO.P,JP4,3,B*%
%TO.N,/A5*%
X65500000Y-90500000D03*
%TD*%
D12*
%TO.P,JP3,1,A*%
%TO.N,Net-(JP3-A)*%
X62000000Y-85420000D03*
D13*
%TO.P,JP3,2,C*%
%TO.N,Net-(JP3-C)*%
X62000000Y-87960000D03*
%TO.P,JP3,3,B*%
%TO.N,/A4*%
X62000000Y-90500000D03*
%TD*%
D12*
%TO.P,JP5,1,A*%
%TO.N,Net-(JP5-A)*%
X69000000Y-85420000D03*
D13*
%TO.P,JP5,2,C*%
%TO.N,Net-(JP5-C)*%
X69000000Y-87960000D03*
%TO.P,JP5,3,B*%
%TO.N,/A6*%
X69000000Y-90500000D03*
%TD*%
D12*
%TO.P,J4,1,Pin_1*%
%TO.N,GND*%
X99500000Y-110420000D03*
D13*
%TO.P,J4,2,Pin_2*%
X99500000Y-112960000D03*
%TO.P,J4,3,Pin_3*%
X99500000Y-115500000D03*
%TD*%
D12*
%TO.P,J2,1,Pin_1*%
%TO.N,A0*%
X99500000Y-84500000D03*
D13*
%TO.P,J2,2,Pin_2*%
%TO.N,A1*%
X99500000Y-87040000D03*
%TO.P,J2,3,Pin_3*%
%TO.N,Net-(J2-Pin_3)*%
X99500000Y-89580000D03*
%TO.P,J2,4,Pin_4*%
%TO.N,Net-(J2-Pin_4)*%
X99500000Y-92120000D03*
%TO.P,J2,5,Pin_5*%
%TO.N,Net-(J2-Pin_5)*%
X99500000Y-94660000D03*
%TO.P,J2,6,Pin_6*%
%TO.N,INP*%
X99500000Y-97200000D03*
%TO.P,J2,7,Pin_7*%
%TO.N,OUT*%
X99500000Y-99740000D03*
%TO.P,J2,8,Pin_8*%
%TO.N,WAIT*%
X99500000Y-102280000D03*
%TD*%
D12*
%TO.P,JP1,1,A*%
%TO.N,Net-(JP1-A)*%
X55000000Y-85420000D03*
D13*
%TO.P,JP1,2,C*%
%TO.N,Net-(JP1-C)*%
X55000000Y-87960000D03*
%TO.P,JP1,3,B*%
%TO.N,/A2*%
X55000000Y-90500000D03*
%TD*%
D15*
%TO.P,U1,1*%
%TO.N,/A7*%
X63810000Y-128615000D03*
D10*
%TO.P,U1,2*%
%TO.N,Net-(JP6-A)*%
X63810000Y-126075000D03*
%TO.P,U1,3*%
%TO.N,/A5*%
X63810000Y-123535000D03*
%TO.P,U1,4*%
%TO.N,Net-(JP4-A)*%
X63810000Y-120995000D03*
%TO.P,U1,5*%
%TO.N,/A3*%
X63810000Y-118455000D03*
%TO.P,U1,6*%
%TO.N,Net-(JP2-A)*%
X63810000Y-115915000D03*
%TO.P,U1,7,GND*%
%TO.N,GND*%
X63810000Y-113375000D03*
%TO.P,U1,8*%
%TO.N,Net-(JP1-A)*%
X56190000Y-113375000D03*
%TO.P,U1,9*%
%TO.N,/A2*%
X56190000Y-115915000D03*
%TO.P,U1,10*%
%TO.N,Net-(JP3-A)*%
X56190000Y-118455000D03*
%TO.P,U1,11*%
%TO.N,/A4*%
X56190000Y-120995000D03*
%TO.P,U1,12*%
%TO.N,Net-(JP5-A)*%
X56190000Y-123535000D03*
%TO.P,U1,13*%
%TO.N,/A6*%
X56190000Y-126075000D03*
%TO.P,U1,14,VCC*%
%TO.N,+3V3*%
X56190000Y-128615000D03*
%TD*%
D15*
%TO.P,U3,1,A0*%
%TO.N,GND*%
X92500000Y-131040000D03*
D10*
%TO.P,U3,2,A1*%
X92500000Y-128500000D03*
%TO.P,U3,3,A2*%
X92500000Y-125960000D03*
%TO.P,U3,4,P0*%
%TO.N,D0*%
X92500000Y-123420000D03*
%TO.P,U3,5,P1*%
%TO.N,D1*%
X92500000Y-120880000D03*
%TO.P,U3,6,P2*%
%TO.N,D2*%
X92500000Y-118340000D03*
%TO.P,U3,7,P3*%
%TO.N,D3*%
X92500000Y-115800000D03*
%TO.P,U3,8,GND*%
%TO.N,GND*%
X92500000Y-113260000D03*
%TO.P,U3,9,P4*%
%TO.N,D4*%
X84880000Y-113260000D03*
%TO.P,U3,10,P5*%
%TO.N,D5*%
X84880000Y-115800000D03*
%TO.P,U3,11,P6*%
%TO.N,D6*%
X84880000Y-118340000D03*
%TO.P,U3,12,P7*%
%TO.N,D7*%
X84880000Y-120880000D03*
%TO.P,U3,13,~{INT}*%
%TO.N,unconnected-(U3-~{INT}-Pad13)*%
X84880000Y-123420000D03*
%TO.P,U3,14,SCL*%
%TO.N,Net-(J2-Pin_4)*%
X84880000Y-125960000D03*
%TO.P,U3,15,SDA*%
%TO.N,Net-(J2-Pin_5)*%
X84880000Y-128500000D03*
%TO.P,U3,16,VDD*%
%TO.N,+3V3*%
X84880000Y-131040000D03*
%TD*%
D16*
%TO.N,Net-(JP5-C)*%
X67500000Y-115500000D03*
%TO.N,WAIT*%
X86500000Y-110500000D03*
%TO.N,/A2*%
X81500000Y-135500000D03*
%TO.N,+3V3*%
X73500000Y-131500000D03*
X62500000Y-145500000D03*
%TO.N,/A7*%
X54000000Y-114500000D03*
%TO.N,/A4*%
X53500000Y-125500000D03*
%TO.N,/A5*%
X54000000Y-119000000D03*
X72499998Y-136500000D03*
%TO.N,/A3*%
X76500000Y-134500000D03*
%TO.N,+5V*%
X66500000Y-145500000D03*
%TO.N,Net-(JP2-A)*%
X57898959Y-113101041D03*
%TO.N,Net-(JP4-A)*%
X60073960Y-115276043D03*
%TO.N,Net-(JP4-C)*%
X76000000Y-89500000D03*
%TO.N,Net-(JP6-C)*%
X76500000Y-91500000D03*
%TD*%
D17*
%TO.N,D3*%
X92500000Y-115800000D02*
X89500000Y-118800000D01*
X89500000Y-118800000D02*
X89500000Y-135500000D01*
X89500000Y-135500000D02*
X87500000Y-137500000D01*
X87500000Y-137500000D02*
X85820000Y-137500000D01*
X85820000Y-137500000D02*
X84360000Y-138960000D01*
%TO.N,D5*%
X84568629Y-137300000D02*
X80940000Y-137300000D01*
%TO.N,D2*%
X89900000Y-135960000D02*
X89900000Y-120940000D01*
%TO.N,D7*%
X86101000Y-134636256D02*
X86101000Y-122101000D01*
%TO.N,D0*%
X90700000Y-137680000D02*
X90700000Y-125220000D01*
%TO.N,D6*%
X84880000Y-118340000D02*
X86501000Y-119961000D01*
%TO.N,D4*%
X81820000Y-138960000D02*
X83080000Y-137700000D01*
%TO.N,D0*%
X90700000Y-125220000D02*
X92500000Y-123420000D01*
X91980000Y-138960000D02*
X90700000Y-137680000D01*
%TO.N,D6*%
X86501000Y-119961000D02*
X86501000Y-134801942D01*
%TO.N,D7*%
X74200000Y-138960000D02*
X76660000Y-136500000D01*
%TO.N,D2*%
X86900000Y-138960000D02*
X89900000Y-135960000D01*
%TO.N,D4*%
X87900000Y-134854314D02*
X87900001Y-116280001D01*
X85054314Y-137700000D02*
X87900000Y-134854314D01*
X83080000Y-137700000D02*
X85054314Y-137700000D01*
%TO.N,D5*%
X80940000Y-137300000D02*
X79280000Y-138960000D01*
X84880000Y-115800000D02*
X87500000Y-118420000D01*
%TO.N,D7*%
X84237256Y-136500000D02*
X86101000Y-134636256D01*
X86101000Y-122101000D02*
X84880000Y-120880000D01*
%TO.N,D6*%
X84402942Y-136900000D02*
X78800000Y-136900000D01*
%TO.N,D1*%
X89440000Y-138960000D02*
X90300000Y-138100000D01*
%TO.N,D4*%
X87900001Y-116280001D02*
X84880000Y-113260000D01*
%TO.N,D5*%
X87500000Y-118420000D02*
X87500000Y-134368629D01*
%TO.N,D1*%
X90300000Y-138100000D02*
X90300000Y-123080000D01*
X90300000Y-123080000D02*
X92500000Y-120880000D01*
%TO.N,D6*%
X78800000Y-136900000D02*
X76740000Y-138960000D01*
%TO.N,D2*%
X89900000Y-120940000D02*
X92500000Y-118340000D01*
%TO.N,D5*%
X87500000Y-134368629D02*
X84568629Y-137300000D01*
%TO.N,D7*%
X76660000Y-136500000D02*
X84237256Y-136500000D01*
%TO.N,D6*%
X86501000Y-134801942D02*
X84402942Y-136900000D01*
%TO.N,Net-(JP5-C)*%
X78120000Y-126120000D02*
X76500000Y-124500000D01*
X76500000Y-124500000D02*
X76500000Y-119500000D01*
X76500000Y-119500000D02*
X74399000Y-117399000D01*
X74399000Y-117399000D02*
X69399000Y-117399000D01*
X69399000Y-117399000D02*
X67500000Y-115500000D01*
%TO.N,WAIT*%
X92500000Y-103500000D02*
X86500000Y-109500000D01*
X86500000Y-109500000D02*
X86500000Y-110500000D01*
X99500000Y-102280000D02*
X98280000Y-103500000D01*
X98280000Y-103500000D02*
X92500000Y-103500000D01*
%TO.N,A1*%
X92449700Y-142550300D02*
X90490300Y-142550300D01*
X95500000Y-139500000D02*
X92449700Y-142550300D01*
X100651000Y-95914686D02*
X100651000Y-117349000D01*
X100651000Y-117349000D02*
X95500000Y-122500000D01*
X90490300Y-142550300D02*
X89440000Y-141500000D01*
X101051000Y-95514686D02*
X100651000Y-95914686D01*
X95500000Y-122500000D02*
X95500000Y-139500000D01*
X99500000Y-87040000D02*
X101051000Y-88591000D01*
X101051000Y-88591000D02*
X101051000Y-95514686D01*
%TO.N,/A2*%
X66500000Y-124500000D02*
X64096000Y-122096000D01*
X62371000Y-122096000D02*
X56190000Y-115915000D01*
X81500000Y-135500000D02*
X72500000Y-135500000D01*
X66500000Y-129500000D02*
X66500000Y-124500000D01*
X72500000Y-135500000D02*
X66500000Y-129500000D01*
X64096000Y-122096000D02*
X62371000Y-122096000D01*
%TO.N,+3V3*%
X78120000Y-118500000D02*
X78120000Y-121040000D01*
X100651000Y-140349000D02*
X94500000Y-146500000D01*
X56190000Y-131110000D02*
X64040000Y-138960000D01*
X80500000Y-123420000D02*
X78120000Y-121040000D01*
X99500000Y-127880000D02*
X100651000Y-129031000D01*
X80500000Y-126660000D02*
X80500000Y-123420000D01*
X78120000Y-113420000D02*
X77019000Y-114521000D01*
X77019000Y-117399000D02*
X78120000Y-118500000D01*
X63500000Y-146500000D02*
X62500000Y-145500000D01*
X94500000Y-146500000D02*
X63500000Y-146500000D01*
X56190000Y-128615000D02*
X56190000Y-131110000D01*
X99500000Y-125340000D02*
X99500000Y-127880000D01*
X84880000Y-131040000D02*
X80500000Y-126660000D01*
X77019000Y-114521000D02*
X77019000Y-117399000D01*
X99500000Y-122800000D02*
X99500000Y-125340000D01*
X84880000Y-131040000D02*
X73960000Y-131040000D01*
X100651000Y-129031000D02*
X100651000Y-140349000D01*
X73960000Y-131040000D02*
X73500000Y-131500000D01*
%TO.N,/A6*%
X59300000Y-91700000D02*
X58537256Y-91700000D01*
X61278760Y-89349000D02*
X60000000Y-90627760D01*
X60000000Y-91000000D02*
X59300000Y-91700000D01*
X55057500Y-127207500D02*
X56190000Y-126075000D01*
X51000000Y-99237259D02*
X51000000Y-120885000D01*
X67849000Y-89349000D02*
X61278760Y-89349000D01*
X60000000Y-90627760D02*
X60000000Y-91000000D01*
X74740000Y-143500000D02*
X57500000Y-143500000D01*
X55057500Y-141057500D02*
X55057500Y-127207500D01*
X51000000Y-120885000D02*
X56190000Y-126075000D01*
X58537256Y-91700000D02*
X51000000Y-99237259D01*
X69000000Y-90500000D02*
X67849000Y-89349000D01*
X76740000Y-141500000D02*
X74740000Y-143500000D01*
X57500000Y-143500000D02*
X55057500Y-141057500D01*
%TO.N,/A7*%
X53200000Y-113700000D02*
X54000000Y-114500000D01*
X74200000Y-141500000D02*
X73149700Y-140449700D01*
X53002000Y-100235259D02*
X53002000Y-110233602D01*
X59237256Y-94000000D02*
X53002000Y-100235259D01*
X69000000Y-94000000D02*
X59237256Y-94000000D01*
X73149700Y-140449700D02*
X73149700Y-138149700D01*
X73149700Y-138149700D02*
X63810000Y-128810000D01*
X63810000Y-128810000D02*
X63810000Y-128615000D01*
X72500000Y-90500000D02*
X69000000Y-94000000D01*
X53002000Y-110233602D02*
X53200000Y-110431602D01*
X53200000Y-110431602D02*
X53200000Y-113700000D01*
%TO.N,/A4*%
X58702942Y-92100000D02*
X51400000Y-99402944D01*
X62000000Y-90500000D02*
X60400000Y-92100000D01*
X54500000Y-126500000D02*
X53500000Y-125500000D01*
X57500000Y-144500000D02*
X54500000Y-141500000D01*
X55058630Y-120995000D02*
X56190000Y-120995000D01*
X54500000Y-141500000D02*
X54500000Y-126500000D01*
X58500000Y-144500000D02*
X57500000Y-144500000D01*
X81820000Y-141500000D02*
X78820000Y-144500000D01*
X51400000Y-117336370D02*
X55058630Y-120995000D01*
X78820000Y-144500000D02*
X58500000Y-144500000D01*
X51400000Y-99402944D02*
X51400000Y-117336370D01*
X60400000Y-92100000D02*
X58702942Y-92100000D01*
%TO.N,/A5*%
X65500000Y-90500000D02*
X63500000Y-92500000D01*
X51800000Y-116800000D02*
X54000000Y-119000000D01*
X65500000Y-125225000D02*
X65500000Y-129500002D01*
X58868628Y-92500000D02*
X51800000Y-99568629D01*
X65500000Y-129500002D02*
X72499998Y-136500000D01*
X51800000Y-111931371D02*
X51800000Y-116800000D01*
X51800000Y-99568629D02*
X51800000Y-110731486D01*
X51902000Y-111829371D02*
X51800000Y-111931371D01*
X63810000Y-123535000D02*
X65500000Y-125225000D01*
X51902000Y-110833486D02*
X51902000Y-111829371D01*
X63500000Y-92500000D02*
X58868628Y-92500000D01*
X51800000Y-110731486D02*
X51902000Y-110833486D01*
%TO.N,A0*%
X101500000Y-94631371D02*
X102300000Y-93831371D01*
X95901000Y-139666100D02*
X95901000Y-123099000D01*
X91980000Y-141500000D02*
X90929700Y-140449700D01*
X101500000Y-117500000D02*
X101500000Y-94631371D01*
X88389700Y-141935049D02*
X89405951Y-142951300D01*
X95901000Y-123099000D02*
X101500000Y-117500000D01*
X90929700Y-140449700D02*
X89004951Y-140449700D01*
X100550000Y-84500000D02*
X99500000Y-84500000D01*
X89405951Y-142951300D02*
X92615800Y-142951300D01*
X89004951Y-140449700D02*
X88389700Y-141064951D01*
X102300000Y-93831371D02*
X102300000Y-86250000D01*
X88389700Y-141064951D02*
X88389700Y-141935049D01*
X92615800Y-142951300D02*
X95901000Y-139666100D01*
X102300000Y-86250000D02*
X100550000Y-84500000D01*
%TO.N,/A3*%
X76500000Y-134500000D02*
X72500000Y-134500000D01*
X67500000Y-122145000D02*
X63810000Y-118455000D01*
X72500000Y-134500000D02*
X67500000Y-129500000D01*
X67500000Y-129500000D02*
X67500000Y-122145000D01*
%TO.N,+5V*%
X95500000Y-144500000D02*
X94500000Y-145500000D01*
X99500000Y-132960000D02*
X99500000Y-135500000D01*
X99500000Y-135500000D02*
X99500000Y-140500000D01*
X99500000Y-140500000D02*
X95500000Y-144500000D01*
X94500000Y-145500000D02*
X66500000Y-145500000D01*
X99500000Y-130420000D02*
X99500000Y-132960000D01*
%TO.N,Net-(JP1-C)*%
X73816685Y-83869000D02*
X75000000Y-85052315D01*
X57749000Y-83869000D02*
X73816685Y-83869000D01*
X54000000Y-100368629D02*
X54000000Y-110000000D01*
X71000000Y-95000000D02*
X59368629Y-95000000D01*
X56500000Y-85118000D02*
X57749000Y-83869000D01*
X55000000Y-111000000D02*
X64500000Y-111000000D01*
X75000000Y-85052315D02*
X75000000Y-91000000D01*
X75000000Y-91000000D02*
X71000000Y-95000000D01*
X55000000Y-87960000D02*
X56500000Y-86460000D01*
X64500000Y-111000000D02*
X66000000Y-112500000D01*
X54000000Y-110000000D02*
X55000000Y-111000000D01*
X66000000Y-116540000D02*
X70500000Y-121040000D01*
X66000000Y-112500000D02*
X66000000Y-116540000D01*
X59368629Y-95000000D02*
X54000000Y-100368629D01*
X56500000Y-86460000D02*
X56500000Y-85118000D01*
%TO.N,Net-(JP2-A)*%
X63810000Y-115915000D02*
X59793678Y-115915000D01*
X59793678Y-115915000D02*
X57898959Y-114020281D01*
X57898959Y-114020281D02*
X57898959Y-113101041D01*
%TO.N,Net-(JP4-A)*%
X53500000Y-110165921D02*
X54834079Y-111500000D01*
X73650999Y-84269000D02*
X73999000Y-84617002D01*
X58000000Y-111500000D02*
X60073960Y-113573960D01*
X53500000Y-100302944D02*
X53500000Y-110165921D01*
X54834079Y-111500000D02*
X58000000Y-111500000D01*
X65500000Y-85420000D02*
X66651000Y-84269000D01*
X73999000Y-90628760D02*
X70127760Y-94500000D01*
X60073960Y-113573960D02*
X60073960Y-115276043D01*
X59302944Y-94500000D02*
X53500000Y-100302944D01*
X66651000Y-84269000D02*
X73650999Y-84269000D01*
X70127760Y-94500000D02*
X59302944Y-94500000D01*
X73999000Y-84617002D02*
X73999000Y-90628760D01*
%TO.N,Net-(JP4-C)*%
X75334315Y-91600000D02*
X75100000Y-91834315D01*
X54500000Y-109500000D02*
X55500000Y-110500000D01*
X75100000Y-91900000D02*
X71500000Y-95500000D01*
X75100000Y-91834315D02*
X75100000Y-91900000D01*
X65040000Y-110500000D02*
X70500000Y-115960000D01*
X76000000Y-91000000D02*
X75400000Y-91600000D01*
X76000000Y-89500000D02*
X76000000Y-91000000D01*
X54500000Y-100434314D02*
X54500000Y-109500000D01*
X55500000Y-110500000D02*
X65040000Y-110500000D01*
X71500000Y-95500000D02*
X59434314Y-95500000D01*
X59434314Y-95500000D02*
X54500000Y-100434314D01*
X75400000Y-91600000D02*
X75334315Y-91600000D01*
%TO.N,Net-(JP5-A)*%
X52200000Y-116200000D02*
X55556000Y-119556000D01*
X70151000Y-90976760D02*
X68127760Y-93000000D01*
X52202000Y-110564972D02*
X52304000Y-110666972D01*
X52304000Y-111995885D02*
X52200000Y-112099885D01*
X57500000Y-122225000D02*
X56190000Y-123535000D01*
X69000000Y-85420000D02*
X70151000Y-86571000D01*
X55556000Y-119556000D02*
X57056000Y-119556000D01*
X52200000Y-112099885D02*
X52200000Y-116200000D01*
X70151000Y-86571000D02*
X70151000Y-90976760D01*
X68127760Y-93000000D02*
X58937142Y-93000000D01*
X52304000Y-110666972D02*
X52304000Y-111995885D01*
X52202000Y-99735143D02*
X52202000Y-110564972D01*
X58937142Y-93000000D02*
X52202000Y-99735143D01*
X57056000Y-119556000D02*
X57500000Y-120000000D01*
X57500000Y-120000000D02*
X57500000Y-122225000D01*
%TO.N,Net-(JP6-C)*%
X72000000Y-96000000D02*
X59500000Y-96000000D01*
X56000000Y-110000000D02*
X65193840Y-110000000D01*
X77019000Y-119019000D02*
X77019000Y-122479000D01*
X69714840Y-114521000D02*
X72521000Y-114521000D01*
X55000000Y-109000000D02*
X56000000Y-110000000D01*
X55000000Y-100500000D02*
X55000000Y-109000000D01*
X59500000Y-96000000D02*
X55000000Y-100500000D01*
X77019000Y-122479000D02*
X78120000Y-123580000D01*
X65193840Y-110000000D02*
X69714840Y-114521000D01*
X72521000Y-114521000D02*
X77019000Y-119019000D01*
X72000000Y-96000000D02*
X76500000Y-91500000D01*
%TO.N,Net-(JP6-A)*%
X60000000Y-120707950D02*
X60000000Y-122265000D01*
X52602000Y-99900829D02*
X52602000Y-110399286D01*
X52704000Y-112161570D02*
X52600000Y-112265570D01*
X71000000Y-86920000D02*
X71000000Y-91000000D01*
X55146000Y-117354000D02*
X56646050Y-117354000D01*
X52602000Y-110399286D02*
X52704000Y-110501287D01*
X59002828Y-93500000D02*
X52602000Y-99900829D01*
X52704000Y-110501287D02*
X52704000Y-112161570D01*
X68500000Y-93500000D02*
X59002828Y-93500000D01*
X60000000Y-122265000D02*
X63810000Y-126075000D01*
X52600000Y-112265570D02*
X52600000Y-114808000D01*
X72500000Y-85420000D02*
X71000000Y-86920000D01*
X71000000Y-91000000D02*
X68500000Y-93500000D01*
X52600000Y-114808000D02*
X55146000Y-117354000D01*
X56646050Y-117354000D02*
X60000000Y-120707950D01*
%TO.N,Net-(J2-Pin_4)*%
X83500000Y-111500000D02*
X83500000Y-124580000D01*
X100651000Y-95349000D02*
X99951000Y-96049000D01*
X99951000Y-96049000D02*
X98951000Y-96049000D01*
X98951000Y-96049000D02*
X83500000Y-111500000D01*
X100651000Y-93271000D02*
X100651000Y-95349000D01*
X83500000Y-124580000D02*
X84880000Y-125960000D01*
X99500000Y-92120000D02*
X100651000Y-93271000D01*
%TO.N,Net-(J2-Pin_3)*%
X97500000Y-91580000D02*
X97500000Y-95500000D01*
X72420000Y-111500000D02*
X70500000Y-113420000D01*
X81500000Y-111500000D02*
X72420000Y-111500000D01*
X97500000Y-95500000D02*
X81500000Y-111500000D01*
X99500000Y-89580000D02*
X97500000Y-91580000D01*
%TO.N,Net-(J2-Pin_5)*%
X82660000Y-111500000D02*
X82660000Y-126280000D01*
X99500000Y-94660000D02*
X82660000Y-111500000D01*
X82660000Y-126280000D02*
X84880000Y-128500000D01*
%TD*%
M02*
