%TF.GenerationSoftware,KiCad,Pcbnew,9.0.7-9.0.7~ubuntu24.04.1*%
%TF.CreationDate,2026-03-18T09:41:29-05:00*%
%TF.ProjectId,protocard,70726f74-6f63-4617-9264-2e6b69636164,rev?*%
%TF.SameCoordinates,Original*%
%TF.FileFunction,Legend,Bot*%
%TF.FilePolarity,Positive*%
%FSLAX46Y46*%
G04 Gerber Fmt 4.6, Leading zero omitted, Abs format (unit mm)*
G04 Created by KiCad (PCBNEW 9.0.7-9.0.7~ubuntu24.04.1) date 2026-03-18 09:41:29*
%MOMM*%
%LPD*%
G01*
G04 APERTURE LIST*
%ADD10C,0.100000*%
%ADD11C,0.508000*%
G04 APERTURE END LIST*
D10*
X96549314Y-102688235D02*
X96263600Y-102783473D01*
X96263600Y-102783473D02*
X96168362Y-102878711D01*
X96168362Y-102878711D02*
X96073124Y-103069187D01*
X96073124Y-103069187D02*
X96073124Y-103354901D01*
X96073124Y-103354901D02*
X96168362Y-103545377D01*
X96168362Y-103545377D02*
X96263600Y-103640616D01*
X96263600Y-103640616D02*
X96454076Y-103735854D01*
X96454076Y-103735854D02*
X97215981Y-103735854D01*
X97215981Y-103735854D02*
X97215981Y-101735854D01*
X97215981Y-101735854D02*
X96549314Y-101735854D01*
X96549314Y-101735854D02*
X96358838Y-101831092D01*
X96358838Y-101831092D02*
X96263600Y-101926330D01*
X96263600Y-101926330D02*
X96168362Y-102116806D01*
X96168362Y-102116806D02*
X96168362Y-102307282D01*
X96168362Y-102307282D02*
X96263600Y-102497758D01*
X96263600Y-102497758D02*
X96358838Y-102592996D01*
X96358838Y-102592996D02*
X96549314Y-102688235D01*
X96549314Y-102688235D02*
X97215981Y-102688235D01*
X95215981Y-101735854D02*
X95215981Y-103354901D01*
X95215981Y-103354901D02*
X95120743Y-103545377D01*
X95120743Y-103545377D02*
X95025505Y-103640616D01*
X95025505Y-103640616D02*
X94835029Y-103735854D01*
X94835029Y-103735854D02*
X94454076Y-103735854D01*
X94454076Y-103735854D02*
X94263600Y-103640616D01*
X94263600Y-103640616D02*
X94168362Y-103545377D01*
X94168362Y-103545377D02*
X94073124Y-103354901D01*
X94073124Y-103354901D02*
X94073124Y-101735854D01*
X93215981Y-103640616D02*
X92930267Y-103735854D01*
X92930267Y-103735854D02*
X92454076Y-103735854D01*
X92454076Y-103735854D02*
X92263600Y-103640616D01*
X92263600Y-103640616D02*
X92168362Y-103545377D01*
X92168362Y-103545377D02*
X92073124Y-103354901D01*
X92073124Y-103354901D02*
X92073124Y-103164425D01*
X92073124Y-103164425D02*
X92168362Y-102973949D01*
X92168362Y-102973949D02*
X92263600Y-102878711D01*
X92263600Y-102878711D02*
X92454076Y-102783473D01*
X92454076Y-102783473D02*
X92835029Y-102688235D01*
X92835029Y-102688235D02*
X93025505Y-102592996D01*
X93025505Y-102592996D02*
X93120743Y-102497758D01*
X93120743Y-102497758D02*
X93215981Y-102307282D01*
X93215981Y-102307282D02*
X93215981Y-102116806D01*
X93215981Y-102116806D02*
X93120743Y-101926330D01*
X93120743Y-101926330D02*
X93025505Y-101831092D01*
X93025505Y-101831092D02*
X92835029Y-101735854D01*
X92835029Y-101735854D02*
X92358838Y-101735854D01*
X92358838Y-101735854D02*
X92073124Y-101831092D01*
X89882647Y-101735854D02*
X89406457Y-103735854D01*
X89406457Y-103735854D02*
X89025504Y-102307282D01*
X89025504Y-102307282D02*
X88644552Y-103735854D01*
X88644552Y-103735854D02*
X88168362Y-101735854D01*
X87501695Y-103164425D02*
X86549314Y-103164425D01*
X87692171Y-103735854D02*
X87025505Y-101735854D01*
X87025505Y-101735854D02*
X86358838Y-103735854D01*
X85692171Y-103735854D02*
X85692171Y-101735854D01*
X85025504Y-101735854D02*
X83882647Y-101735854D01*
X84454076Y-103735854D02*
X84454076Y-101735854D01*
X96519208Y-100038894D02*
X96233494Y-100134132D01*
X96233494Y-100134132D02*
X96138256Y-100229370D01*
X96138256Y-100229370D02*
X96043018Y-100419846D01*
X96043018Y-100419846D02*
X96043018Y-100705560D01*
X96043018Y-100705560D02*
X96138256Y-100896036D01*
X96138256Y-100896036D02*
X96233494Y-100991275D01*
X96233494Y-100991275D02*
X96423970Y-101086513D01*
X96423970Y-101086513D02*
X97185875Y-101086513D01*
X97185875Y-101086513D02*
X97185875Y-99086513D01*
X97185875Y-99086513D02*
X96519208Y-99086513D01*
X96519208Y-99086513D02*
X96328732Y-99181751D01*
X96328732Y-99181751D02*
X96233494Y-99276989D01*
X96233494Y-99276989D02*
X96138256Y-99467465D01*
X96138256Y-99467465D02*
X96138256Y-99657941D01*
X96138256Y-99657941D02*
X96233494Y-99848417D01*
X96233494Y-99848417D02*
X96328732Y-99943655D01*
X96328732Y-99943655D02*
X96519208Y-100038894D01*
X96519208Y-100038894D02*
X97185875Y-100038894D01*
X95185875Y-99086513D02*
X95185875Y-100705560D01*
X95185875Y-100705560D02*
X95090637Y-100896036D01*
X95090637Y-100896036D02*
X94995399Y-100991275D01*
X94995399Y-100991275D02*
X94804923Y-101086513D01*
X94804923Y-101086513D02*
X94423970Y-101086513D01*
X94423970Y-101086513D02*
X94233494Y-100991275D01*
X94233494Y-100991275D02*
X94138256Y-100896036D01*
X94138256Y-100896036D02*
X94043018Y-100705560D01*
X94043018Y-100705560D02*
X94043018Y-99086513D01*
X93185875Y-100991275D02*
X92900161Y-101086513D01*
X92900161Y-101086513D02*
X92423970Y-101086513D01*
X92423970Y-101086513D02*
X92233494Y-100991275D01*
X92233494Y-100991275D02*
X92138256Y-100896036D01*
X92138256Y-100896036D02*
X92043018Y-100705560D01*
X92043018Y-100705560D02*
X92043018Y-100515084D01*
X92043018Y-100515084D02*
X92138256Y-100324608D01*
X92138256Y-100324608D02*
X92233494Y-100229370D01*
X92233494Y-100229370D02*
X92423970Y-100134132D01*
X92423970Y-100134132D02*
X92804923Y-100038894D01*
X92804923Y-100038894D02*
X92995399Y-99943655D01*
X92995399Y-99943655D02*
X93090637Y-99848417D01*
X93090637Y-99848417D02*
X93185875Y-99657941D01*
X93185875Y-99657941D02*
X93185875Y-99467465D01*
X93185875Y-99467465D02*
X93090637Y-99276989D01*
X93090637Y-99276989D02*
X92995399Y-99181751D01*
X92995399Y-99181751D02*
X92804923Y-99086513D01*
X92804923Y-99086513D02*
X92328732Y-99086513D01*
X92328732Y-99086513D02*
X92043018Y-99181751D01*
X89281113Y-99086513D02*
X88900160Y-99086513D01*
X88900160Y-99086513D02*
X88709684Y-99181751D01*
X88709684Y-99181751D02*
X88519208Y-99372227D01*
X88519208Y-99372227D02*
X88423970Y-99753179D01*
X88423970Y-99753179D02*
X88423970Y-100419846D01*
X88423970Y-100419846D02*
X88519208Y-100800798D01*
X88519208Y-100800798D02*
X88709684Y-100991275D01*
X88709684Y-100991275D02*
X88900160Y-101086513D01*
X88900160Y-101086513D02*
X89281113Y-101086513D01*
X89281113Y-101086513D02*
X89471589Y-100991275D01*
X89471589Y-100991275D02*
X89662065Y-100800798D01*
X89662065Y-100800798D02*
X89757303Y-100419846D01*
X89757303Y-100419846D02*
X89757303Y-99753179D01*
X89757303Y-99753179D02*
X89662065Y-99372227D01*
X89662065Y-99372227D02*
X89471589Y-99181751D01*
X89471589Y-99181751D02*
X89281113Y-99086513D01*
X87566827Y-99086513D02*
X87566827Y-100705560D01*
X87566827Y-100705560D02*
X87471589Y-100896036D01*
X87471589Y-100896036D02*
X87376351Y-100991275D01*
X87376351Y-100991275D02*
X87185875Y-101086513D01*
X87185875Y-101086513D02*
X86804922Y-101086513D01*
X86804922Y-101086513D02*
X86614446Y-100991275D01*
X86614446Y-100991275D02*
X86519208Y-100896036D01*
X86519208Y-100896036D02*
X86423970Y-100705560D01*
X86423970Y-100705560D02*
X86423970Y-99086513D01*
X85757303Y-99086513D02*
X84614446Y-99086513D01*
X85185875Y-101086513D02*
X85185875Y-99086513D01*
X96458995Y-97509977D02*
X96173281Y-97605215D01*
X96173281Y-97605215D02*
X96078043Y-97700453D01*
X96078043Y-97700453D02*
X95982805Y-97890929D01*
X95982805Y-97890929D02*
X95982805Y-98176643D01*
X95982805Y-98176643D02*
X96078043Y-98367119D01*
X96078043Y-98367119D02*
X96173281Y-98462358D01*
X96173281Y-98462358D02*
X96363757Y-98557596D01*
X96363757Y-98557596D02*
X97125662Y-98557596D01*
X97125662Y-98557596D02*
X97125662Y-96557596D01*
X97125662Y-96557596D02*
X96458995Y-96557596D01*
X96458995Y-96557596D02*
X96268519Y-96652834D01*
X96268519Y-96652834D02*
X96173281Y-96748072D01*
X96173281Y-96748072D02*
X96078043Y-96938548D01*
X96078043Y-96938548D02*
X96078043Y-97129024D01*
X96078043Y-97129024D02*
X96173281Y-97319500D01*
X96173281Y-97319500D02*
X96268519Y-97414738D01*
X96268519Y-97414738D02*
X96458995Y-97509977D01*
X96458995Y-97509977D02*
X97125662Y-97509977D01*
X95125662Y-96557596D02*
X95125662Y-98176643D01*
X95125662Y-98176643D02*
X95030424Y-98367119D01*
X95030424Y-98367119D02*
X94935186Y-98462358D01*
X94935186Y-98462358D02*
X94744710Y-98557596D01*
X94744710Y-98557596D02*
X94363757Y-98557596D01*
X94363757Y-98557596D02*
X94173281Y-98462358D01*
X94173281Y-98462358D02*
X94078043Y-98367119D01*
X94078043Y-98367119D02*
X93982805Y-98176643D01*
X93982805Y-98176643D02*
X93982805Y-96557596D01*
X93125662Y-98462358D02*
X92839948Y-98557596D01*
X92839948Y-98557596D02*
X92363757Y-98557596D01*
X92363757Y-98557596D02*
X92173281Y-98462358D01*
X92173281Y-98462358D02*
X92078043Y-98367119D01*
X92078043Y-98367119D02*
X91982805Y-98176643D01*
X91982805Y-98176643D02*
X91982805Y-97986167D01*
X91982805Y-97986167D02*
X92078043Y-97795691D01*
X92078043Y-97795691D02*
X92173281Y-97700453D01*
X92173281Y-97700453D02*
X92363757Y-97605215D01*
X92363757Y-97605215D02*
X92744710Y-97509977D01*
X92744710Y-97509977D02*
X92935186Y-97414738D01*
X92935186Y-97414738D02*
X93030424Y-97319500D01*
X93030424Y-97319500D02*
X93125662Y-97129024D01*
X93125662Y-97129024D02*
X93125662Y-96938548D01*
X93125662Y-96938548D02*
X93030424Y-96748072D01*
X93030424Y-96748072D02*
X92935186Y-96652834D01*
X92935186Y-96652834D02*
X92744710Y-96557596D01*
X92744710Y-96557596D02*
X92268519Y-96557596D01*
X92268519Y-96557596D02*
X91982805Y-96652834D01*
X89601852Y-98557596D02*
X89601852Y-96557596D01*
X88649471Y-98557596D02*
X88649471Y-96557596D01*
X88649471Y-96557596D02*
X87506614Y-98557596D01*
X87506614Y-98557596D02*
X87506614Y-96557596D01*
X86554233Y-98557596D02*
X86554233Y-96557596D01*
X86554233Y-96557596D02*
X85792328Y-96557596D01*
X85792328Y-96557596D02*
X85601852Y-96652834D01*
X85601852Y-96652834D02*
X85506614Y-96748072D01*
X85506614Y-96748072D02*
X85411376Y-96938548D01*
X85411376Y-96938548D02*
X85411376Y-97224262D01*
X85411376Y-97224262D02*
X85506614Y-97414738D01*
X85506614Y-97414738D02*
X85601852Y-97509977D01*
X85601852Y-97509977D02*
X85792328Y-97605215D01*
X85792328Y-97605215D02*
X86554233Y-97605215D01*
X97029747Y-95923888D02*
X97029747Y-93923888D01*
X96172604Y-94114364D02*
X96077366Y-94019126D01*
X96077366Y-94019126D02*
X95886890Y-93923888D01*
X95886890Y-93923888D02*
X95410699Y-93923888D01*
X95410699Y-93923888D02*
X95220223Y-94019126D01*
X95220223Y-94019126D02*
X95124985Y-94114364D01*
X95124985Y-94114364D02*
X95029747Y-94304840D01*
X95029747Y-94304840D02*
X95029747Y-94495316D01*
X95029747Y-94495316D02*
X95124985Y-94781030D01*
X95124985Y-94781030D02*
X96267842Y-95923888D01*
X96267842Y-95923888D02*
X95029747Y-95923888D01*
X93029747Y-95733411D02*
X93124985Y-95828650D01*
X93124985Y-95828650D02*
X93410699Y-95923888D01*
X93410699Y-95923888D02*
X93601175Y-95923888D01*
X93601175Y-95923888D02*
X93886890Y-95828650D01*
X93886890Y-95828650D02*
X94077366Y-95638173D01*
X94077366Y-95638173D02*
X94172604Y-95447697D01*
X94172604Y-95447697D02*
X94267842Y-95066745D01*
X94267842Y-95066745D02*
X94267842Y-94781030D01*
X94267842Y-94781030D02*
X94172604Y-94400078D01*
X94172604Y-94400078D02*
X94077366Y-94209602D01*
X94077366Y-94209602D02*
X93886890Y-94019126D01*
X93886890Y-94019126D02*
X93601175Y-93923888D01*
X93601175Y-93923888D02*
X93410699Y-93923888D01*
X93410699Y-93923888D02*
X93124985Y-94019126D01*
X93124985Y-94019126D02*
X93029747Y-94114364D01*
X90648794Y-95923888D02*
X90648794Y-93923888D01*
X90648794Y-93923888D02*
X90172604Y-93923888D01*
X90172604Y-93923888D02*
X89886889Y-94019126D01*
X89886889Y-94019126D02*
X89696413Y-94209602D01*
X89696413Y-94209602D02*
X89601175Y-94400078D01*
X89601175Y-94400078D02*
X89505937Y-94781030D01*
X89505937Y-94781030D02*
X89505937Y-95066745D01*
X89505937Y-95066745D02*
X89601175Y-95447697D01*
X89601175Y-95447697D02*
X89696413Y-95638173D01*
X89696413Y-95638173D02*
X89886889Y-95828650D01*
X89886889Y-95828650D02*
X90172604Y-95923888D01*
X90172604Y-95923888D02*
X90648794Y-95923888D01*
X88744032Y-95352459D02*
X87791651Y-95352459D01*
X88934508Y-95923888D02*
X88267842Y-93923888D01*
X88267842Y-93923888D02*
X87601175Y-95923888D01*
X87220222Y-93923888D02*
X86077365Y-93923888D01*
X86648794Y-95923888D02*
X86648794Y-93923888D01*
X85505936Y-95352459D02*
X84553555Y-95352459D01*
X85696412Y-95923888D02*
X85029746Y-93923888D01*
X85029746Y-93923888D02*
X84363079Y-95923888D01*
X97048724Y-93298982D02*
X97048724Y-91298982D01*
X96191581Y-91489458D02*
X96096343Y-91394220D01*
X96096343Y-91394220D02*
X95905867Y-91298982D01*
X95905867Y-91298982D02*
X95429676Y-91298982D01*
X95429676Y-91298982D02*
X95239200Y-91394220D01*
X95239200Y-91394220D02*
X95143962Y-91489458D01*
X95143962Y-91489458D02*
X95048724Y-91679934D01*
X95048724Y-91679934D02*
X95048724Y-91870410D01*
X95048724Y-91870410D02*
X95143962Y-92156124D01*
X95143962Y-92156124D02*
X96286819Y-93298982D01*
X96286819Y-93298982D02*
X95048724Y-93298982D01*
X93048724Y-93108505D02*
X93143962Y-93203744D01*
X93143962Y-93203744D02*
X93429676Y-93298982D01*
X93429676Y-93298982D02*
X93620152Y-93298982D01*
X93620152Y-93298982D02*
X93905867Y-93203744D01*
X93905867Y-93203744D02*
X94096343Y-93013267D01*
X94096343Y-93013267D02*
X94191581Y-92822791D01*
X94191581Y-92822791D02*
X94286819Y-92441839D01*
X94286819Y-92441839D02*
X94286819Y-92156124D01*
X94286819Y-92156124D02*
X94191581Y-91775172D01*
X94191581Y-91775172D02*
X94096343Y-91584696D01*
X94096343Y-91584696D02*
X93905867Y-91394220D01*
X93905867Y-91394220D02*
X93620152Y-91298982D01*
X93620152Y-91298982D02*
X93429676Y-91298982D01*
X93429676Y-91298982D02*
X93143962Y-91394220D01*
X93143962Y-91394220D02*
X93048724Y-91489458D01*
X89524914Y-93108505D02*
X89620152Y-93203744D01*
X89620152Y-93203744D02*
X89905866Y-93298982D01*
X89905866Y-93298982D02*
X90096342Y-93298982D01*
X90096342Y-93298982D02*
X90382057Y-93203744D01*
X90382057Y-93203744D02*
X90572533Y-93013267D01*
X90572533Y-93013267D02*
X90667771Y-92822791D01*
X90667771Y-92822791D02*
X90763009Y-92441839D01*
X90763009Y-92441839D02*
X90763009Y-92156124D01*
X90763009Y-92156124D02*
X90667771Y-91775172D01*
X90667771Y-91775172D02*
X90572533Y-91584696D01*
X90572533Y-91584696D02*
X90382057Y-91394220D01*
X90382057Y-91394220D02*
X90096342Y-91298982D01*
X90096342Y-91298982D02*
X89905866Y-91298982D01*
X89905866Y-91298982D02*
X89620152Y-91394220D01*
X89620152Y-91394220D02*
X89524914Y-91489458D01*
X87715390Y-93298982D02*
X88667771Y-93298982D01*
X88667771Y-93298982D02*
X88667771Y-91298982D01*
X86667771Y-91298982D02*
X86286818Y-91298982D01*
X86286818Y-91298982D02*
X86096342Y-91394220D01*
X86096342Y-91394220D02*
X85905866Y-91584696D01*
X85905866Y-91584696D02*
X85810628Y-91965648D01*
X85810628Y-91965648D02*
X85810628Y-92632315D01*
X85810628Y-92632315D02*
X85905866Y-93013267D01*
X85905866Y-93013267D02*
X86096342Y-93203744D01*
X86096342Y-93203744D02*
X86286818Y-93298982D01*
X86286818Y-93298982D02*
X86667771Y-93298982D01*
X86667771Y-93298982D02*
X86858247Y-93203744D01*
X86858247Y-93203744D02*
X87048723Y-93013267D01*
X87048723Y-93013267D02*
X87143961Y-92632315D01*
X87143961Y-92632315D02*
X87143961Y-91965648D01*
X87143961Y-91965648D02*
X87048723Y-91584696D01*
X87048723Y-91584696D02*
X86858247Y-91394220D01*
X86858247Y-91394220D02*
X86667771Y-91298982D01*
X83810628Y-93108505D02*
X83905866Y-93203744D01*
X83905866Y-93203744D02*
X84191580Y-93298982D01*
X84191580Y-93298982D02*
X84382056Y-93298982D01*
X84382056Y-93298982D02*
X84667771Y-93203744D01*
X84667771Y-93203744D02*
X84858247Y-93013267D01*
X84858247Y-93013267D02*
X84953485Y-92822791D01*
X84953485Y-92822791D02*
X85048723Y-92441839D01*
X85048723Y-92441839D02*
X85048723Y-92156124D01*
X85048723Y-92156124D02*
X84953485Y-91775172D01*
X84953485Y-91775172D02*
X84858247Y-91584696D01*
X84858247Y-91584696D02*
X84667771Y-91394220D01*
X84667771Y-91394220D02*
X84382056Y-91298982D01*
X84382056Y-91298982D02*
X84191580Y-91298982D01*
X84191580Y-91298982D02*
X83905866Y-91394220D01*
X83905866Y-91394220D02*
X83810628Y-91489458D01*
X82953485Y-93298982D02*
X82953485Y-91298982D01*
X81810628Y-93298982D02*
X82667771Y-92156124D01*
X81810628Y-91298982D02*
X82953485Y-92441839D01*
X97231075Y-90607786D02*
X96945361Y-90703024D01*
X96945361Y-90703024D02*
X96469170Y-90703024D01*
X96469170Y-90703024D02*
X96278694Y-90607786D01*
X96278694Y-90607786D02*
X96183456Y-90512547D01*
X96183456Y-90512547D02*
X96088218Y-90322071D01*
X96088218Y-90322071D02*
X96088218Y-90131595D01*
X96088218Y-90131595D02*
X96183456Y-89941119D01*
X96183456Y-89941119D02*
X96278694Y-89845881D01*
X96278694Y-89845881D02*
X96469170Y-89750643D01*
X96469170Y-89750643D02*
X96850123Y-89655405D01*
X96850123Y-89655405D02*
X97040599Y-89560166D01*
X97040599Y-89560166D02*
X97135837Y-89464928D01*
X97135837Y-89464928D02*
X97231075Y-89274452D01*
X97231075Y-89274452D02*
X97231075Y-89083976D01*
X97231075Y-89083976D02*
X97135837Y-88893500D01*
X97135837Y-88893500D02*
X97040599Y-88798262D01*
X97040599Y-88798262D02*
X96850123Y-88703024D01*
X96850123Y-88703024D02*
X96373932Y-88703024D01*
X96373932Y-88703024D02*
X96088218Y-88798262D01*
X95231075Y-89655405D02*
X94564408Y-89655405D01*
X94278694Y-90703024D02*
X95231075Y-90703024D01*
X95231075Y-90703024D02*
X95231075Y-88703024D01*
X95231075Y-88703024D02*
X94278694Y-88703024D01*
X92469170Y-90703024D02*
X93421551Y-90703024D01*
X93421551Y-90703024D02*
X93421551Y-88703024D01*
X91802503Y-89655405D02*
X91135836Y-89655405D01*
X90850122Y-90703024D02*
X91802503Y-90703024D01*
X91802503Y-90703024D02*
X91802503Y-88703024D01*
X91802503Y-88703024D02*
X90850122Y-88703024D01*
X88850122Y-90512547D02*
X88945360Y-90607786D01*
X88945360Y-90607786D02*
X89231074Y-90703024D01*
X89231074Y-90703024D02*
X89421550Y-90703024D01*
X89421550Y-90703024D02*
X89707265Y-90607786D01*
X89707265Y-90607786D02*
X89897741Y-90417309D01*
X89897741Y-90417309D02*
X89992979Y-90226833D01*
X89992979Y-90226833D02*
X90088217Y-89845881D01*
X90088217Y-89845881D02*
X90088217Y-89560166D01*
X90088217Y-89560166D02*
X89992979Y-89179214D01*
X89992979Y-89179214D02*
X89897741Y-88988738D01*
X89897741Y-88988738D02*
X89707265Y-88798262D01*
X89707265Y-88798262D02*
X89421550Y-88703024D01*
X89421550Y-88703024D02*
X89231074Y-88703024D01*
X89231074Y-88703024D02*
X88945360Y-88798262D01*
X88945360Y-88798262D02*
X88850122Y-88893500D01*
X88278693Y-88703024D02*
X87135836Y-88703024D01*
X87707265Y-90703024D02*
X87707265Y-88703024D01*
X96638978Y-87619748D02*
X95686597Y-87619748D01*
X96829454Y-88191177D02*
X96162788Y-86191177D01*
X96162788Y-86191177D02*
X95496121Y-88191177D01*
X93781835Y-88191177D02*
X94924692Y-88191177D01*
X94353264Y-88191177D02*
X94353264Y-86191177D01*
X94353264Y-86191177D02*
X94543740Y-86476891D01*
X94543740Y-86476891D02*
X94734216Y-86667367D01*
X94734216Y-86667367D02*
X94924692Y-86762605D01*
X96952583Y-85131810D02*
X96000202Y-85131810D01*
X97143059Y-85703239D02*
X96476393Y-83703239D01*
X96476393Y-83703239D02*
X95809726Y-85703239D01*
X94762107Y-83703239D02*
X94571630Y-83703239D01*
X94571630Y-83703239D02*
X94381154Y-83798477D01*
X94381154Y-83798477D02*
X94285916Y-83893715D01*
X94285916Y-83893715D02*
X94190678Y-84084191D01*
X94190678Y-84084191D02*
X94095440Y-84465143D01*
X94095440Y-84465143D02*
X94095440Y-84941334D01*
X94095440Y-84941334D02*
X94190678Y-85322286D01*
X94190678Y-85322286D02*
X94285916Y-85512762D01*
X94285916Y-85512762D02*
X94381154Y-85608001D01*
X94381154Y-85608001D02*
X94571630Y-85703239D01*
X94571630Y-85703239D02*
X94762107Y-85703239D01*
X94762107Y-85703239D02*
X94952583Y-85608001D01*
X94952583Y-85608001D02*
X95047821Y-85512762D01*
X95047821Y-85512762D02*
X95143059Y-85322286D01*
X95143059Y-85322286D02*
X95238297Y-84941334D01*
X95238297Y-84941334D02*
X95238297Y-84465143D01*
X95238297Y-84465143D02*
X95143059Y-84084191D01*
X95143059Y-84084191D02*
X95047821Y-83893715D01*
X95047821Y-83893715D02*
X94952583Y-83798477D01*
X94952583Y-83798477D02*
X94762107Y-83703239D01*
X95343479Y-110913576D02*
X95248241Y-110723100D01*
X95248241Y-110723100D02*
X95248241Y-110437386D01*
X95248241Y-110437386D02*
X95343479Y-110151671D01*
X95343479Y-110151671D02*
X95533955Y-109961195D01*
X95533955Y-109961195D02*
X95724431Y-109865957D01*
X95724431Y-109865957D02*
X96105383Y-109770719D01*
X96105383Y-109770719D02*
X96391098Y-109770719D01*
X96391098Y-109770719D02*
X96772050Y-109865957D01*
X96772050Y-109865957D02*
X96962526Y-109961195D01*
X96962526Y-109961195D02*
X97153003Y-110151671D01*
X97153003Y-110151671D02*
X97248241Y-110437386D01*
X97248241Y-110437386D02*
X97248241Y-110627862D01*
X97248241Y-110627862D02*
X97153003Y-110913576D01*
X97153003Y-110913576D02*
X97057764Y-111008814D01*
X97057764Y-111008814D02*
X96391098Y-111008814D01*
X96391098Y-111008814D02*
X96391098Y-110627862D01*
X97248241Y-111865957D02*
X95248241Y-111865957D01*
X95248241Y-111865957D02*
X97248241Y-113008814D01*
X97248241Y-113008814D02*
X95248241Y-113008814D01*
X97248241Y-113961195D02*
X95248241Y-113961195D01*
X95248241Y-113961195D02*
X95248241Y-114437385D01*
X95248241Y-114437385D02*
X95343479Y-114723100D01*
X95343479Y-114723100D02*
X95533955Y-114913576D01*
X95533955Y-114913576D02*
X95724431Y-115008814D01*
X95724431Y-115008814D02*
X96105383Y-115104052D01*
X96105383Y-115104052D02*
X96391098Y-115104052D01*
X96391098Y-115104052D02*
X96772050Y-115008814D01*
X96772050Y-115008814D02*
X96962526Y-114913576D01*
X96962526Y-114913576D02*
X97153003Y-114723100D01*
X97153003Y-114723100D02*
X97248241Y-114437385D01*
X97248241Y-114437385D02*
X97248241Y-113961195D01*
X94729332Y-129038080D02*
X98113492Y-129054288D01*
X94729332Y-136881478D02*
X98153829Y-136881478D01*
X94729332Y-121503667D02*
X94729332Y-136881478D01*
X98032355Y-121503667D02*
X94729332Y-121503667D01*
X95371414Y-122529211D02*
X95371414Y-123767306D01*
X95371414Y-123767306D02*
X96133318Y-123100639D01*
X96133318Y-123100639D02*
X96133318Y-123386354D01*
X96133318Y-123386354D02*
X96228556Y-123576830D01*
X96228556Y-123576830D02*
X96323795Y-123672068D01*
X96323795Y-123672068D02*
X96514271Y-123767306D01*
X96514271Y-123767306D02*
X96990461Y-123767306D01*
X96990461Y-123767306D02*
X97180937Y-123672068D01*
X97180937Y-123672068D02*
X97276176Y-123576830D01*
X97276176Y-123576830D02*
X97371414Y-123386354D01*
X97371414Y-123386354D02*
X97371414Y-122814925D01*
X97371414Y-122814925D02*
X97276176Y-122624449D01*
X97276176Y-122624449D02*
X97180937Y-122529211D01*
X97180937Y-124624449D02*
X97276176Y-124719687D01*
X97276176Y-124719687D02*
X97371414Y-124624449D01*
X97371414Y-124624449D02*
X97276176Y-124529211D01*
X97276176Y-124529211D02*
X97180937Y-124624449D01*
X97180937Y-124624449D02*
X97371414Y-124624449D01*
X95371414Y-125386354D02*
X95371414Y-126624449D01*
X95371414Y-126624449D02*
X96133318Y-125957782D01*
X96133318Y-125957782D02*
X96133318Y-126243497D01*
X96133318Y-126243497D02*
X96228556Y-126433973D01*
X96228556Y-126433973D02*
X96323795Y-126529211D01*
X96323795Y-126529211D02*
X96514271Y-126624449D01*
X96514271Y-126624449D02*
X96990461Y-126624449D01*
X96990461Y-126624449D02*
X97180937Y-126529211D01*
X97180937Y-126529211D02*
X97276176Y-126433973D01*
X97276176Y-126433973D02*
X97371414Y-126243497D01*
X97371414Y-126243497D02*
X97371414Y-125672068D01*
X97371414Y-125672068D02*
X97276176Y-125481592D01*
X97276176Y-125481592D02*
X97180937Y-125386354D01*
X95371414Y-127195878D02*
X97371414Y-127862544D01*
X97371414Y-127862544D02*
X95371414Y-128529211D01*
X95250038Y-132994360D02*
X95250038Y-132041979D01*
X95250038Y-132041979D02*
X96202419Y-131946741D01*
X96202419Y-131946741D02*
X96107180Y-132041979D01*
X96107180Y-132041979D02*
X96011942Y-132232455D01*
X96011942Y-132232455D02*
X96011942Y-132708646D01*
X96011942Y-132708646D02*
X96107180Y-132899122D01*
X96107180Y-132899122D02*
X96202419Y-132994360D01*
X96202419Y-132994360D02*
X96392895Y-133089598D01*
X96392895Y-133089598D02*
X96869085Y-133089598D01*
X96869085Y-133089598D02*
X97059561Y-132994360D01*
X97059561Y-132994360D02*
X97154800Y-132899122D01*
X97154800Y-132899122D02*
X97250038Y-132708646D01*
X97250038Y-132708646D02*
X97250038Y-132232455D01*
X97250038Y-132232455D02*
X97154800Y-132041979D01*
X97154800Y-132041979D02*
X97059561Y-131946741D01*
X95250038Y-133661027D02*
X97250038Y-134327693D01*
X97250038Y-134327693D02*
X95250038Y-134994360D01*
D11*
%TO.C,J1*%
X97415600Y-141500000D02*
G75*
G02*
X96653600Y-141500000I-381000J0D01*
G01*
X96653600Y-141500000D02*
G75*
G02*
X97415600Y-141500000I381000J0D01*
G01*
%TD*%
M02*
